{
.appVersion = "1119";
DisplayStrings = (
XYNI,
Frnee,
IABCDEFGSHIJRuKRLMINRSITUVWXSZYQuennabelngcaClkpnnvnontnninnxwyvnnzn,
ij,
"ab/_part_bowl dnyvss c/_part_bowl detfanlcnogghnilkyvwnxnjlklmhjonessno/_part_bowl pqrxstnuvwxyz",
"nnonnnfirmation\012DEFINATELY\012GHIJKLMNOIPQRSTUVWXYZ",
"the quick brown fox jumps ovoaes/n_bow n/_part_bowl dqpbor the lazy /_part_bowl bq/_part_bowl dogstnra asße",
"nnannunbcdefgnyhijklmno/_part_bowl nnpqnonnrnbcnstnnuvwxyz",
"xy tfkujvrsnpeCnncbq",
Zagqxz,
"the quick brownfox jumps over the lazy /_part.stem_asc dog",
"straßenbahnfijahrerionpqe",
"anrtfnpqyß",
"abcdefghijklmn/n_bow o/_part_bowl pqrkasßaececcftuvwxyz"
);
date = "2017-07-05 13:14:12 +0000";
familyName = "new Font";
fontMaster = (
{
ascender = 800;
capHeight = 700;
custom = Text;
descender = -200;
id = "1B5E7594-BD1E-41E1-80E1-0DE241437139";
userData = {
GSCornerRadius = 47;
};
weightValue = 65;
xHeight = 500;
},
{
ascender = 800;
capHeight = 700;
custom = Text;
descender = -200;
id = "5A1ECF60-5C3D-4C60-84B4-C69E600E0422";
userData = {
GSCornerRadius = 40;
};
weight = Bold;
weightValue = 175;
xHeight = 500;
}
);
glyphs = (
{
color = 1;
glyphname = A;
lastChange = "2018-03-24 11:59:11 +0000";
layers = (
{
background = {
components = (
{
name = H;
transform = "{1, 0, 0, 1, -10, 0}";
}
);
};
layerId = "1B5E7594-BD1E-41E1-80E1-0DE241437139";
paths = (
{
closed = 1;
nodes = (
"216 215 LINE",
"480 215 LINE",
"481 261 LINE",
"217 261 LINE"
);
},
{
closed = 1;
nodes = (
"511 73 LINE SMOOTH",
"517 53 OFFCURVE",
"502 38 OFFCURVE",
"483 35 CURVE SMOOTH",
"431 28 LINE",
"431 -3 LINE",
"550 0 LINE",
"675 -3 LINE",
"675 28 LINE",
"622 37 LINE SMOOTH",
"606 40 OFFCURVE",
"591 52 OFFCURVE",
"586 69 CURVE SMOOTH",
"398 705 LINE",
"390 711 LINE",
"323 695 LINE",
"124 83 LINE SMOOTH",
"115 57 OFFCURVE",
"104 43 OFFCURVE",
"80 38 CURVE SMOOTH",
"33 28 LINE",
"33 -3 LINE",
"146 0 LINE",
"278 -3 LINE",
"278 28 LINE",
"214 40 LINE SMOOTH",
"185 45 OFFCURVE",
"177 61 OFFCURVE",
"184 83 CURVE SMOOTH",
"354 629 LINE"
);
}
);
width = 708;
},
{
layerId = "5A1ECF60-5C3D-4C60-84B4-C69E600E0422";
paths = (
{
closed = 1;
nodes = (
"197 189 LINE",
"398 189 LINE",
"398 288 LINE",
"197 288 LINE"
);
},
{
closed = 1;
nodes = (
"395 130 LINE SMOOTH",
"400 108 OFFCURVE",
"390 92 OFFCURVE",
"367 89 CURVE SMOOTH",
"343 86 LINE",
"343 -3 LINE",
"516 0 LINE",
"680 -3 LINE",
"680 86 LINE",
"648 89 LINE SMOOTH",
"628 91 OFFCURVE",
"616 101 OFFCURVE",
"611 121 CURVE SMOOTH",
"454 700 LINE",
"436 718 LINE",
"341 704 OFFCURVE",
"248 694 OFFCURVE",
"155 690 CURVE",
"155 600 LINE",
"182 599 LINE SMOOTH",
"214 598 OFFCURVE",
"226 580 OFFCURVE",
"216 550 CURVE SMOOTH",
"78 134 LINE SMOOTH",
"72 116 OFFCURVE",
"54 99 OFFCURVE",
"36 95 CURVE SMOOTH",
"-10 86 LINE",
"-10 -3 LINE",
"121 0 LINE",
"275 -3 LINE",
"275 86 LINE",
"240 93 LINE SMOOTH",
"218 97 OFFCURVE",
"210 116 OFFCURVE",
"215 138 CURVE SMOOTH",
"307 505 LINE"
);
}
);
width = 670;
},
{
associatedMasterId = "1B5E7594-BD1E-41E1-80E1-0DE241437139";
background = {
components = (
{
name = n;
transform = "{1, 0, 0, 1, 205, 210}";
}
);
};
layerId = "B8DDF668-9570-4839-8254-475FDD86D5ED";
name = "Mar 24 18, 11:48";
paths = (
{
closed = 1;
nodes = (
"216 215 LINE",
"480 215 LINE",
"481 261 LINE",
"217 261 LINE"
);
},
{
closed = 1;
nodes = (
"511 73 LINE SMOOTH",
"517 53 OFFCURVE",
"502 38 OFFCURVE",
"483 35 CURVE SMOOTH",
"431 28 LINE",
"431 -3 LINE",
"550 0 LINE",
"675 -3 LINE",
"675 28 LINE",
"622 37 LINE SMOOTH",
"606 40 OFFCURVE",
"591 52 OFFCURVE",
"586 69 CURVE SMOOTH",
"396 708 LINE",
"388 714 LINE",
"341 707 OFFCURVE",
"268 698 OFFCURVE",
"218 693 CURVE",
"218 661 LINE",
"288 657 LINE SMOOTH",
"308 656 OFFCURVE",
"309 641 OFFCURVE",
"302 621 CURVE SMOOTH",
"124 83 LINE SMOOTH",
"115 57 OFFCURVE",
"104 43 OFFCURVE",
"80 38 CURVE SMOOTH",
"33 28 LINE",
"33 -3 LINE",
"146 0 LINE",
"278 -3 LINE",
"278 28 LINE",
"214 40 LINE SMOOTH",
"185 45 OFFCURVE",
"177 61 OFFCURVE",
"184 83 CURVE SMOOTH",
"352 619 LINE"
);
}
);
width = 708;
}
);
unicode = 0041;
},
{
glyphname = B;
lastChange = "2017-12-09 17:39:21 +0000";
layers = (
{
components = (
{
alignment = -1;
name = I;
}
);
layerId = "1B5E7594-BD1E-41E1-80E1-0DE241437139";
paths = (
{
closed = 1;
nodes = (
"318 709 OFFCURVE",
"527 721 OFFCURVE",
"527 539 CURVE SMOOTH",
"527 377 OFFCURVE",
"405 343 OFFCURVE",
"148 333 CURVE",
"166 380 LINE",
"364 373 OFFCURVE",
"453 406 OFFCURVE",
"453 529 CURVE SMOOTH",
"453 631 OFFCURVE",
"362 674 OFFCURVE",
"162 648 CURVE",
"164 700 LINE"
);
},
{
closed = 1;
nodes = (
"167 47 LINE",
"404 29 OFFCURVE",
"485 62 OFFCURVE",
"485 193 CURVE SMOOTH",
"485 309 OFFCURVE",
"376 343 OFFCURVE",
"164 326 CURVE",
"158 369 LINE",
"322 385 OFFCURVE",
"558 392 OFFCURVE",
"558 200 CURVE SMOOTH",
"558 37 OFFCURVE",
"436 -14 OFFCURVE",
"242 -2 CURVE"
);
}
);
width = 573;
},
{
components = (
{
name = I;
}
);
layerId = "5A1ECF60-5C3D-4C60-84B4-C69E600E0422";
paths = (
{
closed = 1;
nodes = (
"418 703 OFFCURVE",
"645 721 OFFCURVE",
"645 539 CURVE SMOOTH",
"645 377 OFFCURVE",
"503 333 OFFCURVE",
"228 333 CURVE",
"226 404 LINE",
"395 390 OFFCURVE",
"413 424 OFFCURVE",
"413 492 CURVE SMOOTH",
"413 588 OFFCURVE",
"379 603 OFFCURVE",
"281 596 CURVE",
"264 700 LINE"
);
},
{
closed = 1;
nodes = (
"281 99 LINE",
"409 90 OFFCURVE",
"435 128 OFFCURVE",
"435 203 CURVE SMOOTH",
"435 294 OFFCURVE",
"386 309 OFFCURVE",
"244 296 CURVE",
"238 369 LINE",
"483 369 OFFCURVE",
"668 373 OFFCURVE",
"668 181 CURVE SMOOTH",
"668 18 OFFCURVE",
"478 -10 OFFCURVE",
"324 -2 CURVE"
);
}
);
width = 683;
}
);
leftMetricsKey = I;
unicode = 0042;
},
{
glyphname = C;
lastChange = "2018-01-01 15:37:45 +0000";
layers = (
{
background = {
components = (
{
name = G;
transform = "{1, 0, 0, 1, 48, 0}";
}
);
};
layerId = "1B5E7594-BD1E-41E1-80E1-0DE241437139";
paths = (
{
closed = 1;
nodes = (
"63 100 OFFCURVE",
"187 -18 OFFCURVE",
"368 -18 CURVE SMOOTH",
"429 -18 OFFCURVE",
"496 -3 OFFCURVE",
"568 27 CURVE",
"588 86 LINE",
"581 93 LINE",
"328 -20 OFFCURVE",
"135 77 OFFCURVE",
"135 337 CURVE SMOOTH",
"135 565 OFFCURVE",
"258 667 OFFCURVE",
"439 667 CURVE SMOOTH",
"511 667 OFFCURVE",
"521 652 OFFCURVE",
"517 567 CURVE",
"562 567 LINE",
"580 703 LINE",
"532 710 OFFCURVE",
"487 713 OFFCURVE",
"445 713 CURVE SMOOTH",
"198 713 OFFCURVE",
"67 589 OFFCURVE",
"65 334 CURVE SMOOTH"
);
}
);
width = 598;
},
{
background = {
components = (
{
name = G;
}
);
};
layerId = "5A1ECF60-5C3D-4C60-84B4-C69E600E0422";
paths = (
{
closed = 1;
nodes = (
"20 103 OFFCURVE",
"167 -19 OFFCURVE",
"364 -19 CURVE SMOOTH",
"432 -19 OFFCURVE",
"506 -7 OFFCURVE",
"582 23 CURVE",
"635 186 LINE",
"609 210 LINE",
"416 125 OFFCURVE",
"249 172 OFFCURVE",
"246 348 CURVE SMOOTH",
"243 522 OFFCURVE",
"307 573 OFFCURVE",
"375 574 CURVE SMOOTH",
"424 575 OFFCURVE",
"462 551 OFFCURVE",
"445 408 CURVE",
"586 408 LINE",
"631 699 LINE",
"582 715 OFFCURVE",
"511 720 OFFCURVE",
"427 720 CURVE SMOOTH",
"177 720 OFFCURVE",
"20 577 OFFCURVE",
"20 336 CURVE SMOOTH"
);
}
);
width = 645;
}
);
leftMetricsKey = O;
unicode = 0043;
},
{
color = 1;
glyphname = D;
lastChange = "2018-03-24 11:57:27 +0000";
layers = (
{
background = {
components = (
{
name = O;
transform = "{1, 0, 0, 1, -29, 0}";
}
);
};
components = (
{
name = I;
}
);
layerId = "1B5E7594-BD1E-41E1-80E1-0DE241437139";
paths = (
{
closed = 1;
nodes = (
"509 727 OFFCURVE",
"640 616 OFFCURVE",
"640 365 CURVE SMOOTH",
"640 120 OFFCURVE",
"536 -34 OFFCURVE",
"202 2 CURVE",
"202 41 LINE",
"490 31 OFFCURVE",
"571 148 OFFCURVE",
"571 365 CURVE SMOOTH",
"571 567 OFFCURVE",
"454 675 OFFCURVE",
"206 660 CURVE",
"184 700 LINE"
);
}
);
width = 652;
},
{
background = {
components = (
{
name = O;
transform = "{1, 0, 0, 1, -23, 0}";
}
);
};
components = (
{
name = I;
}
);
layerId = "5A1ECF60-5C3D-4C60-84B4-C69E600E0422";
paths = (
{
closed = 1;
nodes = (
"541 721 OFFCURVE",
"679 637 OFFCURVE",
"679 359 CURVE SMOOTH",
"679 100 OFFCURVE",
"552 -23 OFFCURVE",
"278 0 CURVE",
"283 103 LINE",
"418 95 OFFCURVE",
"440 139 OFFCURVE",
"440 365 CURVE SMOOTH",
"440 567 OFFCURVE",
"415 601 OFFCURVE",
"278 586 CURVE",
"264 700 LINE"
);
}
);
width = 689;
}
);
leftMetricsKey = I;
unicode = 0044;
},
{
color = 1;
glyphname = E;
lastChange = "2018-03-24 11:56:52 +0000";
layers = (
{
background = {
components = (
{
name = H;
transform = "{1, 0, 0, 1, -1, 0}";
}
);
};
guideLines = (
{
angle = 90;
position = "{578, 664}";
}
);
layerId = "1B5E7594-BD1E-41E1-80E1-0DE241437139";
paths = (
{
closed = 1;
nodes = (
"39 30 LINE",
"87 38 LINE SMOOTH",
"111 42 OFFCURVE",
"123 55 OFFCURVE",
"123 79 CURVE SMOOTH",
"123 610 LINE SMOOTH",
"123 634 OFFCURVE",
"110 658 OFFCURVE",
"86 661 CURVE SMOOTH",
"40 667 LINE",
"40 702 LINE",
"183 700 LINE",
"504 705 LINE",
"512 689 LINE",
"495 567 LINE",
"454 567 LINE",
"459 644 OFFCURVE",
"449 656 OFFCURVE",
"401 656 CURVE SMOOTH",
"221 655 LINE SMOOTH",
"199 655 OFFCURVE",
"190 632 OFFCURVE",
"190 611 CURVE SMOOTH",
"190 358 LINE",
"353 360 LINE SMOOTH",
"370 360 OFFCURVE",
"385 370 OFFCURVE",
"388 388 CURVE SMOOTH",
"395 427 LINE",
"429 427 LINE",
"429 244 LINE",
"396 244 LINE",
"388 285 LINE SMOOTH",
"385 302 OFFCURVE",
"370 310 OFFCURVE",
"353 310 CURVE SMOOTH",
"190 310 LINE",
"190 88 LINE SMOOTH",
"190 64 OFFCURVE",
"193 37 OFFCURVE",
"237 38 CURVE SMOOTH",
"405 43 LINE SMOOTH",
"457 45 OFFCURVE",
"474 54 OFFCURVE",
"490 133 CURVE",
"532 133 LINE",
"514 -4 LINE",
"188 0 LINE",
"39 -3 LINE"
);
}
);
width = 586;
},
{
layerId = "5A1ECF60-5C3D-4C60-84B4-C69E600E0422";
paths = (
{
closed = 1;
nodes = (
"30 89 LINE",
"52 91 LINE SMOOTH",
"73 93 OFFCURVE",
"87 108 OFFCURVE",
"87 129 CURVE",
"82 573 LINE",
"82 594 OFFCURVE",
"71 606 OFFCURVE",
"50 610 CURVE SMOOTH",
"31 614 LINE",
"31 703 LINE",
"207 700 LINE",
"545 707 LINE",
"571 685 LINE",
"545 506 LINE",
"452 506 LINE",
"459 570 OFFCURVE",
"447 594 OFFCURVE",
"400 595 CURVE SMOOTH",
"317 596 LINE SMOOTH",
"302 596 OFFCURVE",
"293 587 OFFCURVE",
"293 569 CURVE SMOOTH",
"291 383 LINE",
"345 383 LINE SMOOTH",
"373 383 OFFCURVE",
"386 393 OFFCURVE",
"390 412 CURVE SMOOTH",
"397 449 LINE",
"487 449 LINE",
"487 229 LINE",
"397 229 LINE",
"392 261 LINE SMOOTH",
"389 280 OFFCURVE",
"374 290 OFFCURVE",
"347 290 CURVE SMOOTH",
"290 290 LINE",
"289 139 LINE SMOOTH",
"289 120 OFFCURVE",
"296 108 OFFCURVE",
"315 108 CURVE SMOOTH",
"436 111 LINE SMOOTH",
"482 112 OFFCURVE",
"495 132 OFFCURVE",
"503 186 CURVE",
"596 186 LINE",
"576 -4 LINE",
"203 0 LINE",
"30 -3 LINE"
);
}
);
width = 606;
}
);
leftMetricsKey = I;
unicode = 0045;
},
{
color = 1;
glyphname = F;
lastChange = "2017-12-09 17:39:21 +0000";
layers = (
{
background = {
components = (
{
name = G;
transform = "{1, 0, 0, 1, -44, 0}";
}
);
};
layerId = "1B5E7594-BD1E-41E1-80E1-0DE241437139";
paths = (
{
closed = 1;
nodes = (
"39 39 LINE",
"87 47 LINE SMOOTH",
"111 51 OFFCURVE",
"123 64 OFFCURVE",
"123 88 CURVE SMOOTH",
"123 610 LINE SMOOTH",
"123 634 OFFCURVE",
"110 652 OFFCURVE",
"86 655 CURVE SMOOTH",
"40 661 LINE",
"40 704 LINE",
"195 700 LINE",
"480 706 LINE",
"488 690 LINE",
"471 567 LINE",
"428 567 LINE",
"433 644 OFFCURVE",
"424 658 OFFCURVE",
"376 657 CURVE SMOOTH",
"226 653 LINE SMOOTH",
"202 652 OFFCURVE",
"190 635 OFFCURVE",
"190 611 CURVE SMOOTH",
"190 348 LINE",
"330 350 LINE SMOOTH",
"347 350 OFFCURVE",
"361 357 OFFCURVE",
"364 375 CURVE SMOOTH",
"372 417 LINE",
"406 417 LINE",
"406 234 LINE",
"373 234 LINE",
"364 276 LINE SMOOTH",
"360 293 OFFCURVE",
"347 300 OFFCURVE",
"330 300 CURVE SMOOTH",
"190 300 LINE",
"190 88 LINE SMOOTH",
"190 64 OFFCURVE",
"204 51 OFFCURVE",
"228 48 CURVE SMOOTH",
"315 36 LINE",
"315 -2 LINE",
"185 0 LINE",
"39 -3 LINE"
);
}
);
width = 529;
},
{
layerId = "5A1ECF60-5C3D-4C60-84B4-C69E600E0422";
paths = (
{
closed = 1;
nodes = (
"30 89 LINE",
"52 91 LINE SMOOTH",
"73 93 OFFCURVE",
"87 108 OFFCURVE",
"87 129 CURVE SMOOTH",
"82 573 LINE SMOOTH",
"82 594 OFFCURVE",
"71 606 OFFCURVE",
"50 610 CURVE SMOOTH",
"31 614 LINE",
"31 703 LINE",
"184 700 LINE",
"540 706 LINE",
"556 684 LINE",
"530 506 LINE",
"438 506 LINE",
"445 570 OFFCURVE",
"429 596 OFFCURVE",
"390 595 CURVE SMOOTH",
"313 594 LINE SMOOTH",
"300 594 OFFCURVE",
"293 587 OFFCURVE",
"293 574 CURVE SMOOTH",
"291 372 LINE",
"331 372 LINE SMOOTH",
"361 372 OFFCURVE",
"368 382 OFFCURVE",
"372 401 CURVE SMOOTH",
"379 438 LINE",
"470 438 LINE",
"470 218 LINE",
"379 218 LINE",
"373 251 LINE SMOOTH",
"370 270 OFFCURVE",
"362 279 OFFCURVE",
"333 279 CURVE SMOOTH",
"290 279 LINE",
"289 140 LINE SMOOTH",
"289 107 OFFCURVE",
"307 92 OFFCURVE",
"336 91 CURVE SMOOTH",
"383 89 LINE",
"383 -4 LINE",
"204 0 LINE",
"30 -3 LINE"
);
}
);
width = 561;
}
);
leftMetricsKey = I;
unicode = 0046;
},
{
color = 1;
glyphname = G;
lastChange = "2018-03-24 11:55:45 +0000";
layers = (
{
background = {
components = (
{
name = O;
}
);
};
guideLines = (
{
angle = 90;
position = "{736, 679}";
},
{
angle = 90;
position = "{598, 358}";
}
);
layerId = "1B5E7594-BD1E-41E1-80E1-0DE241437139";
paths = (
{
closed = 1;
nodes = (
"63 91 OFFCURVE",
"186 -21 OFFCURVE",
"382 -21 CURVE SMOOTH",
"447 -21 OFFCURVE",
"520 -8 OFFCURVE",
"599 17 CURVE",
"595 227 LINE SMOOTH",
"595 252 OFFCURVE",
"605 261 OFFCURVE",
"622 265 CURVE SMOOTH",
"656 273 LINE",
"656 305 LINE",
"563 303 LINE",
"434 306 LINE",
"434 276 LINE",
"496 266 LINE SMOOTH",
"518 262 OFFCURVE",
"529 250 OFFCURVE",
"529 227 CURVE SMOOTH",
"529 48 LINE",
"246 -28 OFFCURVE",
"138 128 OFFCURVE",
"140 343 CURVE SMOOTH",
"142 551 OFFCURVE",
"241 671 OFFCURVE",
"399 672 CURVE SMOOTH",
"524 673 OFFCURVE",
"549 658 OFFCURVE",
"543 557 CURVE",
"587 557 LINE",
"605 701 LINE",
"540 713 OFFCURVE",
"475 719 OFFCURVE",
"421 719 CURVE SMOOTH",
"193 719 OFFCURVE",
"71 600 OFFCURVE",
"67 343 CURVE SMOOTH"
);
}
);
width = 724;
},
{
background = {
components = (
{
name = C;
}
);
};
layerId = "5A1ECF60-5C3D-4C60-84B4-C69E600E0422";
paths = (
{
closed = 1;
nodes = (
"20 119 OFFCURVE",
"137 -16 OFFCURVE",
"365 -16 CURVE SMOOTH",
"464 -16 OFFCURVE",
"567 7 OFFCURVE",
"642 43 CURVE",
"638 211 LINE SMOOTH",
"637 232 OFFCURVE",
"644 250 OFFCURVE",
"664 253 CURVE SMOOTH",
"686 256 LINE",
"686 347 LINE",
"535 342 LINE",
"381 347 LINE",
"381 256 LINE",
"413 252 LINE SMOOTH",
"437 249 OFFCURVE",
"444 228 OFFCURVE",
"444 189 CURVE SMOOTH",
"444 111 LINE",
"296 78 OFFCURVE",
"242 172 OFFCURVE",
"245 361 CURVE SMOOTH",
"248 546 OFFCURVE",
"318 609 OFFCURVE",
"425 602 CURVE SMOOTH",
"464 599 OFFCURVE",
"474 573 OFFCURVE",
"462 488 CURVE",
"586 488 LINE",
"631 700 LINE",
"566 714 OFFCURVE",
"503 721 OFFCURVE",
"445 721 CURVE SMOOTH",
"184 721 OFFCURVE",
"20 585 OFFCURVE",
"20 336 CURVE SMOOTH"
);
}
);
width = 719;
}
);
leftMetricsKey = O;
unicode = 0047;
},
{
glyphname = H;
lastChange = "2018-03-24 11:38:36 +0000";
layers = (
{
background = {
components = (
{
name = n;
transform = "{1, 0, 0, 1, 68, 0}";
}
);
};
components = (
{
alignment = -1;
name = I;
},
{
alignment = -1;
name = I;
transform = "{1, 0, 0, 1, 407, 0}";
}
);
layerId = "1B5E7594-BD1E-41E1-80E1-0DE241437139";
paths = (
{
closed = 1;
nodes = (
"556 368 LINE",
"556 325 LINE",
"145 325 LINE",
"145 368 LINE"
);
}
);
width = 727;
},
{
components = (
{
name = I;
},
{
name = I;
transform = "{1, 0, 0, 1, 365, 0}";
}
);
layerId = "5A1ECF60-5C3D-4C60-84B4-C69E600E0422";
paths = (
{
closed = 1;
nodes = (
"539 391 LINE",
"539 292 LINE",
"196 292 LINE",
"196 391 LINE"
);
}
);
width = 742;
}
);
leftMetricsKey = I;
rightMetricsKey = I;
unicode = 0048;
},
{
color = 1;
glyphname = I;
lastChange = "2017-12-09 17:38:10 +0000";
layers = (
{
background = {
paths = (
{
closed = 1;
nodes = (
"281 672 LINE",
"233 664 LINE SMOOTH",
"209 660 OFFCURVE",
"197 647 OFFCURVE",
"197 623 CURVE SMOOTH",
"197 88 LINE SMOOTH",
"197 64 OFFCURVE",
"210 46 OFFCURVE",
"234 43 CURVE SMOOTH",
"280 37 LINE",
"280 -7 LINE",
"167 -2 LINE",
"41 -7 LINE",
"41 37 LINE",
"94 45 LINE SMOOTH",
"118 49 OFFCURVE",
"130 63 OFFCURVE",
"130 87 CURVE SMOOTH",
"130 623 LINE SMOOTH",
"130 647 OFFCURVE",
"117 659 OFFCURVE",
"93 663 CURVE SMOOTH",
"39 672 LINE",
"39 701 LINE",
"162 698 LINE",
"281 701 LINE"
);
}
);
};
layerId = "1B5E7594-BD1E-41E1-80E1-0DE241437139";
paths = (
{
closed = 1;
nodes = (
"39 26 LINE",
"87 34 LINE SMOOTH",
"111 38 OFFCURVE",
"123 51 OFFCURVE",
"123 75 CURVE SMOOTH",
"123 621 LINE SMOOTH",
"123 645 OFFCURVE",
"110 663 OFFCURVE",
"86 666 CURVE SMOOTH",
"40 672 LINE",
"40 704 LINE",
"153 700 LINE",
"279 704 LINE",
"279 672 LINE",
"226 664 LINE SMOOTH",
"202 660 OFFCURVE",
"190 646 OFFCURVE",
"190 622 CURVE SMOOTH",
"190 75 LINE SMOOTH",
"190 51 OFFCURVE",
"203 39 OFFCURVE",
"227 35 CURVE SMOOTH",
"281 26 LINE",
"281 -3 LINE",
"158 0 LINE",
"39 -3 LINE"
);
}
);
width = 320;
},
{
background = {
components = (
{
name = l;
transform = "{1, 0, 0, 1, 14, 0}";
}
);
};
layerId = "5A1ECF60-5C3D-4C60-84B4-C69E600E0422";
paths = (
{
closed = 1;
nodes = (
"30 89 LINE",
"52 91 LINE SMOOTH",
"73 93 OFFCURVE",
"87 108 OFFCURVE",
"87 129 CURVE SMOOTH",
"82 573 LINE SMOOTH",
"82 594 OFFCURVE",
"71 606 OFFCURVE",
"50 610 CURVE SMOOTH",
"31 614 LINE",
"31 703 LINE",
"187 700 LINE",
"346 703 LINE",
"346 614 LINE",
"326 611 LINE SMOOTH",
"305 608 OFFCURVE",
"293 595 OFFCURVE",
"293 574 CURVE SMOOTH",
"289 126 LINE SMOOTH",
"289 105 OFFCURVE",
"301 93 OFFCURVE",
"322 91 CURVE SMOOTH",
"347 89 LINE",
"347 -3 LINE",
"183 0 LINE",
"30 -3 LINE"
);
}
);
width = 377;
}
);
unicode = 0049;
},
{
color = 1;
glyphname = J;
lastChange = "2017-12-09 17:39:21 +0000";
layers = (
{
background = {
components = (
{
name = I;
transform = "{1, 0, 0, 1, -1, 0}";
}
);
};
layerId = "1B5E7594-BD1E-41E1-80E1-0DE241437139";
paths = (
{
closed = 1;
nodes = (
"39 704 LINE",
"152 700 LINE",
"278 704 LINE",
"278 671 LINE",
"226 664 LINE SMOOTH",
"204 661 OFFCURVE",
"191 649 OFFCURVE",
"191 631 CURVE SMOOTH",
"191 65 LINE",
"173 -18 OFFCURVE",
"147 -80 OFFCURVE",
"95 -178 CURVE",
"56 -154 LINE",
"93 -75 OFFCURVE",
"121 8 OFFCURVE",
"121 165 CURVE SMOOTH",
"121 630 LINE SMOOTH",
"121 650 OFFCURVE",
"108 663 OFFCURVE",
"85 666 CURVE SMOOTH",
"39 671 LINE"
);
}
);
width = 311;
},
{
background = {
components = (
{
name = j;
transform = "{1, 0, 0, 1, 30, 0}";
}
);
};
layerId = "5A1ECF60-5C3D-4C60-84B4-C69E600E0422";
paths = (
{
closed = 1;
nodes = (
"30 703 LINE",
"192 700 LINE",
"345 703 LINE",
"345 614 LINE",
"325 611 LINE SMOOTH",
"304 608 OFFCURVE",
"292 595 OFFCURVE",
"292 574 CURVE SMOOTH",
"293 25 LINE",
"253 -64 OFFCURVE",
"198 -133 OFFCURVE",
"131 -185 CURVE",
"32 -137 LINE",
"70 -45 OFFCURVE",
"85 32 OFFCURVE",
"84 170 CURVE SMOOTH",
"82 574 LINE SMOOTH",
"82 595 OFFCURVE",
"70 608 OFFCURVE",
"49 611 CURVE SMOOTH",
"30 614 LINE"
);
}
);
width = 369;
}
);
leftMetricsKey = I;
unicode = 004A;
},
{
color = 1;
glyphname = K;
lastChange = "2018-03-24 11:43:34 +0000";
layers = (
{
background = {
components = (
{
name = H;
}
);
paths = (
{
closed = 1;
nodes = (
"124 102 OFFCURVE",
"121 82 OFFCURVE",
"108 70 CURVE",
"95 58 OFFCURVE",
"76 53 OFFCURVE",
"42 49 CURVE",
"31 0 LINE",
"74 0 LINE SMOOTH",
"86 0 OFFCURVE",
"100 0 OFFCURVE",
"114 1 CURVE",
"128 1 OFFCURVE",
"142 1 OFFCURVE",
"157 1 CURVE SMOOTH",
"162 1 OFFCURVE",
"195 1 OFFCURVE",
"222 -1 CURVE SMOOTH",
"238 -2 OFFCURVE",
"255 -2 OFFCURVE",
"271 -2 CURVE",
"281 48 LINE",
"279 53 LINE",
"269 52 OFFCURVE",
"258 49 OFFCURVE",
"247 49 CURVE SMOOTH",
"242 49 OFFCURVE",
"235 49 OFFCURVE",
"230 49 CURVE SMOOTH",
"191 49 OFFCURVE",
"179 64 OFFCURVE",
"181 124 CURVE SMOOTH",
"195 593 LINE SMOOTH",
"196 635 OFFCURVE",
"211 650 OFFCURVE",
"267 658 CURVE",
"271 707 LINE",
"257 705 OFFCURVE",
"244 703 OFFCURVE",
"231 702 CURVE",
"208 699 OFFCURVE",
"197 698 OFFCURVE",
"174 698 CURVE SMOOTH",
"164 698 OFFCURVE",
"152 698 OFFCURVE",
"138 698 CURVE SMOOTH",
"124 698 OFFCURVE",
"110 698 OFFCURVE",
"98 699 CURVE SMOOTH",
"83 700 OFFCURVE",
"68 700 OFFCURVE",
"53 701 CURVE",
"45 653 LINE",
"47 648 LINE",
"52 648 OFFCURVE",
"56 648 OFFCURVE",
"60 650 CURVE",
"64 650 OFFCURVE",
"68 650 OFFCURVE",
"72 651 CURVE",
"77 651 OFFCURVE",
"81 651 OFFCURVE",
"84 651 CURVE SMOOTH",
"118 651 OFFCURVE",
"125 639 OFFCURVE",
"125 592 CURVE SMOOTH",
"124 132 LINE SMOOTH"
);
},
{
closed = 1;
nodes = (
"385 80 LINE SMOOTH",
"428 20 OFFCURVE",
"472 -14 OFFCURVE",
"508 -14 CURVE SMOOTH",
"513 -14 OFFCURVE",
"537 -11 OFFCURVE",
"558 -7 CURVE SMOOTH",
"570 -5 OFFCURVE",
"584 -3 OFFCURVE",
"599 -1 CURVE",
"605 36 LINE",
"601 41 LINE",
"549 41 OFFCURVE",
"514 66 OFFCURVE",
"461 134 CURVE SMOOTH",
"277 373 LINE",
"453 558 LINE SMOOTH",
"485 592 OFFCURVE",
"508 612 OFFCURVE",
"526 627 CURVE",
"545 640 OFFCURVE",
"560 645 OFFCURVE",
"579 650 CURVE",
"587 694 LINE",
"582 702 LINE",
"571 701 OFFCURVE",
"560 701 OFFCURVE",
"548 700 CURVE",
"528 699 OFFCURVE",
"502 698 OFFCURVE",
"482 698 CURVE SMOOTH",
"461 698 OFFCURVE",
"431 698 OFFCURVE",
"406 701 CURVE",
"392 702 OFFCURVE",
"377 704 OFFCURVE",
"361 705 CURVE",
"354 658 LINE",
"356 654 LINE",
"402 651 OFFCURVE",
"425 640 OFFCURVE",
"425 621 CURVE SMOOTH",
"425 606 OFFCURVE",
"414 587 OFFCURVE",
"391 564 CURVE SMOOTH",
"195 361 LINE",
"194 346 LINE"
);
}
);
};
components = (
{
name = I;
}
);
layerId = "1B5E7594-BD1E-41E1-80E1-0DE241437139";
paths = (
{
closed = 1;
nodes = (
"483 700 LINE",
"586 704 LINE",
"586 672 LINE",
"552 662 LINE SMOOTH",
"529 655 OFFCURVE",
"513 642 OFFCURVE",
"496 621 CURVE SMOOTH",
"172 237 LINE",
"164 291 LINE",
"429 619 LINE SMOOTH",
"447 642 OFFCURVE",
"434 661 OFFCURVE",
"406 666 CURVE SMOOTH",
"370 672 LINE",
"370 704 LINE"
);
},
{
closed = 1;
nodes = (
"296 432 LINE",
"518 67 LINE SMOOTH",
"525 55 OFFCURVE",
"533 51 OFFCURVE",
"545 53 CURVE SMOOTH",
"602 62 LINE",
"606 52 LINE",
"586 0 LINE",
"514 -15 OFFCURVE",
"475 -4 OFFCURVE",
"440 58 CURVE SMOOTH",
"263 370 LINE"
);
}
);
width = 666;
},
{
components = (
{
name = I;
}
);
layerId = "5A1ECF60-5C3D-4C60-84B4-C69E600E0422";
paths = (
{
closed = 1;
nodes = (
"547 700 LINE",
"690 703 LINE",
"690 616 LINE",
"640 604 LINE SMOOTH",
"622 600 OFFCURVE",
"605 586 OFFCURVE",
"592 572 CURVE SMOOTH",
"289 227 LINE",
"271 344 LINE",
"440 559 LINE SMOOTH",
"455 579 OFFCURVE",
"446 605 OFFCURVE",
"421 609 CURVE SMOOTH",
"389 614 LINE",
"389 702 LINE"
);
},
{
closed = 1;
nodes = (
"472 449 LINE",
"632 151 LINE SMOOTH",
"642 132 OFFCURVE",
"656 124 OFFCURVE",
"676 128 CURVE SMOOTH",
"710 135 LINE",
"724 113 LINE",
"679 1 LINE",
"476 -51 OFFCURVE",
"427 48 OFFCURVE",
"398 134 CURVE SMOOTH",
"335 321 LINE"
);
}
);
width = 714;
}
);
leftMetricsKey = I;
unicode = 004B;
},
{
color = 1;
glyphname = L;
lastChange = "2017-12-09 17:39:21 +0000";
layers = (
{
background = {
components = (
{
name = I;
transform = "{1, 0, 0, 1, -1, 0}";
}
);
};
layerId = "1B5E7594-BD1E-41E1-80E1-0DE241437139";
paths = (
{
closed = 1;
nodes = (
"39 26 LINE",
"87 34 LINE SMOOTH",
"111 38 OFFCURVE",
"123 51 OFFCURVE",
"123 75 CURVE SMOOTH",
"123 620 LINE SMOOTH",
"123 644 OFFCURVE",
"110 662 OFFCURVE",
"86 665 CURVE SMOOTH",
"40 671 LINE",
"40 704 LINE",
"153 700 LINE",
"279 704 LINE",
"279 671 LINE",
"226 663 LINE SMOOTH",
"202 659 OFFCURVE",
"190 645 OFFCURVE",
"190 621 CURVE SMOOTH",
"190 84 LINE SMOOTH",
"190 60 OFFCURVE",
"203 41 OFFCURVE",
"227 42 CURVE SMOOTH",
"365 46 LINE SMOOTH",
"417 48 OFFCURVE",
"433 54 OFFCURVE",
"449 133 CURVE",
"493 133 LINE",
"475 -2 LINE",
"156 0 LINE",
"39 -3 LINE"
);
}
);
width = 535;
},
{
layerId = "5A1ECF60-5C3D-4C60-84B4-C69E600E0422";
paths = (
{
closed = 1;
nodes = (
"30 89 LINE",
"52 91 LINE SMOOTH",
"73 93 OFFCURVE",
"87 108 OFFCURVE",
"87 129 CURVE",
"82 573 LINE",
"82 594 OFFCURVE",
"71 606 OFFCURVE",
"50 610 CURVE SMOOTH",
"31 614 LINE",
"31 703 LINE",
"187 700 LINE",
"346 703 LINE",
"346 614 LINE",
"326 611 LINE SMOOTH",
"305 608 OFFCURVE",
"293 595 OFFCURVE",
"293 574 CURVE SMOOTH",
"289 126 LINE SMOOTH",
"289 120.403 OFFCURVE",
"289.852 115.446 OFFCURVE",
"291.5 111.146 CURVE",
"382 112 LINE SMOOTH",
"440 113 OFFCURVE",
"452 134 OFFCURVE",
"463 205 CURVE",
"561 205 LINE",
"537 -6 LINE",
"177.089 -0.116 LINE",
"30 -3 LINE"
);
}
);
width = 561;
}
);
leftMetricsKey = I;
unicode = 004C;
},
{
glyphname = M;
lastChange = "2018-03-24 11:48:35 +0000";
layers = (
{
background = {
components = (
{
name = H;
transform = "{1, 0, 0, 1, 137, 0}";
}
);
};
layerId = "1B5E7594-BD1E-41E1-80E1-0DE241437139";
paths = (
{
closed = 1;
nodes = (
"166 0 LINE",
"272 -4 LINE",
"272 26 LINE",
"212 38 LINE SMOOTH",
"189 43 OFFCURVE",
"177 57 OFFCURVE",
"177 82 CURVE SMOOTH",
"173 621 LINE",
"397 -9 LINE",
"450 16 LINE",
"669 619 LINE",
"667 79 LINE SMOOTH",
"667 55 OFFCURVE",
"654 38 OFFCURVE",
"631 35 CURVE SMOOTH",
"566 26 LINE",
"566 -4 LINE",
"680 0 LINE",
"823 -4 LINE",
"823 28 LINE",
"765 35 LINE SMOOTH",
"743 38 OFFCURVE",
"733 59 OFFCURVE",
"733 83 CURVE SMOOTH",
"732 620 LINE SMOOTH",
"732 643 OFFCURVE",
"738 657 OFFCURVE",
"761 661 CURVE SMOOTH",
"815 671 LINE",
"815 704 LINE",
"723 700 LINE",
"643 702 LINE",
"430 99 LINE",
"216 702 LINE",
"142 700 LINE",
"42 704 LINE",
"42 669 LINE",
"87 663 LINE SMOOTH",
"111 660 OFFCURVE",
"123 644 OFFCURVE",
"123 620 CURVE SMOOTH",
"124 83 LINE SMOOTH",
"124 60 OFFCURVE",
"114 35 OFFCURVE",
"92 33 CURVE SMOOTH",
"39 28 LINE",
"39 -4 LINE"
);
}
);
width = 844;
},
{
background = {
components = (
{
name = I;
transform = "{1, 0, 0, 1, 491, 0}";
}
);
};
layerId = "5A1ECF60-5C3D-4C60-84B4-C69E600E0422";
paths = (
{
closed = 1;
nodes = (
"150 0 LINE",
"285 -3 LINE",
"285 86 LINE",
"235 95 LINE SMOOTH",
"214 99 OFFCURVE",
"203 110 OFFCURVE",
"203 132 CURVE SMOOTH",
"200 418 LINE",
"355 -5 LINE",
"441 10 LINE",
"573 399 LINE",
"573 127 LINE SMOOTH",
"573 106 OFFCURVE",
"561 93 OFFCURVE",
"540 90 CURVE SMOOTH",
"512 86 LINE",
"512 -4 LINE",
"674 0 LINE",
"842 -3 LINE",
"842 86 LINE",
"809 91 LINE SMOOTH",
"788 94 OFFCURVE",
"777 107 OFFCURVE",
"777 128 CURVE SMOOTH",
"777 573 LINE SMOOTH",
"777 594 OFFCURVE",
"788 607 OFFCURVE",
"809 610 CURVE SMOOTH",
"837 614 LINE",
"837 703 LINE",
"696 700 LINE",
"569 703 LINE",
"448 342 LINE",
"323 704 LINE",
"178 700 LINE",
"32 703 LINE",
"32 614 LINE",
"64 608 LINE SMOOTH",
"85 604 OFFCURVE",
"96 592 OFFCURVE",
"96 571 CURVE SMOOTH",
"96 128 LINE SMOOTH",
"96 107 OFFCURVE",
"85 94 OFFCURVE",
"64 91 CURVE SMOOTH",
"30 86 LINE",
"30 -3 LINE"
);
}
);
width = 872;
}
);
leftMetricsKey = I;
rightMetricsKey = I;
unicode = 004D;
},
{
color = 1;
glyphname = N;
lastChange = "2018-03-24 11:43:55 +0000";
layers = (
{
background = {
components = (
{
name = H;
transform = "{1, 0, 0, 1, 2, 0}";
}
);
};
layerId = "1B5E7594-BD1E-41E1-80E1-0DE241437139";
paths = (
{
closed = 1;
nodes = (
"150 0 LINE",
"273 -4 LINE",
"273 30 LINE",
"213 41 LINE SMOOTH",
"190 45 OFFCURVE",
"178 58 OFFCURVE",
"178 87 CURVE SMOOTH",
"175 639 LINE",
"563 -21 LINE",
"601 -10 LINE",
"601 615 LINE SMOOTH",
"601 638 OFFCURVE",
"612 659 OFFCURVE",
"635 662 CURVE SMOOTH",
"686 669 LINE",
"686 704 LINE",
"573 700 LINE",
"453 701 LINE",
"453 666 LINE",
"506 661 LINE SMOOTH",
"535 658 OFFCURVE",
"549 646 OFFCURVE",
"549 615 CURVE SMOOTH",
"554 130 LINE",
"216 704 LINE",
"139 700 LINE",
"46 704 LINE",
"46 668 LINE",
"91 662 LINE SMOOTH",
"115 659 OFFCURVE",
"125 642 OFFCURVE",
"125 618 CURVE SMOOTH",
"125 88 LINE SMOOTH",
"125 63 OFFCURVE",
"115 44 OFFCURVE",
"92 40 CURVE SMOOTH",
"39 30 LINE",
"39 -4 LINE"
);
}
);
width = 708;
},
{
background = {
components = (
{
name = H;
transform = "{1, 0, 0, 1, -9, 0}";
}
);
};
layerId = "5A1ECF60-5C3D-4C60-84B4-C69E600E0422";
paths = (
{
closed = 1;
nodes = (
"158.996 0 LINE",
"303 -3 LINE",
"303 89 LINE",
"257 95 LINE SMOOTH",
"216 100 OFFCURVE",
"206 108 OFFCURVE",
"206 144 CURVE SMOOTH",
"203 453 LINE",
"420 -14 LINE",
"633 7 LINE",
"633 565 LINE SMOOTH",
"633 586 OFFCURVE",
"643 599 OFFCURVE",
"663 604 CURVE SMOOTH",
"702 614 LINE",
"702 703 LINE",
"578 700 LINE",
"429 703 LINE",
"429 614 LINE",
"485 604 LINE SMOOTH",
"509 599 OFFCURVE",
"525 576 OFFCURVE",
"525 557 CURVE SMOOTH",
"526 218 LINE",
"311 703 LINE",
"180 700 LINE",
"30 703 LINE",
"30 614 LINE",
"68 607 LINE SMOOTH",
"89 603 OFFCURVE",
"99 590 OFFCURVE",
"99 569 CURVE SMOOTH",
"99 135 LINE SMOOTH",
"99 115 OFFCURVE",
"85 98 OFFCURVE",
"64 94 CURVE SMOOTH",
"30 88 LINE",
"30 -3 LINE"
);
}
);
width = 699;
}
);
leftMetricsKey = I;
unicode = 004E;
},
{
color = 1;
glyphname = O;
lastChange = "2017-12-09 17:38:10 +0000";
layers = (
{
layerId = "1B5E7594-BD1E-41E1-80E1-0DE241437139";
paths = (
{
closed = 1;
nodes = (
"558 -17 OFFCURVE",
"673 121 OFFCURVE",
"672 354 CURVE SMOOTH",
"671 591 OFFCURVE",
"553 718 OFFCURVE",
"369 718 CURVE SMOOTH",
"178 718 OFFCURVE",
"65 576 OFFCURVE",
"65 354 CURVE SMOOTH",
"65 111 OFFCURVE",
"177 -16 OFFCURVE",
"368 -17 CURVE SMOOTH"
);
},
{
closed = 1;
nodes = (
"225 31 OFFCURVE",
"141 166 OFFCURVE",
"141 357 CURVE SMOOTH",
"141 537 OFFCURVE",
"227 670 OFFCURVE",
"369 670 CURVE SMOOTH",
"513 670 OFFCURVE",
"600 550 OFFCURVE",
"600 357 CURVE SMOOTH",
"600 164 OFFCURVE",
"512 31 OFFCURVE",
"368 31 CURVE SMOOTH"
);
}
);
width = 737;
},
{
layerId = "5A1ECF60-5C3D-4C60-84B4-C69E600E0422";
paths = (
{
closed = 1;
nodes = (
"596 -28 OFFCURVE",
"696 98 OFFCURVE",
"699 346 CURVE SMOOTH",
"702 591 OFFCURVE",
"596 728 OFFCURVE",
"359 726 CURVE SMOOTH",
"131 724 OFFCURVE",
"20 591 OFFCURVE",
"20 346 CURVE SMOOTH",
"20 98 OFFCURVE",
"131 -28 OFFCURVE",
"359 -28 CURVE SMOOTH"
);
},
{
closed = 1;
nodes = (
"307 78 OFFCURVE",
"258 123 OFFCURVE",
"258 352 CURVE SMOOTH",
"258 572 OFFCURVE",
"307 617 OFFCURVE",
"359 617 CURVE SMOOTH",
"413 617 OFFCURVE",
"469 572 OFFCURVE",
"469 352 CURVE SMOOTH",
"469 123 OFFCURVE",
"413 78 OFFCURVE",
"359 78 CURVE SMOOTH"
);
}
);
width = 719;
}
);
unicode = 004F;
},
{
color = 1;
glyphname = P;
lastChange = "2017-12-09 17:38:10 +0000";
layers = (
{
components = (
{
name = I;
}
);
layerId = "1B5E7594-BD1E-41E1-80E1-0DE241437139";
paths = (
{
closed = 1;
nodes = (
"385 716 OFFCURVE",
"527 691 OFFCURVE",
"527 509 CURVE SMOOTH",
"527 356 OFFCURVE",
"405 261 OFFCURVE",
"148 302 CURVE",
"166 344 LINE",
"381 323 OFFCURVE",
"453 375 OFFCURVE",
"453 509 CURVE SMOOTH",
"453 611 OFFCURVE",
"394 672 OFFCURVE",
"162 650 CURVE",
"164 700 LINE"
);
}
);
width = 577;
},
{
components = (
{
name = I;
}
);
layerId = "5A1ECF60-5C3D-4C60-84B4-C69E600E0422";
paths = (
{
closed = 1;
nodes = (
"511 712 OFFCURVE",
"645 700 OFFCURVE",
"645 500 CURVE SMOOTH",
"645 288 OFFCURVE",
"463 217 OFFCURVE",
"228 273 CURVE",
"226 382 LINE",
"385 338 OFFCURVE",
"413 402 OFFCURVE",
"413 490 CURVE SMOOTH",
"413 581 OFFCURVE",
"370 596 OFFCURVE",
"281 589 CURVE",
"264 700 LINE"
);
}
);
width = 645;
}
);
leftMetricsKey = I;
unicode = 0050;
},
{
color = 1;
glyphname = Q;
lastChange = "2017-12-09 17:38:10 +0000";
layers = (
{
components = (
{
name = O;
}
);
layerId = "1B5E7594-BD1E-41E1-80E1-0DE241437139";
paths = (
{
closed = 1;
nodes = (
"464 -130 OFFCURVE",
"338 -96 OFFCURVE",
"220 4 CURVE SMOOTH",
"124 86 LINE",
"238 -126 OFFCURVE",
"428 -220 OFFCURVE",
"589 -171 CURVE",
"632 -123 LINE",
"623 -100 LINE"
);
}
);
width = 700;
},
{
associatedMasterId = "5A1ECF60-5C3D-4C60-84B4-C69E600E0422";
components = (
{
name = O;
}
);
layerId = "30201244-EAB5-4B4D-BFDE-DE8E7A0844E1";
name = "Sep 25 17, 14:14";
paths = (
{
closed = 1;
nodes = (
"226 -16 OFFCURVE",
"104 -59 OFFCURVE",
"76 -74 CURVE",
"66 -172 LINE",
"88 -194 LINE",
"173 -181 OFFCURVE",
"244 -177 OFFCURVE",
"320 -177 CURVE SMOOTH",
"416 -177 OFFCURVE",
"503 -189 OFFCURVE",
"551 -205 CURVE",
"651 -108 LINE",
"633 -54 LINE",
"244 -88 LINE",
"523 0 LINE",
"347 15 LINE"
);
}
);
width = 719;
},
{
components = (
{
name = O;
}
);
layerId = "5A1ECF60-5C3D-4C60-84B4-C69E600E0422";
paths = (
{
closed = 1;
nodes = (
"545 -59 OFFCURVE",
"434 -71 OFFCURVE",
"340 -22 CURVE SMOOTH",
"124 91 LINE",
"238 -121 OFFCURVE",
"426 -240 OFFCURVE",
"587 -191 CURVE",
"681 -78 LINE",
"671 -44 LINE"
);
}
);
width = 719;
}
);
leftMetricsKey = O;
unicode = 0051;
},
{
color = 1;
glyphname = R;
lastChange = "2018-03-24 12:06:37 +0000";
layers = (
{
background = {
components = (
{
name = K;
}
);
};
components = (
{
name = I;
}
);
layerId = "1B5E7594-BD1E-41E1-80E1-0DE241437139";
paths = (
{
closed = 1;
nodes = (
"385 716 OFFCURVE",
"527 698 OFFCURVE",
"527 516 CURVE SMOOTH",
"527 354 OFFCURVE",
"385 295 OFFCURVE",
"166 309 CURVE",
"166 355 LINE",
"371 338 OFFCURVE",
"453 400 OFFCURVE",
"453 513 CURVE SMOOTH",
"453 615 OFFCURVE",
"394 671 OFFCURVE",
"162 649 CURVE",
"164 700 LINE"
);
},
{
closed = 1;
nodes = (
"324 340 LINE",
"494 70 LINE SMOOTH",
"505 52 OFFCURVE",
"513 50 OFFCURVE",
"527 53 CURVE SMOOTH",
"583 63 LINE",
"588 52 LINE",
"568 0 LINE",
"482 -17 OFFCURVE",
"450 7 OFFCURVE",
"418 64 CURVE SMOOTH",
"268 333 LINE"
);
}
);
width = 626;
},
{
background = {
components = (
{
name = K;
transform = "{1, 0, 0, 1, -10, 0}";
}
);
};
components = (
{
name = I;
}
);
layerId = "5A1ECF60-5C3D-4C60-84B4-C69E600E0422";
paths = (
{
closed = 1;
nodes = (
"511 712 OFFCURVE",
"645 700 OFFCURVE",
"645 500 CURVE SMOOTH",
"645 298 OFFCURVE",
"393 267 OFFCURVE",
"228 293 CURVE",
"226 394 LINE",
"385 380 OFFCURVE",
"413 414 OFFCURVE",
"413 492 CURVE SMOOTH",
"413 583 OFFCURVE",
"370 598 OFFCURVE",
"281 591 CURVE",
"264 700 LINE"
);
},
{
closed = 1;
nodes = (
"508 334 LINE",
"612 149 LINE SMOOTH",
"621 132 OFFCURVE",
"633 124 OFFCURVE",
"652 128 CURVE SMOOTH",
"690 135 LINE",
"704 113 LINE",
"658 0 LINE",
"452 -50 OFFCURVE",
"407 45 OFFCURVE",
"383 135 CURVE SMOOTH",
"330 332 LINE"
);
}
);
width = 705;
},
{
associatedMasterId = "1B5E7594-BD1E-41E1-80E1-0DE241437139";
background = {
components = (
{
name = K;
}
);
};
components = (
{
name = I;
}
);
layerId = "233930DF-364A-417E-A938-157FEC7E35CC";
name = "Mar 24 18, 12:00";
paths = (
{
closed = 1;
nodes = (
"385 716 OFFCURVE",
"527 698 OFFCURVE",
"527 516 CURVE SMOOTH",
"527 354 OFFCURVE",
"385 295 OFFCURVE",
"166 309 CURVE",
"166 355 LINE",
"371 338 OFFCURVE",
"453 400 OFFCURVE",
"453 513 CURVE SMOOTH",
"453 615 OFFCURVE",
"394 671 OFFCURVE",
"162 649 CURVE",
"164 700 LINE"
);
},
{
closed = 1;
nodes = (
"348 355 LINE",
"501 67 LINE SMOOTH",
"507 55 OFFCURVE",
"517 51 OFFCURVE",
"529 53 CURVE SMOOTH",
"584 62 LINE",
"588 52 LINE",
"568 0 LINE",
"492 -15 OFFCURVE",
"445 1 OFFCURVE",
"418 64 CURVE SMOOTH",
"297 343 LINE"
);
}
);
width = 626;
}
);
leftMetricsKey = I;
unicode = 0052;
},
{
color = 1;
glyphname = S;
lastChange = "2017-12-09 17:38:10 +0000";
layers = (
{
background = {
components = (
{
name = C;
transform = "{1, 0, 0, 1, -24, -14}";
}
);
};
layerId = "1B5E7594-BD1E-41E1-80E1-0DE241437139";
paths = (
{
closed = 1;
nodes = (
"72 642 OFFCURVE",
"155 712 OFFCURVE",
"335 712 CURVE SMOOTH",
"379 712 OFFCURVE",
"438 708 OFFCURVE",
"498 686 CURVE",
"505 673 LINE",
"493 633 OFFCURVE",
"481 593 OFFCURVE",
"469 553 CURVE",
"425 553 LINE",
"439 643 OFFCURVE",
"435 666 OFFCURVE",
"337 666 CURVE SMOOTH",
"193 666 OFFCURVE",
"137 616 OFFCURVE",
"137 525 CURVE SMOOTH",
"137 449 OFFCURVE",
"188 422 OFFCURVE",
"307 387 CURVE SMOOTH",
"411 356 OFFCURVE",
"525 321 OFFCURVE",
"525 180 CURVE SMOOTH",
"525 40 OFFCURVE",
"413 -16 OFFCURVE",
"256 -15 CURVE SMOOTH",
"179 -14 OFFCURVE",
"118 0 OFFCURVE",
"61 35 CURVE",
"57 49 LINE",
"69 87 OFFCURVE",
"82 125 OFFCURVE",
"94 163 CURVE",
"135 163 LINE",
"118 71 OFFCURVE",
"123 41 OFFCURVE",
"252 35 CURVE SMOOTH",
"397 28 OFFCURVE",
"461 80 OFFCURVE",
"461 165 CURVE SMOOTH",
"461 251 OFFCURVE",
"379 285 OFFCURVE",
"277 317 CURVE SMOOTH",
"170 351 OFFCURVE",
"72 388 OFFCURVE",
"72 521 CURVE SMOOTH"
);
}
);
width = 582;
},
{
background = {
components = (
{
name = C;
transform = "{1, 0, 0, 1, -11, 0}";
}
);
};
layerId = "5A1ECF60-5C3D-4C60-84B4-C69E600E0422";
paths = (
{
closed = 1;
nodes = (
"67 653 OFFCURVE",
"203 720 OFFCURVE",
"381 720 CURVE SMOOTH",
"439 720 OFFCURVE",
"513 716 OFFCURVE",
"588 697 CURVE",
"599 662 LINE",
"584 603 OFFCURVE",
"572 545 OFFCURVE",
"565 486 CURVE",
"448 486 LINE",
"457 533 OFFCURVE",
"463 591 OFFCURVE",
"393 601 CURVE SMOOTH",
"344 608 OFFCURVE",
"263 600 OFFCURVE",
"263 527 CURVE SMOOTH",
"263 473 OFFCURVE",
"335 457 OFFCURVE",
"414 434 CURVE SMOOTH",
"515 405 OFFCURVE",
"629 365 OFFCURVE",
"628 223 CURVE SMOOTH",
"627 60 OFFCURVE",
"542 -24 OFFCURVE",
"302.741 -22.322 CURVE SMOOTH",
"236 -22 OFFCURVE",
"149 -15 OFFCURVE",
"69 14 CURVE",
"53 42 LINE",
"75 102 OFFCURVE",
"92 161 OFFCURVE",
"102 217 CURVE",
"220 217 LINE",
"198 113 OFFCURVE",
"226 81 OFFCURVE",
"271 75 CURVE SMOOTH",
"332 67 OFFCURVE",
"424 74 OFFCURVE",
"426 155 CURVE SMOOTH",
"428 227 OFFCURVE",
"334 239 OFFCURVE",
"238 273 CURVE SMOOTH",
"150 304 OFFCURVE",
"66 352 OFFCURVE",
"66 480 CURVE SMOOTH"
);
}
);
width = 698;
}
);
unicode = 0053;
},
{
color = 1;
glyphname = T;
lastChange = "2017-12-09 17:38:10 +0000";
layers = (
{
layerId = "1B5E7594-BD1E-41E1-80E1-0DE241437139";
paths = (
{
closed = 1;
nodes = (
"44 704 LINE",
"293 700 LINE",
"542 704 LINE",
"546 688 LINE",
"538 649 OFFCURVE",
"532 608 OFFCURVE",
"526 567 CURVE",
"484 567 LINE",
"489 639 OFFCURVE",
"479 653 OFFCURVE",
"430 654 CURVE SMOOTH",
"327 656 LINE",
"323 643 OFFCURVE",
"324 626 OFFCURVE",
"324 611 CURVE SMOOTH",
"324 77 LINE SMOOTH",
"324 53 OFFCURVE",
"337 41 OFFCURVE",
"361 37 CURVE SMOOTH",
"415 28 LINE",
"415 -3 LINE",
"292 0 LINE",
"173 -3 LINE",
"173 28 LINE",
"221 36 LINE SMOOTH",
"245 40 OFFCURVE",
"257 53 OFFCURVE",
"257 77 CURVE SMOOTH",
"257 610 LINE SMOOTH",
"257 624 OFFCURVE",
"257 641 OFFCURVE",
"254 654 CURVE",
"146 652 LINE SMOOTH",
"106 651 OFFCURVE",
"97 640 OFFCURVE",
"97 567 CURVE",
"60 567 LINE",
"56 606 OFFCURVE",
"49 647 OFFCURVE",
"40 688 CURVE"
);
}
);
width = 586;
},
{
layerId = "5A1ECF60-5C3D-4C60-84B4-C69E600E0422";
paths = (
{
closed = 1;
nodes = (
"16 704 LINE",
"317 702 LINE",
"618 704 LINE",
"644 682 LINE",
"634 623 OFFCURVE",
"626 561 OFFCURVE",
"618 496 CURVE",
"528 496 LINE",
"530 557 OFFCURVE",
"519 594 OFFCURVE",
"482 595 CURVE SMOOTH",
"422 597 LINE",
"421 583 OFFCURVE",
"421 573 OFFCURVE",
"421 554 CURVE SMOOTH",
"417 126 LINE SMOOTH",
"417 108 OFFCURVE",
"426 94 OFFCURVE",
"442 92 CURVE SMOOTH",
"512 85 LINE",
"512 -4 LINE",
"317 0 LINE",
"126 -4 LINE",
"126 85 LINE",
"184 92 LINE SMOOTH",
"203 94 OFFCURVE",
"215 109 OFFCURVE",
"215 129 CURVE",
"210 553 LINE SMOOTH",
"210 571 OFFCURVE",
"209 583 OFFCURVE",
"209 594 CURVE",
"145 590 LINE SMOOTH",
"114 588 OFFCURVE",
"101 557 OFFCURVE",
"102 496 CURVE",
"16 496 LINE",
"11 558 OFFCURVE",
"3 620 OFFCURVE",
"-10 682 CURVE"
);
}
);
width = 634;
}
);
unicode = 0054;
},
{
color = 1;
glyphname = U;
lastChange = "2018-03-24 11:44:43 +0000";
layers = (
{
background = {
components = (
{
name = H;
transform = "{1, 0, 0, 1, -17, 0}";
}
);
};
guideLines = (
{
position = "{259, 664}";
}
);
layerId = "1B5E7594-BD1E-41E1-80E1-0DE241437139";
paths = (
{
closed = 1;
nodes = (
"40 704 LINE",
"141 700 LINE",
"258 704 LINE",
"258 671 LINE",
"213 666 LINE SMOOTH",
"189 663 OFFCURVE",
"175 644 OFFCURVE",
"175 620 CURVE SMOOTH",
"173 285 LINE SMOOTH",
"172 115 OFFCURVE",
"218 49 OFFCURVE",
"350 49 CURVE SMOOTH",
"454 49 OFFCURVE",
"527 108 OFFCURVE",
"527 254 CURVE SMOOTH",
"527 611 LINE SMOOTH",
"527 648 OFFCURVE",
"513 661 OFFCURVE",
"478 665 CURVE SMOOTH",
"431 671 LINE",
"431 704 LINE",
"550 700 LINE",
"657 704 LINE",
"657 671 LINE",
"623 667 LINE SMOOTH",
"590 663 OFFCURVE",
"580 649 OFFCURVE",
"580 612 CURVE SMOOTH",
"580 245 LINE SMOOTH",
"580 75 OFFCURVE",
"507 -15 OFFCURVE",
"330 -15 CURVE SMOOTH",
"177 -15 OFFCURVE",
"103 66 OFFCURVE",
"103 248 CURVE SMOOTH",
"104 622 LINE SMOOTH",
"104 647 OFFCURVE",
"96 664 OFFCURVE",
"72 667 CURVE SMOOTH",
"40 671 LINE"
);
}
);
width = 690;
},
{
background = {
components = (
{
name = G;
transform = "{1, 0, 0, 1, -31, 0}";
}
);
};
layerId = "5A1ECF60-5C3D-4C60-84B4-C69E600E0422";
paths = (
{
closed = 1;
nodes = (
"-2 704 LINE",
"159 700 LINE",
"331 704 LINE",
"331 614 LINE",
"297 607 LINE SMOOTH",
"269 601 OFFCURVE",
"262 583 OFFCURVE",
"262 547 CURVE SMOOTH",
"260 267 LINE SMOOTH",
"259 180 OFFCURVE",
"302 146 OFFCURVE",
"374 146 CURVE SMOOTH",
"437 146 OFFCURVE",
"482 193 OFFCURVE",
"482 274 CURVE SMOOTH",
"482 551 LINE SMOOTH",
"482 585 OFFCURVE",
"464 607 OFFCURVE",
"428 610 CURVE SMOOTH",
"386 614 LINE",
"386 704 LINE",
"535 700 LINE",
"687 704 LINE",
"687 614 LINE",
"650 609 LINE SMOOTH",
"623 605 OFFCURVE",
"610 586 OFFCURVE",
"610 557 CURVE SMOOTH",
"610 285 LINE SMOOTH",
"610 117 OFFCURVE",
"548 -17 OFFCURVE",
"333 -17 CURVE SMOOTH",
"134 -17 OFFCURVE",
"49 71 OFFCURVE",
"50 278 CURVE SMOOTH",
"51 570 LINE SMOOTH",
"51 591 OFFCURVE",
"41 604 OFFCURVE",
"21 607 CURVE SMOOTH",
"-2 611 LINE"
);
}
);
width = 687;
}
);
unicode = 0055;
},
{
color = 1;
glyphname = V;
lastChange = "2017-12-09 17:38:10 +0000";
layers = (
{
background = {
components = (
{
name = I;
transform = "{1, 0, 0, 1, -7, 0}";
}
);
};
layerId = "1B5E7594-BD1E-41E1-80E1-0DE241437139";
paths = (
{
closed = 1;
nodes = (
"79 667 LINE SMOOTH",
"104 664 OFFCURVE",
"116 650 OFFCURVE",
"124 623 CURVE SMOOTH",
"312 -10 LINE",
"334 -2 OFFCURVE",
"357 7 OFFCURVE",
"379 15 CURVE",
"566 615 LINE SMOOTH",
"572 636 OFFCURVE",
"583 658 OFFCURVE",
"605 661 CURVE SMOOTH",
"655 668 LINE",
"655 704 LINE",
"533 700 LINE",
"402 704 LINE",
"402 668 LINE",
"459 661 LINE SMOOTH",
"497 656 OFFCURVE",
"504 628 OFFCURVE",
"497 602 CURVE SMOOTH",
"351 83 LINE",
"208 611 LINE SMOOTH",
"201 637 OFFCURVE",
"207 664 OFFCURVE",
"236 667 CURVE SMOOTH",
"282 672 LINE",
"282 704 LINE",
"158 700 LINE",
"33 704 LINE",
"33 672 LINE"
);
}
);
width = 688;
},
{
background = {
components = (
{
name = W;
transform = "{1, 0, 0, 1, 3, 0}";
}
);
};
layerId = "5A1ECF60-5C3D-4C60-84B4-C69E600E0422";
paths = (
{
closed = 1;
nodes = (
"36 608 LINE SMOOTH",
"55 604 OFFCURVE",
"66 594 OFFCURVE",
"71 574 CURVE SMOOTH",
"219 -10 LINE",
"289 -2 OFFCURVE",
"359 5 OFFCURVE",
"429 6 CURVE",
"588 568 LINE SMOOTH",
"593 587 OFFCURVE",
"608 602 OFFCURVE",
"636 608 CURVE SMOOTH",
"670 615 LINE",
"670 704 LINE",
"530 700 LINE",
"397 704 LINE",
"397 615 LINE",
"431 608 LINE SMOOTH",
"453 603 OFFCURVE",
"463 582 OFFCURVE",
"458 561 CURVE SMOOTH",
"367 167 LINE",
"280 565 LINE SMOOTH",
"275 588 OFFCURVE",
"285 602 OFFCURVE",
"307 607 CURVE SMOOTH",
"343 615 LINE",
"343 704 LINE",
"165 700 LINE",
"0 704 LINE",
"0 615 LINE"
);
}
);
width = 670;
}
);
unicode = 0056;
},
{
color = 1;
glyphname = W;
lastChange = "2017-12-09 17:38:10 +0000";
layers = (
{
background = {
components = (
{
name = I;
transform = "{1, 0, 0, 1, 662, 0}";
}
);
};
layerId = "1B5E7594-BD1E-41E1-80E1-0DE241437139";
paths = (
{
closed = 1;
nodes = (
"80 665 LINE SMOOTH",
"103 662 OFFCURVE",
"115 646 OFFCURVE",
"121 623 CURVE SMOOTH",
"282 -10 LINE",
"304 -2 OFFCURVE",
"327 7 OFFCURVE",
"349 15 CURVE",
"498 447 LINE",
"632 -10 LINE",
"654 -2 OFFCURVE",
"677 7 OFFCURVE",
"699 15 CURVE",
"859 615 LINE SMOOTH",
"865 639 OFFCURVE",
"876 657 OFFCURVE",
"903 663 CURVE SMOOTH",
"945 672 LINE",
"945 704 LINE",
"835 700 LINE",
"692 704 LINE",
"692 672 LINE",
"748 664 LINE SMOOTH",
"785 659 OFFCURVE",
"799 632 OFFCURVE",
"792 602 CURVE SMOOTH",
"671 83 LINE",
"495 706 LINE",
"437 689 LINE",
"431 678 LINE",
"472 533 LINE",
"321 83 LINE",
"204 611 LINE SMOOTH",
"198 637 OFFCURVE",
"212 660 OFFCURVE",
"238 664 CURVE SMOOTH",
"292 672 LINE",
"292 704 LINE",
"155 700 LINE",
"33 704 LINE",
"33 672 LINE"
);
}
);
width = 978;
},
{
background = {
components = (
{
name = V;
transform = "{1, 0, 0, 1, 384, 0}";
},
{
name = V;
transform = "{1, 0, 0, 1, -3, 0}";
}
);
};
guideLines = (
{
position = "{913, 168}";
}
);
layerId = "5A1ECF60-5C3D-4C60-84B4-C69E600E0422";
paths = (
{
closed = 1;
nodes = (
"33 606 LINE SMOOTH",
"52 602 OFFCURVE",
"63 593 OFFCURVE",
"68 573 CURVE SMOOTH",
"217 -10 LINE",
"287 -1 OFFCURVE",
"357 6 OFFCURVE",
"427 6 CURVE",
"493 261 LINE",
"564 -10 LINE",
"634 -3 OFFCURVE",
"704 4 OFFCURVE",
"774 6 CURVE",
"935 568 LINE SMOOTH",
"940 587 OFFCURVE",
"951 597 OFFCURVE",
"969 602 CURVE SMOOTH",
"1017 615 LINE",
"1017 704 LINE",
"874 701 LINE",
"724 704 LINE",
"724 615 LINE",
"778 602 LINE SMOOTH",
"800 596 OFFCURVE",
"809 581 OFFCURVE",
"804 559 CURVE SMOOTH",
"714 179 LINE",
"603 702 LINE",
"399 687 LINE",
"381 663 LINE",
"436 459 LINE",
"364 179 LINE",
"274 565 LINE SMOOTH",
"269 588 OFFCURVE",
"279 603 OFFCURVE",
"301 607 CURVE SMOOTH",
"338 614 LINE",
"338 703 LINE",
"153 700 LINE",
"-6 703 LINE",
"-6 614 LINE"
);
}
);
width = 1017;
}
);
unicode = 0057;
},
{
color = 1;
glyphname = X;
lastChange = "2017-12-09 17:38:10 +0000";
layers = (
{
background = {
components = (
{
name = I;
transform = "{1, 0, 0, 1, 16, 0}";
}
);
};
layerId = "1B5E7594-BD1E-41E1-80E1-0DE241437139";
paths = (
{
closed = 1;
nodes = (
"388 331 LINE",
"578 622 LINE SMOOTH",
"596 650 OFFCURVE",
"610 660 OFFCURVE",
"633 664 CURVE SMOOTH",
"672 671 LINE",
"672 704 LINE",
"558 700 LINE",
"439 704 LINE",
"439 674 LINE",
"484 668 LINE SMOOTH",
"519 663 OFFCURVE",
"533 650 OFFCURVE",
"505 604 CURVE SMOOTH",
"360 360 LINE"
);
},
{
closed = 1;
nodes = (
"95 662 LINE SMOOTH",
"123 660 OFFCURVE",
"139 651 OFFCURVE",
"152 629 CURVE SMOOTH",
"324 350 LINE",
"342 330 LINE",
"482 81 LINE SMOOTH",
"496 56 OFFCURVE",
"487 35 OFFCURVE",
"458 30 CURVE SMOOTH",
"434 26 LINE",
"434 -4 LINE",
"551 0 LINE",
"677 -4 LINE",
"677 30 LINE",
"617 35 LINE SMOOTH",
"597 37 OFFCURVE",
"584 48 OFFCURVE",
"573 66 CURVE SMOOTH",
"397 360 LINE",
"384 376 LINE",
"249 611 LINE SMOOTH",
"230 643 OFFCURVE",
"230 659 OFFCURVE",
"267 666 CURVE SMOOTH",
"306 673 LINE",
"306 704 LINE",
"173 700 LINE",
"58 704 LINE",
"58 665 LINE"
);
},
{
closed = 1;
nodes = (
"339 379 LINE",
"151 78 LINE SMOOTH",
"136 55 OFFCURVE",
"120 43 OFFCURVE",
"105 40 CURVE SMOOTH",
"38 27 LINE",
"38 -4 LINE",
"155 0 LINE",
"288 -4 LINE",
"288 28 LINE",
"239 38 LINE SMOOTH",
"211 44 OFFCURVE",
"208 65 OFFCURVE",
"222 90 CURVE SMOOTH",
"367 350 LINE"
);
}
);
width = 716;
},
{
layerId = "5A1ECF60-5C3D-4C60-84B4-C69E600E0422";
paths = (
{
closed = 1;
nodes = (
"466 288 LINE",
"676 566 LINE SMOOTH",
"686 580 OFFCURVE",
"705 594 OFFCURVE",
"723 598 CURVE SMOOTH",
"764 607 LINE",
"764 704 LINE",
"613 700 LINE",
"471 704 LINE",
"471 615 LINE",
"497 609 LINE SMOOTH",
"521 603 OFFCURVE",
"531 581 OFFCURVE",
"518 560 CURVE SMOOTH",
"371 327 LINE"
);
},
{
closed = 1;
nodes = (
"73 606 LINE SMOOTH",
"103 602 OFFCURVE",
"124 582 OFFCURVE",
"139 560 CURVE SMOOTH",
"322 287 LINE",
"353 276 LINE",
"441 137 LINE SMOOTH",
"454 116 OFFCURVE",
"447 97 OFFCURVE",
"423 91 CURVE SMOOTH",
"397 85 LINE",
"397 -3 LINE",
"577 0 LINE",
"756 -3 LINE",
"756 85 LINE",
"729 90 LINE SMOOTH",
"699 95 OFFCURVE",
"680 114 OFFCURVE",
"665 137 CURVE SMOOTH",
"503 381 LINE",
"454 420 LINE",
"368 563 LINE SMOOTH",
"355 584 OFFCURVE",
"362 604 OFFCURVE",
"387 609 CURVE SMOOTH",
"419 615 LINE",
"419 704 LINE",
"231 700 LINE",
"51 704 LINE",
"51 609 LINE"
);
},
{
closed = 1;
nodes = (
"345 424 LINE",
"130 125 LINE SMOOTH",
"120 111 OFFCURVE",
"108 103 OFFCURVE",
"92 99 CURVE SMOOTH",
"41 85 LINE",
"41 -3 LINE",
"178 0 LINE",
"344 -3 LINE",
"344 85 LINE",
"314 94 LINE SMOOTH",
"290 101 OFFCURVE",
"283 117 OFFCURVE",
"297 140 CURVE SMOOTH",
"420 335 LINE"
);
}
);
width = 820;
}
);
unicode = 0058;
},
{
color = 1;
glyphname = Y;
lastChange = "2017-12-09 17:38:10 +0000";
layers = (
{
background = {
components = (
{
name = I;
transform = "{1, 0, 0, 1, 158, 0}";
}
);
};
layerId = "1B5E7594-BD1E-41E1-80E1-0DE241437139";
paths = (
{
closed = 1;
nodes = (
"64 664 LINE SMOOTH",
"85 663 OFFCURVE",
"97 650 OFFCURVE",
"106 631 CURVE SMOOTH",
"282 242 LINE",
"282 80 LINE SMOOTH",
"282 52 OFFCURVE",
"269 41 OFFCURVE",
"245 37 CURVE SMOOTH",
"184 27 LINE",
"184 -4 LINE",
"315 0 LINE",
"453 -4 LINE",
"453 27 LINE",
"387 37 LINE SMOOTH",
"363 41 OFFCURVE",
"350 51 OFFCURVE",
"350 79 CURVE SMOOTH",
"350 253 LINE",
"524 623 LINE SMOOTH",
"534 644 OFFCURVE",
"544 656 OFFCURVE",
"566 661 CURVE SMOOTH",
"608 670 LINE",
"608 704 LINE",
"500 700 LINE",
"373 703 LINE",
"373 669 LINE",
"437 662 LINE SMOOTH",
"469 659 OFFCURVE",
"474 641 OFFCURVE",
"463 616 CURVE SMOOTH",
"330 310 LINE",
"195 618 LINE SMOOTH",
"184 644 OFFCURVE",
"193 665 OFFCURVE",
"221 667 CURVE SMOOTH",
"272 670 LINE",
"272 703 LINE",
"131 700 LINE",
"34 703 LINE",
"34 666 LINE"
);
}
);
width = 641;
},
{
layerId = "5A1ECF60-5C3D-4C60-84B4-C69E600E0422";
paths = (
{
closed = 1;
nodes = (
"17 609 LINE SMOOTH",
"35 606 OFFCURVE",
"52 594 OFFCURVE",
"60 578 CURVE SMOOTH",
"213 260 LINE",
"213 150 LINE SMOOTH",
"213 124 OFFCURVE",
"205 104 OFFCURVE",
"178 99 CURVE SMOOTH",
"126 90 LINE",
"126 -3 LINE",
"312 0 LINE",
"500 -3 LINE",
"500 90 LINE",
"455 96 LINE SMOOTH",
"429 100 OFFCURVE",
"421 122 OFFCURVE",
"421 148 CURVE SMOOTH",
"421 274 LINE",
"566 570 LINE SMOOTH",
"576 591 OFFCURVE",
"589 601 OFFCURVE",
"610 607 CURVE SMOOTH",
"632 613 LINE",
"632 704 LINE",
"504 700 LINE",
"376 704 LINE",
"376 615 LINE",
"414 606 LINE SMOOTH",
"437 601 OFFCURVE",
"444 582 OFFCURVE",
"435 560 CURVE SMOOTH",
"353 369 LINE",
"274 564 LINE SMOOTH",
"265 587 OFFCURVE",
"274 604 OFFCURVE",
"297 609 CURVE SMOOTH",
"328 615 LINE",
"328 704 LINE",
"146 700 LINE",
"-10 704 LINE",
"-10 613 LINE"
);
}
);
width = 622;
}
);
unicode = 0059;
},
{
color = 1;
glyphname = Z;
lastChange = "2018-01-01 15:40:03 +0000";
layers = (
{
layerId = "1B5E7594-BD1E-41E1-80E1-0DE241437139";
paths = (
{
closed = 1;
nodes = (
"524 -1 LINE",
"542 24 LINE",
"518 160 LINE",
"479 160 LINE",
"483 80 OFFCURVE",
"473 63 OFFCURVE",
"427 63 CURVE SMOOTH",
"129 60 LINE",
"190 140 LINE",
"538 671 LINE",
"524 696 LINE",
"79 701 LINE",
"62 683 LINE",
"83 543 LINE",
"123 543 LINE",
"119 618 OFFCURVE",
"128 633 OFFCURVE",
"171 634 CURVE SMOOTH",
"462 640 LINE",
"405 564 LINE",
"47 28 LINE",
"58 6 LINE"
);
}
);
width = 592;
},
{
layerId = "5A1ECF60-5C3D-4C60-84B4-C69E600E0422";
paths = (
{
closed = 1;
nodes = (
"507 -6 LINE",
"527 26 LINE",
"492 270 LINE",
"372 271 LINE",
"378 192 OFFCURVE",
"356 169 OFFCURVE",
"310 167 CURVE SMOOTH",
"191 161 LINE",
"239 215 LINE",
"539 609 LINE",
"520 695 LINE",
"29 697 LINE",
"12 678 LINE",
"38 416 LINE",
"161 416 LINE",
"161 470 OFFCURVE",
"171 508 OFFCURVE",
"230 509 CURVE SMOOTH",
"327 511 LINE",
"268 442 LINE",
"-10 69 LINE",
"8 -4 LINE"
);
}
);
width = 539;
}
);
unicode = 005A;
},
{
color = 1;
glyphname = a;
lastChange = "2018-03-25 10:57:20 +0000";
layers = (
{
background = {
components = (
{
name = n;
transform = "{1, 0, 0, 1, -103, 0}";
}
);
};
guideLines = (
{
position = "{990, 64}";
},
{
position = "{-371, 473}";
},
{
position = "{795, 507}";
}
);
layerId = "1B5E7594-BD1E-41E1-80E1-0DE241437139";
paths = (
{
closed = 1;
nodes = (
"337 255 LINE",
"172 218 LINE SMOOTH",
"54 191 OFFCURVE",
"60 44 OFFCURVE",
"161 44 CURVE SMOOTH",
"221 44 OFFCURVE",
"289 80 OFFCURVE",
"335 106 CURVE",
"332 74 LINE",
"314 57 OFFCURVE",
"247 -9 OFFCURVE",
"149 -9 CURVE SMOOTH",
"66 -9 OFFCURVE",
"20 33 OFFCURVE",
"20 122 CURVE SMOOTH",
"20 222 OFFCURVE",
"119 252 OFFCURVE",
"239 275 CURVE SMOOTH",
"336 294 LINE"
);
},
{
closed = 1;
nodes = (
"129 503 OFFCURVE",
"169 508 OFFCURVE",
"235 508 CURVE SMOOTH",
"345 508 OFFCURVE",
"387 457 OFFCURVE",
"383 334 CURVE SMOOTH",
"375 94 LINE SMOOTH",
"374 66 OFFCURVE",
"379 47 OFFCURVE",
"414 54 CURVE SMOOTH",
"461 63 LINE",
"466 53 LINE",
"447 0 LINE",
"332 -31 OFFCURVE",
"313 39 OFFCURVE",
"314 108 CURVE SMOOTH",
"317 365 LINE SMOOTH",
"317 438 OFFCURVE",
"272 468 OFFCURVE",
"207 468 CURVE SMOOTH",
"145 468 OFFCURVE",
"121 447 OFFCURVE",
"125 387 CURVE SMOOTH",
"127 358 LINE",
"81 358 LINE",
"69 477 LINE",
"76 489 LINE"
);
}
);
width = 499;
},
{
background = {
components = (
{
name = n;
transform = "{-1, 0, 0, -1, 538, 483}";
}
);
};
guideLines = (
{
position = "{-583, 515}";
}
);
layerId = "5A1ECF60-5C3D-4C60-84B4-C69E600E0422";
paths = (
{
closed = 1;
nodes = (
"359 237 LINE",
"247 214 LINE SMOOTH",
"178 200 OFFCURVE",
"175 123 OFFCURVE",
"217 115 CURVE SMOOTH",
"265 106 OFFCURVE",
"303 145 OFFCURVE",
"337 185 CURVE",
"330 137 LINE",
"317 107 OFFCURVE",
"262 -16 OFFCURVE",
"155 -16 CURVE SMOOTH",
"66 -16 OFFCURVE",
"-7 30 OFFCURVE",
"-5 131 CURVE SMOOTH",
"-3 233 OFFCURVE",
"45 270 OFFCURVE",
"186 288 CURVE SMOOTH",
"346 309 LINE"
);
},
{
closed = 1;
nodes = (
"43 487 LINE",
"130 505 OFFCURVE",
"188 522 OFFCURVE",
"286 522 CURVE SMOOTH",
"418 522 OFFCURVE",
"477 463 OFFCURVE",
"467 337 CURVE SMOOTH",
"453 156 LINE SMOOTH",
"451 132 OFFCURVE",
"465 121 OFFCURVE",
"489 126 CURVE SMOOTH",
"527 134 LINE",
"542 113 LINE",
"497 0 LINE",
"316 -46 OFFCURVE",
"261 39 OFFCURVE",
"262 111 CURVE SMOOTH",
"264 261 LINE SMOOTH",
"265 316 OFFCURVE",
"269 361 OFFCURVE",
"246 372 CURVE SMOOTH",
"223 383 OFFCURVE",
"184 380 OFFCURVE",
"98 335 CURVE",
"67 355 LINE"
);
}
);
width = 562;
},
{
associatedMasterId = "5A1ECF60-5C3D-4C60-84B4-C69E600E0422";
background = {
components = (
{
name = C;
transform = "{-1, 0, 0, 1, 670, -185}";
}
);
};
guideLines = (
{
position = "{-565, 515}";
}
);
layerId = "7455D31B-4E07-4A2C-A370-FEBBE5195640";
name = "Mar 22 18, 20:23";
paths = (
{
closed = 1;
nodes = (
"401 237 LINE",
"278 212 LINE SMOOTH",
"209 198 OFFCURVE",
"206 122 OFFCURVE",
"248 112 CURVE SMOOTH",
"302 99 OFFCURVE",
"345 144 OFFCURVE",
"379 184 CURVE",
"372 137 LINE",
"359 107 OFFCURVE",
"304 -16 OFFCURVE",
"173 -16 CURVE SMOOTH",
"84 -16 OFFCURVE",
"11 30 OFFCURVE",
"13 131 CURVE SMOOTH",
"15 233 OFFCURVE",
"87 270 OFFCURVE",
"228 288 CURVE SMOOTH",
"388 309 LINE"
);
},
{
closed = 1;
nodes = (
"68 495 LINE",
"145 511 OFFCURVE",
"228 518 OFFCURVE",
"293 517 CURVE SMOOTH",
"446 515 OFFCURVE",
"521 464 OFFCURVE",
"511 337 CURVE SMOOTH",
"497 156 LINE SMOOTH",
"495 132 OFFCURVE",
"509 121 OFFCURVE",
"533 126 CURVE SMOOTH",
"571 134 LINE",
"586 113 LINE",
"541 0 LINE",
"360 -46 OFFCURVE",
"309 39 OFFCURVE",
"310 111 CURVE SMOOTH",
"312 271 LINE SMOOTH",
"313 365 OFFCURVE",
"320 419 OFFCURVE",
"257 416 CURVE SMOOTH",
"215 414 OFFCURVE",
"199 391 OFFCURVE",
"205 312 CURVE",
"84 309 LINE",
"48 466 LINE"
);
}
);
width = 580;
},
{
associatedMasterId = "1B5E7594-BD1E-41E1-80E1-0DE241437139";
background = {
components = (
{
name = u;
transform = "{1, 0, 0, 1, -55, 0}";
}
);
};
guideLines = (
{
position = "{990, 64}";
},
{
position = "{-371, 473}";
},
{
position = "{795, 512}";
}
);
layerId = "CE8F28F7-1AFC-4F16-8197-1ACB1498A43D";
name = "Mar 22 18, 20:28";
paths = (
{
closed = 1;
nodes = (
"330 266 LINE",
"192 246 LINE SMOOTH",
"45 225 OFFCURVE",
"19 44 OFFCURVE",
"160 44 CURVE SMOOTH",
"227 44 OFFCURVE",
"312 84 OFFCURVE",
"358 149 CURVE",
"332 86 LINE",
"314 56 OFFCURVE",
"255 -12 OFFCURVE",
"143 -12 CURVE SMOOTH",
"57 -12 OFFCURVE",
"-8 40 OFFCURVE",
"-4 132 CURVE SMOOTH",
"0 232 OFFCURVE",
"77 269 OFFCURVE",
"197 287 CURVE SMOOTH",
"329 307 LINE"
);
},
{
closed = 1;
nodes = (
"44 493 LINE",
"107 507 OFFCURVE",
"164 513 OFFCURVE",
"212 513 CURVE SMOOTH",
"325 513 OFFCURVE",
"384 466 OFFCURVE",
"380 334 CURVE SMOOTH",
"373 94 LINE SMOOTH",
"372 66 OFFCURVE",
"380 47 OFFCURVE",
"415 54 CURVE SMOOTH",
"462 63 LINE",
"467 53 LINE",
"448 0 LINE",
"333 -31 OFFCURVE",
"310 49 OFFCURVE",
"311 118 CURVE SMOOTH",
"314 331 LINE SMOOTH",
"315 437 OFFCURVE",
"288 478 OFFCURVE",
"158 467 CURVE SMOOTH",
"112 463 OFFCURVE",
"93 433 OFFCURVE",
"99 359 CURVE",
"55 359 LINE",
"37 481 LINE"
);
}
);
width = 491;
},
{
associatedMasterId = "5A1ECF60-5C3D-4C60-84B4-C69E600E0422";
background = {
components = (
{
name = f;
transform = "{-1, 0, 0, 1, 443, -287}";
}
);
};
guideLines = (
{
position = "{-565, 515}";
}
);
layerId = "3FDE65EB-A1EB-4444-9CEA-F418D48CA85E";
name = "Mar 22 18, 21:11";
paths = (
{
closed = 1;
nodes = (
"401 237 LINE",
"278 212 LINE SMOOTH",
"209 198 OFFCURVE",
"206 123 OFFCURVE",
"248 113 CURVE SMOOTH",
"302 100 OFFCURVE",
"345 145 OFFCURVE",
"379 185 CURVE",
"372 137 LINE",
"359 107 OFFCURVE",
"304 -16 OFFCURVE",
"173 -16 CURVE SMOOTH",
"84 -16 OFFCURVE",
"11 30 OFFCURVE",
"13 131 CURVE SMOOTH",
"15 233 OFFCURVE",
"87 270 OFFCURVE",
"228 288 CURVE SMOOTH",
"388 309 LINE"
);
},
{
closed = 1;
nodes = (
"60 488 LINE",
"137 504 OFFCURVE",
"228 518 OFFCURVE",
"293 517 CURVE SMOOTH",
"446 515 OFFCURVE",
"521 464 OFFCURVE",
"511 337 CURVE SMOOTH",
"497 156 LINE SMOOTH",
"495 132 OFFCURVE",
"509 121 OFFCURVE",
"533 126 CURVE SMOOTH",
"571 134 LINE",
"586 113 LINE",
"541 0 LINE",
"360 -46 OFFCURVE",
"309 39 OFFCURVE",
"310 111 CURVE SMOOTH",
"312 261 LINE SMOOTH",
"313 322 OFFCURVE",
"314 382 OFFCURVE",
"269 386 CURVE SMOOTH",
"228 390 OFFCURVE",
"171 363 OFFCURVE",
"111 332 CURVE",
"77 360 LINE"
);
}
);
width = 580;
},
{
associatedMasterId = "1B5E7594-BD1E-41E1-80E1-0DE241437139";
background = {
components = (
{
name = n;
transform = "{1, 0, 0, 1, -93, 20}";
}
);
};
guideLines = (
{
position = "{990, 64}";
},
{
position = "{-371, 473}";
},
{
position = "{795, 507}";
}
);
layerId = "4BB00D74-4402-4206-BBC8-623C7A1FFD95";
name = "Mar 25 18, 11:53";
paths = (
{
closed = 1;
nodes = (
"337 255 LINE",
"172 218 LINE SMOOTH",
"54 191 OFFCURVE",
"60 44 OFFCURVE",
"161 44 CURVE SMOOTH",
"221 44 OFFCURVE",
"289 80 OFFCURVE",
"335 106 CURVE",
"332 74 LINE",
"314 57 OFFCURVE",
"247 -9 OFFCURVE",
"149 -9 CURVE SMOOTH",
"66 -9 OFFCURVE",
"20 33 OFFCURVE",
"20 122 CURVE SMOOTH",
"20 222 OFFCURVE",
"119 252 OFFCURVE",
"239 275 CURVE SMOOTH",
"336 294 LINE"
);
},
{
closed = 1;
nodes = (
"68 482 LINE",
"158 500 OFFCURVE",
"231 513 OFFCURVE",
"282 505 CURVE SMOOTH",
"356 493 OFFCURVE",
"386 438 OFFCURVE",
"383 334 CURVE SMOOTH",
"375 94 LINE SMOOTH",
"374 66 OFFCURVE",
"379 47 OFFCURVE",
"414 54 CURVE SMOOTH",
"461 63 LINE",
"466 53 LINE",
"447 0 LINE",
"332 -31 OFFCURVE",
"313 39 OFFCURVE",
"314 108 CURVE SMOOTH",
"317 365 LINE SMOOTH",
"317 398 OFFCURVE",
"305 435 OFFCURVE",
"282 448 CURVE SMOOTH",
"245 469 OFFCURVE",
"184 458 OFFCURVE",
"91 417 CURVE",
"79 422 LINE"
);
}
);
width = 499;
}
);
unicode = 0061;
},
{
color = 1;
glyphname = b;
lastChange = "2018-03-24 17:39:36 +0000";
layers = (
{
background = {
components = (
{
name = q;
transform = "{-1, 0, 0, -1, 526, 499}";
}
);
};
components = (
{
name = _part_bowl;
transform = "{1, 0, 0, 1, -26, 0}";
}
);
layerId = "1B5E7594-BD1E-41E1-80E1-0DE241437139";
paths = (
{
closed = 1;
nodes = (
"126 100 LINE SMOOTH",
"126 70 OFFCURVE",
"103 23 OFFCURVE",
"73 -7 CURVE",
"36 11 LINE",
"55 53 OFFCURVE",
"64 90 OFFCURVE",
"64 137 CURVE SMOOTH",
"65 697 LINE SMOOTH",
"65 716 OFFCURVE",
"52 735 OFFCURVE",
"30 737 CURVE SMOOTH",
"-17 742 LINE",
"-17 775 LINE",
"32 780 OFFCURVE",
"79 787 OFFCURVE",
"124 796 CURVE",
"133 790 LINE"
);
}
);
width = 567;
},
{
background = {
components = (
{
name = _part_bowl;
transform = "{1, 0, 0, 1, 9, 0}";
}
);
};
guideLines = (
{
position = "{854, 512}";
}
);
layerId = "5A1ECF60-5C3D-4C60-84B4-C69E600E0422";
paths = (
{
closed = 1;
nodes = (
"247 62 LINE",
"376 54 LINE",
"291 34 LINE",
"50 22 LINE",
"50 648 LINE SMOOTH",
"50 674 OFFCURVE",
"37 692 OFFCURVE",
"10 694 CURVE SMOOTH",
"-12 696 LINE",
"-12 785 LINE",
"64 789 OFFCURVE",
"149 798 OFFCURVE",
"229 813 CURVE",
"247 797 LINE"
);
},
{
closed = 1;
nodes = (
"190 359 LINE",
"230 441 OFFCURVE",
"294 513 OFFCURVE",
"388 513 CURVE SMOOTH",
"501 513 OFFCURVE",
"564 414 OFFCURVE",
"564 269 CURVE SMOOTH",
"564 58 OFFCURVE",
"488 -15 OFFCURVE",
"281 -15 CURVE SMOOTH",
"202 -15 OFFCURVE",
"160 -15 OFFCURVE",
"50 22 CURVE",
"192 116 LINE",
"207 100 OFFCURVE",
"251 79 OFFCURVE",
"292 90 CURVE SMOOTH",
"333 101 OFFCURVE",
"340 163 OFFCURVE",
"341 220 CURVE SMOOTH",
"344 329 OFFCURVE",
"329 373 OFFCURVE",
"291 373 CURVE SMOOTH",
"270 373 OFFCURVE",
"251 364 OFFCURVE",
"233 343 CURVE"
);
}
);
width = 584;
},
{
associatedMasterId = "5A1ECF60-5C3D-4C60-84B4-C69E600E0422";
background = {
components = (
{
name = l;
transform = "{1, 0, 0, 1, -7, 0}";
}
);
};
components = (
{
name = _part_bowl;
piece = {
"d,q" = 1;
};
transform = "{1, 0, 0, 1, 19, 0}";
}
);
guideLines = (
{
position = "{868, 512}";
}
);
layerId = "5D8F6F35-3986-4236-B2A1-A726FE419699";
name = "Jan 1 18, 16:26";
paths = (
{
closed = 1;
nodes = (
"261 85 LINE",
"234 75 LINE",
"200 0 LINE",
"63 0 LINE",
"64 648 LINE SMOOTH",
"64 674 OFFCURVE",
"51 692 OFFCURVE",
"24 694 CURVE SMOOTH",
"2 696 LINE",
"2 785 LINE",
"78 789 OFFCURVE",
"163 798 OFFCURVE",
"243 813 CURVE",
"261 797 LINE"
);
}
);
width = 585;
},
{
associatedMasterId = "1B5E7594-BD1E-41E1-80E1-0DE241437139";
background = {
components = (
{
name = l;
}
);
};
components = (
{
name = _part_bowl;
transform = "{1, 0, 0, 1, 14, 0}";
}
);
layerId = "751249E1-7FE0-4C21-85AF-C18A5640878A";
name = "Jan 1 18, 16:43";
paths = (
{
closed = 1;
nodes = (
"168 74 LINE",
"162 50 LINE",
"149 0 LINE",
"108 0 LINE",
"107 697 LINE SMOOTH",
"107 716 OFFCURVE",
"94 735 OFFCURVE",
"72 737 CURVE SMOOTH",
"25 742 LINE",
"25 775 LINE",
"74 780 OFFCURVE",
"121 787 OFFCURVE",
"166 796 CURVE",
"175 790 LINE"
);
}
);
width = 607;
}
);
unicode = 0062;
},
{
color = 1;
glyphname = c;
lastChange = "2018-03-25 10:32:53 +0000";
layers = (
{
background = {
components = (
{
name = e;
transform = "{1, 0, 0, 1, 20, 0}";
}
);
};
guideLines = (
{
position = "{-408, -12}";
},
{
position = "{-69, 104}";
},
{
angle = 90;
position = "{420, 376}";
}
);
layerId = "1B5E7594-BD1E-41E1-80E1-0DE241437139";
paths = (
{
closed = 1;
nodes = (
"45 20 OFFCURVE",
"249 -80 OFFCURVE",
"427 39 CURVE",
"420 71 LINE",
"406 76 LINE",
"266 9 OFFCURVE",
"118 67 OFFCURVE",
"118 230 CURVE SMOOTH",
"118 398 OFFCURVE",
"181 464 OFFCURVE",
"281 464 CURVE SMOOTH",
"336 464 OFFCURVE",
"370 454 OFFCURVE",
"361 363 CURVE",
"407 363 LINE",
"423 494 LINE",
"394 503 OFFCURVE",
"355 511 OFFCURVE",
"277 510 CURVE SMOOTH",
"143 508 OFFCURVE",
"45 422 OFFCURVE",
"45 230 CURVE SMOOTH"
);
}
);
width = 484;
},
{
associatedMasterId = "5A1ECF60-5C3D-4C60-84B4-C69E600E0422";
background = {
components = (
{
name = f;
transform = "{1, 0, 0, 1, 86, -292}";
}
);
};
guideLines = (
{
angle = 71;
position = "{489, 195}";
}
);
layerId = "D2923922-0CE0-4161-8498-9E8833351EE1";
name = "Mar 24 18, 09:10";
paths = (
{
closed = 1;
nodes = (
"16 72 OFFCURVE",
"126 -16 OFFCURVE",
"265 -16 CURVE SMOOTH",
"316 -16 OFFCURVE",
"371 -4 OFFCURVE",
"427 21 CURVE",
"470 146 LINE",
"450 171 LINE",
"302 117 OFFCURVE",
"215 150 OFFCURVE",
"215 274 CURVE SMOOTH",
"215 375 OFFCURVE",
"328 407 OFFCURVE",
"450 325 CURVE",
"470 358 LINE",
"429 498 LINE",
"398 512 OFFCURVE",
"365 514 OFFCURVE",
"307 514 CURVE SMOOTH",
"138 514 OFFCURVE",
"13 413 OFFCURVE",
"15 234 CURVE SMOOTH"
);
}
);
width = 497;
},
{
background = {
components = (
{
name = e;
}
);
};
guideLines = (
{
angle = 90;
position = "{474, 233}";
}
);
layerId = "5A1ECF60-5C3D-4C60-84B4-C69E600E0422";
paths = (
{
closed = 1;
nodes = (
"19 88 OFFCURVE",
"90 2 OFFCURVE",
"228 -12 CURVE SMOOTH",
"330 -22 OFFCURVE",
"423 15 OFFCURVE",
"474 46 CURVE",
"452 150 LINE",
"431 161 LINE",
"291 105 OFFCURVE",
"222 126 OFFCURVE",
"227 264 CURVE SMOOTH",
"230 355 OFFCURVE",
"248 393 OFFCURVE",
"280 393 CURVE SMOOTH",
"313 393 OFFCURVE",
"334 380 OFFCURVE",
"317 279 CURVE",
"434 279 LINE",
"480 488 LINE",
"439 508 OFFCURVE",
"356 517 OFFCURVE",
"298 517 CURVE SMOOTH",
"132 517 OFFCURVE",
"19 429 OFFCURVE",
"19 250 CURVE SMOOTH"
);
}
);
width = 497;
}
);
leftMetricsKey = o;
unicode = 0063;
},
{
color = 1;
glyphname = d;
lastChange = "2018-03-24 17:39:23 +0000";
layers = (
{
background = {
components = (
{
name = p;
transform = "{1, 0, 0, 1, -8, 0}";
}
);
};
components = (
{
name = _part.stem_asc;
piece = {
"foot?" = 2;
};
transform = "{1, 0, 0, 1, 336, 0}";
},
{
name = _part_bowl;
transform = "{-1, 0, 0, -1, 605, 499}";
}
);
layerId = "1B5E7594-BD1E-41E1-80E1-0DE241437139";
width = 580;
},
{
background = {
components = (
{
name = n;
transform = "{1, 0, 0, 1, -34, 0}";
}
);
};
components = (
{
name = _part.stem_asc;
piece = {
"foot?" = 2;
};
transform = "{1, 0, 0, 1, 285, 0}";
},
{
name = _part_bowl;
piece = {
"d,q" = 1;
};
transform = "{-1, 0, 0, -1, 570, 502}";
}
);
guideLines = (
{
position = "{1611, 513}";
}
);
layerId = "5A1ECF60-5C3D-4C60-84B4-C69E600E0422";
width = 604;
},
{
associatedMasterId = "1B5E7594-BD1E-41E1-80E1-0DE241437139";
components = (
{
name = _part_bowl;
transform = "{-1, 0, 0, -1, 605, 499}";
}
);
layerId = "F2BBC9B2-CC43-4C61-BEC8-BF798A3BE463";
name = "Sep 24 17, 15:04";
paths = (
{
closed = 1;
nodes = (
"360 775 LINE",
"503 796 LINE",
"512 790 LINE",
"508 55 LINE",
"445 0 LINE",
"444 723 LINE",
"360 746 LINE"
);
},
{
closed = 1;
nodes = (
"597 15 LINE",
"454 -6 LINE",
"445 0 LINE",
"503 63 LINE",
"597 44 LINE"
);
}
);
width = 580;
},
{
associatedMasterId = "5A1ECF60-5C3D-4C60-84B4-C69E600E0422";
background = {
components = (
{
name = a;
transform = "{1, 0, 0, 1, 11, 0}";
}
);
};
components = (
{
name = _part_bowl;
piece = {
"d,q" = 1;
};
transform = "{-1, 0, 0, -1, 564, 503}";
}
);
guideLines = (
{
position = "{1596, 513}";
}
);
layerId = "CFCDB457-61D1-46E7-AB5D-2509F62BF86E";
name = "Sep 24 17, 15:06";
paths = (
{
closed = 1;
nodes = (
"260 783 LINE",
"496 811 LINE",
"521 789 LINE",
"522 136 LINE",
"317 116 LINE",
"318 687 LINE",
"260 700 LINE"
);
},
{
closed = 1;
nodes = (
"579 17 LINE",
"363 -11 LINE",
"338 11 LINE",
"322 164 LINE",
"521 203 LINE",
"521 113 LINE",
"579 100 LINE"
);
}
);
width = 594;
}
);
unicode = 0064;
},
{
color = 1;
glyphname = e;
lastChange = "2018-03-24 18:58:22 +0000";
layers = (
{
background = {
components = (
{
name = o;
transform = "{1, 0, 0, 1, 7, 0}";
}
);
};
guideLines = (
{
angle = 71;
position = "{472, 186}";
},
{
angle = 90;
position = "{425, 428}";
}
);
layerId = "1B5E7594-BD1E-41E1-80E1-0DE241437139";
paths = (
{
closed = 1;
nodes = (
"414 76 LINE",
"399 82 LINE",
"257 5 OFFCURVE",
"98 56 OFFCURVE",
"98 231 CURVE SMOOTH",
"98 344 OFFCURVE",
"137 464 OFFCURVE",
"250 464 CURVE SMOOTH",
"340 464 OFFCURVE",
"365 416 OFFCURVE",
"352 307 CURVE",
"418 284 LINE",
"446 454 OFFCURVE",
"382 510 OFFCURVE",
"254 510 CURVE SMOOTH",
"120 510 OFFCURVE",
"25 408 OFFCURVE",
"25 240 CURVE SMOOTH",
"25 -19 OFFCURVE",
"267 -67 OFFCURVE",
"421 45 CURVE"
);
},
{
closed = 1;
nodes = (
"64 283 LINE",
"418 284 LINE",
"393 325 LINE",
"57 325 LINE"
);
}
);
width = 445;
},
{
background = {
components = (
{
name = o;
}
);
};
layerId = "5A1ECF60-5C3D-4C60-84B4-C69E600E0422";
paths = (
{
closed = 1;
nodes = (
"477 154 LINE",
"457 165 LINE",
"330 112 OFFCURVE",
"232 119 OFFCURVE",
"234 251 CURVE SMOOTH",
"236 367 OFFCURVE",
"247 413 OFFCURVE",
"282 416 CURVE SMOOTH",
"317 419 OFFCURVE",
"330 379 OFFCURVE",
"317 312 CURVE",
"492 253 LINE",
"536 460 OFFCURVE",
"438 518 OFFCURVE",
"290 518 CURVE SMOOTH",
"106 518 OFFCURVE",
"19 399 OFFCURVE",
"19 249 CURVE SMOOTH",
"19 129 OFFCURVE",
"73 41 OFFCURVE",
"166 4 CURVE SMOOTH",
"249 -28 OFFCURVE",
"397 -19 OFFCURVE",
"500 47 CURVE"
);
},
{
closed = 1;
nodes = (
"128 249 LINE",
"493 250 LINE",
"486 333 LINE",
"121 332 LINE"
);
}
);
width = 537;
},
{
associatedMasterId = "1B5E7594-BD1E-41E1-80E1-0DE241437139";
background = {
components = (
{
name = o;
transform = "{1, 0, 0, 1, -5, 0}";
}
);
};
guideLines = (
{
angle = 71;
position = "{499, 186}";
}
);
layerId = "54DB8AD1-6479-479A-8D91-CDB4B5553F02";
name = "Mar 24 18, 09:38";
paths = (
{
closed = 1;
nodes = (
"469 98 LINE",
"460 103 LINE",
"287 11 OFFCURVE",
"118 43 OFFCURVE",
"118 245 CURVE SMOOTH",
"118 358 OFFCURVE",
"172 461 OFFCURVE",
"285 461 CURVE SMOOTH",
"379 461 OFFCURVE",
"417 388 OFFCURVE",
"399 256 CURVE",
"470 258 LINE",
"497 408 OFFCURVE",
"421 509 OFFCURVE",
"281 509 CURVE SMOOTH",
"123 509 OFFCURVE",
"48 382 OFFCURVE",
"48 240 CURVE SMOOTH",
"48 -9 OFFCURVE",
"279 -70 OFFCURVE",
"449 45 CURVE"
);
},
{
closed = 1;
nodes = (
"88 255 LINE",
"470 255 LINE",
"463 297 LINE",
"81 297 LINE"
);
}
);
width = 492;
},
{
associatedMasterId = "1B5E7594-BD1E-41E1-80E1-0DE241437139";
background = {
components = (
{
name = o;
}
);
paths = (
{
closed = 1;
nodes = (
"152 474 OFFCURVE",
"205 507 OFFCURVE",
"286 507 CURVE SMOOTH",
"357 507 OFFCURVE",
"414 465 OFFCURVE",
"413 360 CURVE SMOOTH",
"411 69 LINE SMOOTH",
"411 46 OFFCURVE",
"427 34 OFFCURVE",
"449 33 CURVE SMOOTH",
"497 31 LINE",
"497 -4 LINE",
"384 0 LINE",
"261 -4 LINE",
"261 31 LINE",
"335 34 OFFCURVE",
"347 45 OFFCURVE",
"347 82 CURVE SMOOTH",
"347 363 LINE SMOOTH",
"347 440 OFFCURVE",
"289 507 OFFCURVE",
"96 396 CURVE",
"100 428 LINE"
);
}
);
};
guideLines = (
{
angle = 71;
position = "{472, 186}";
},
{
angle = 90;
position = "{402, 428}";
}
);
layerId = "208FFAF5-2558-4CED-AD73-BD3196436AF1";
name = "Mar 24 18, 13:21";
paths = (
{
closed = 1;
nodes = (
"412 86 LINE",
"403 91 LINE",
"221 4 OFFCURVE",
"98 56 OFFCURVE",
"98 231 CURVE SMOOTH",
"98 344 OFFCURVE",
"129 465 OFFCURVE",
"249 465 CURVE SMOOTH",
"339 465 OFFCURVE",
"363 399 OFFCURVE",
"343 279 CURVE",
"405 256 LINE",
"428 367 OFFCURVE",
"436 510 OFFCURVE",
"254 510 CURVE SMOOTH",
"111 510 OFFCURVE",
"25 408 OFFCURVE",
"25 240 CURVE SMOOTH",
"25 -19 OFFCURVE",
"259 -63 OFFCURVE",
"392 33 CURVE"
);
},
{
closed = 1;
nodes = (
"61 255 LINE",
"402 256 LINE",
"380 297 LINE",
"54 297 LINE"
);
}
);
width = 465;
},
{
associatedMasterId = "5A1ECF60-5C3D-4C60-84B4-C69E600E0422";
background = {
components = (
{
name = t;
transform = "{1, 0, 0, 1, 160, 0}";
}
);
};
layerId = "AB2F923D-CE11-40E4-8546-133409156360";
name = "Mar 24 18, 18:50";
paths = (
{
closed = 1;
nodes = (
"501 145 LINE",
"485 170 LINE",
"296 113 OFFCURVE",
"220 144 OFFCURVE",
"220 279 CURVE SMOOTH",
"220 399 OFFCURVE",
"257 415 OFFCURVE",
"280 415 CURVE SMOOTH",
"306 415 OFFCURVE",
"324 399 OFFCURVE",
"315 312 CURVE",
"505 252 LINE",
"539 459 OFFCURVE",
"448 517 OFFCURVE",
"274 513 CURVE SMOOTH",
"116 509 OFFCURVE",
"16 385 OFFCURVE",
"19 235 CURVE SMOOTH",
"24 6 OFFCURVE",
"230 -62 OFFCURVE",
"459 20 CURVE"
);
},
{
closed = 1;
nodes = (
"106 249 LINE",
"506 249 LINE",
"499 332 LINE",
"99 332 LINE"
);
}
);
width = 537;
}
);
leftMetricsKey = o;
unicode = 0065;
},
{
color = 1;
glyphname = f;
lastChange = "2018-03-24 18:35:31 +0000";
layers = (
{
background = {
components = (
{
name = k;
transform = "{1, 0, 0, -1, -246, 800}";
}
);
};
layerId = "5A1ECF60-5C3D-4C60-84B4-C69E600E0422";
paths = (
{
closed = 1;
nodes = (
"382 689 LINE",
"362 653 LINE",
"328 676 OFFCURVE",
"293 669 OFFCURVE",
"273 654 CURVE SMOOTH",
"247 635 OFFCURVE",
"216 528 OFFCURVE",
"247 492 CURVE",
"350 499 LINE",
"367 480 LINE",
"367 391 LINE",
"275 399 LINE",
"275 139 LINE SMOOTH",
"275 113 OFFCURVE",
"289 95 OFFCURVE",
"315 92 CURVE SMOOTH",
"356 88 LINE",
"356 -4 LINE",
"192 0 LINE",
"21 -4 LINE",
"21 88 LINE",
"43 91 LINE SMOOTH",
"69 95 OFFCURVE",
"81 108 OFFCURVE",
"81 134 CURVE SMOOTH",
"77 351 LINE SMOOTH",
"77 376 OFFCURVE",
"66 391 OFFCURVE",
"42 393 CURVE SMOOTH",
"20 395 LINE",
"20 493 LINE",
"73 498 LINE",
"54 679 OFFCURVE",
"99 808 OFFCURVE",
"254 808 CURVE SMOOTH",
"298 808 OFFCURVE",
"314 804 OFFCURVE",
"337 800 CURVE"
);
}
);
width = 380;
},
{
associatedMasterId = "5A1ECF60-5C3D-4C60-84B4-C69E600E0422";
background = {
components = (
{
name = g;
transform = "{1, 0, 0, 1, -193, 0}";
}
);
};
layerId = "0E1BE82B-3D3B-48AF-90F2-A908EEDD6498";
name = "Jan 1 18, 15:48";
paths = (
{
closed = 1;
nodes = (
"364 579 LINE",
"246 579 LINE",
"260 669 OFFCURVE",
"247 695 OFFCURVE",
"214 688 CURVE SMOOTH",
"178 680 OFFCURVE",
"191 565 OFFCURVE",
"242 492 CURVE",
"345 499 LINE",
"362 480 LINE",
"362 391 LINE",
"270 399 LINE",
"270 139 LINE SMOOTH",
"270 113 OFFCURVE",
"284 95 OFFCURVE",
"310 92 CURVE SMOOTH",
"351 88 LINE",
"351 -4 LINE",
"187 0 LINE",
"16 -4 LINE",
"16 88 LINE",
"38 91 LINE SMOOTH",
"64 95 OFFCURVE",
"77 108 OFFCURVE",
"76 134 CURVE SMOOTH",
"71 351 LINE SMOOTH",
"70 376 OFFCURVE",
"60 391 OFFCURVE",
"36 393 CURVE SMOOTH",
"15 395 LINE",
"15 493 LINE",
"68 498 LINE",
"47 704 OFFCURVE",
"83 807 OFFCURVE",
"267 807 CURVE SMOOTH",
"322 807 OFFCURVE",
"375 799 OFFCURVE",
"400 786 CURVE"
);
}
);
width = 375;
},
{
associatedMasterId = "1B5E7594-BD1E-41E1-80E1-0DE241437139";
background = {
components = (
{
name = n;
transform = "{1, 0, 0, 1, 109, 0}";
}
);
};
guideLines = (
{
position = "{-582, 482}";
},
{
angle = 90;
position = "{267, 67}";
}
);
layerId = "84ABA533-6C80-477B-9B67-1E61AD2B1146";
name = "Mar 22 18, 19:40";
paths = (
{
closed = 1;
nodes = (
"324 660 LINE",
"278 660 LINE",
"285 723 OFFCURVE",
"279 751 OFFCURVE",
"249 751 CURVE SMOOTH",
"203 751 OFFCURVE",
"171 696 OFFCURVE",
"171 561 CURVE SMOOTH",
"171 545 OFFCURVE",
"171 502 OFFCURVE",
"171 484 CURVE",
"277 493 LINE",
"284 487 LINE",
"283 432 LINE",
"169 443 LINE",
"168 76 LINE SMOOTH",
"168 50 OFFCURVE",
"181 36 OFFCURVE",
"206 34 CURVE SMOOTH",
"268 28 LINE",
"268 -4 LINE",
"136 0 LINE",
"29 -4 LINE",
"29 25 LINE",
"68 32 LINE SMOOTH",
"92 36 OFFCURVE",
"105 50 OFFCURVE",
"105 74 CURVE SMOOTH",
"105 403 LINE SMOOTH",
"105 429 OFFCURVE",
"98 444 OFFCURVE",
"68 447 CURVE SMOOTH",
"32 450 LINE",
"32 483 LINE",
"106 490 LINE",
"106 502 OFFCURVE",
"107 530 OFFCURVE",
"107 569 CURVE SMOOTH",
"107 701 OFFCURVE",
"154 801 OFFCURVE",
"272 801 CURVE SMOOTH",
"293 801 OFFCURVE",
"316 798 OFFCURVE",
"342 791 CURVE"
);
}
);
width = 311;
},
{
background = {
components = (
{
name = n;
transform = "{1, 0, 0, 1, -7, 0}";
}
);
};
guideLines = (
{
position = "{-582, 482}";
},
{
angle = 90;
position = "{267, 67}";
}
);
layerId = "1B5E7594-BD1E-41E1-80E1-0DE241437139";
paths = (
{
closed = 1;
nodes = (
"305 728 LINE",
"295 719 LINE",
"257 742 OFFCURVE",
"209 750 OFFCURVE",
"184 725 CURVE SMOOTH",
"157 698 OFFCURVE",
"159 626 OFFCURVE",
"171 481 CURVE",
"296 490 LINE",
"303 484 LINE",
"302 429 LINE",
"169 440 LINE",
"168 76 LINE SMOOTH",
"168 50 OFFCURVE",
"181 36 OFFCURVE",
"206 34 CURVE SMOOTH",
"272 28 LINE",
"272 -4 LINE",
"136 0 LINE",
"23 -4 LINE",
"23 29 LINE",
"68 33 LINE SMOOTH",
"92 35 OFFCURVE",
"105 51 OFFCURVE",
"105 75 CURVE SMOOTH",
"105 403 LINE SMOOTH",
"105 429 OFFCURVE",
"98 440 OFFCURVE",
"68 441 CURVE SMOOTH",
"35 442 LINE",
"35 475 LINE",
"106 482 LINE",
"106 603 OFFCURVE",
"102 706 OFFCURVE",
"145 757 CURVE SMOOTH",
"185 804 OFFCURVE",
"230 807 OFFCURVE",
"289 793 CURVE"
);
}
);
width = 311;
},
{
associatedMasterId = "5A1ECF60-5C3D-4C60-84B4-C69E600E0422";
background = {
components = (
{
name = g;
transform = "{1, 0, 0, 1, -188, 0}";
}
);
};
layerId = "A968F3EA-45E3-4D1D-A7F5-E50859CEBD03";
name = "Mar 22 18, 20:02";
paths = (
{
closed = 1;
nodes = (
"369 579 LINE",
"251 579 LINE",
"265 669 OFFCURVE",
"249 703 OFFCURVE",
"219 688 CURVE SMOOTH",
"183 670 OFFCURVE",
"216 565 OFFCURVE",
"247 492 CURVE",
"350 499 LINE",
"367 480 LINE",
"367 391 LINE",
"275 399 LINE",
"275 139 LINE SMOOTH",
"275 113 OFFCURVE",
"289 95 OFFCURVE",
"315 92 CURVE SMOOTH",
"356 88 LINE",
"356 -4 LINE",
"192 0 LINE",
"21 -4 LINE",
"21 88 LINE",
"43 91 LINE SMOOTH",
"69 95 OFFCURVE",
"82 108 OFFCURVE",
"81 134 CURVE SMOOTH",
"76 351 LINE SMOOTH",
"75 376 OFFCURVE",
"65 391 OFFCURVE",
"41 393 CURVE SMOOTH",
"20 395 LINE",
"20 493 LINE",
"73 498 LINE",
"52 704 OFFCURVE",
"88 807 OFFCURVE",
"252 807 CURVE SMOOTH",
"307 807 OFFCURVE",
"380 799 OFFCURVE",
"405 786 CURVE"
);
}
);
width = 380;
},
{
associatedMasterId = "5A1ECF60-5C3D-4C60-84B4-C69E600E0422";
background = {
components = (
{
name = c;
transform = "{1, 0, 0, -1, -23, 795}";
}
);
};
layerId = "B058045B-96D9-4563-93DD-6911B798F2CA";
name = "Mar 22 18, 20:06";
paths = (
{
closed = 1;
nodes = (
"383 642 LINE",
"353 616 LINE",
"303 650 OFFCURVE",
"258 638 OFFCURVE",
"238 616 CURVE SMOOTH",
"217 592 OFFCURVE",
"216 528 OFFCURVE",
"247 492 CURVE",
"350 499 LINE",
"367 480 LINE",
"367 391 LINE",
"275 399 LINE",
"275 139 LINE SMOOTH",
"275 113 OFFCURVE",
"289 95 OFFCURVE",
"315 92 CURVE SMOOTH",
"356 88 LINE",
"356 -4 LINE",
"192 0 LINE",
"21 -4 LINE",
"21 88 LINE",
"43 91 LINE SMOOTH",
"69 95 OFFCURVE",
"82 108 OFFCURVE",
"81 134 CURVE SMOOTH",
"76 351 LINE SMOOTH",
"75 376 OFFCURVE",
"65 391 OFFCURVE",
"41 393 CURVE SMOOTH",
"20 395 LINE",
"20 493 LINE",
"73 498 LINE",
"54 679 OFFCURVE",
"103 808 OFFCURVE",
"276 808 CURVE SMOOTH",
"320 808 OFFCURVE",
"366 800 OFFCURVE",
"405 786 CURVE"
);
}
);
width = 380;
},
{
associatedMasterId = "5A1ECF60-5C3D-4C60-84B4-C69E600E0422";
background = {
components = (
{
name = k;
transform = "{1, 0, 0, -1, -246, 800}";
}
);
};
layerId = "03829BE8-5FC0-4376-BECB-1D1186D17198";
name = "Mar 22 18, 21:05";
paths = (
{
closed = 1;
nodes = (
"382 632 LINE",
"352 606 LINE",
"302 640 OFFCURVE",
"247 642 OFFCURVE",
"227 620 CURVE SMOOTH",
"206 596 OFFCURVE",
"216 528 OFFCURVE",
"247 492 CURVE",
"350 499 LINE",
"367 480 LINE",
"367 391 LINE",
"275 399 LINE",
"275 139 LINE SMOOTH",
"275 113 OFFCURVE",
"289 95 OFFCURVE",
"315 92 CURVE SMOOTH",
"356 88 LINE",
"356 -4 LINE",
"192 0 LINE",
"21 -4 LINE",
"21 88 LINE",
"43 91 LINE SMOOTH",
"69 95 OFFCURVE",
"82 108 OFFCURVE",
"81 134 CURVE SMOOTH",
"76 351 LINE SMOOTH",
"75 376 OFFCURVE",
"65 391 OFFCURVE",
"41 393 CURVE SMOOTH",
"20 395 LINE",
"20 493 LINE",
"73 498 LINE",
"54 679 OFFCURVE",
"103 808 OFFCURVE",
"276 808 CURVE SMOOTH",
"320 808 OFFCURVE",
"366 800 OFFCURVE",
"405 786 CURVE"
);
}
);
width = 380;
}
);
leftMetricsKey = n;
unicode = 0066;
},
{
color = 1;
glyphname = g;
lastChange = "2018-03-24 18:41:41 +0000";
layers = (
{
background = {
paths = (
{
closed = 1;
nodes = (
"324 132 OFFCURVE",
"386 152 OFFCURVE",
"430 185 CURVE SMOOTH",
"473 218 OFFCURVE",
"499 266 OFFCURVE",
"499 322 CURVE SMOOTH",
"499 362 OFFCURVE",
"485 396 OFFCURVE",
"458 424 CURVE",
"462 431 LINE",
"470 431 OFFCURVE",
"479 431 OFFCURVE",
"486 431 CURVE SMOOTH",
"502 431 OFFCURVE",
"514 433 OFFCURVE",
"525 434 CURVE",
"540 541 LINE",
"532 547 LINE",
"493 534 OFFCURVE",
"459 523 OFFCURVE",
"425 514 CURVE SMOOTH",
"390 505 OFFCURVE",
"360 506 OFFCURVE",
"327 512 CURVE SMOOTH",
"310 515 OFFCURVE",
"289 517 OFFCURVE",
"264 517 CURVE SMOOTH",
"113 517 OFFCURVE",
"18 440 OFFCURVE",
"18 317 CURVE SMOOTH",
"18 249 OFFCURVE",
"46 199 OFFCURVE",
"100 167 CURVE",
"100 157 LINE",
"88 148 OFFCURVE",
"78 140 OFFCURVE",
"67 131 CURVE",
"49 115 OFFCURVE",
"27 97 OFFCURVE",
"11 80 CURVE",
"11 21 OFFCURVE",
"49 -20 OFFCURVE",
"117 -32 CURVE",
"117 -40 LINE",
"101 -47 OFFCURVE",
"86 -53 OFFCURVE",
"72 -61 CURVE",
"48 -72 OFFCURVE",
"22 -87 OFFCURVE",
"10 -97 CURVE",
"10 -144 OFFCURVE",
"32 -184 OFFCURVE",
"71 -211 CURVE SMOOTH",
"111 -239 OFFCURVE",
"165 -256 OFFCURVE",
"231 -256 CURVE SMOOTH",
"309 -256 OFFCURVE",
"384 -231 OFFCURVE",
"441 -192 CURVE SMOOTH",
"496 -154 OFFCURVE",
"533 -103 OFFCURVE",
"533 -49 CURVE SMOOTH",
"533 1 OFFCURVE",
"516 34 OFFCURVE",
"470 55 CURVE SMOOTH",
"425 76 OFFCURVE",
"354 87 OFFCURVE",
"244 87 CURVE SMOOTH",
"193 87 OFFCURVE",
"168 96 OFFCURVE",
"168 114 CURVE SMOOTH",
"168 123 OFFCURVE",
"171 131 OFFCURVE",
"178 139 CURVE",
"200 135 OFFCURVE",
"223 132 OFFCURVE",
"248 132 CURVE SMOOTH"
);
},
{
closed = 1;
nodes = (
"226 231 OFFCURVE",
"209 261 OFFCURVE",
"209 317 CURVE SMOOTH",
"209 378 OFFCURVE",
"224 408 OFFCURVE",
"253 408 CURVE SMOOTH",
"294 408 OFFCURVE",
"310 382 OFFCURVE",
"310 321 CURVE SMOOTH",
"310 258 OFFCURVE",
"295 231 OFFCURVE",
"261 231 CURVE SMOOTH"
);
},
{
closed = 1;
nodes = (
"227 -146 OFFCURVE",
"198 -125 OFFCURVE",
"198 -97 CURVE SMOOTH",
"198 -85 OFFCURVE",
"200 -75 OFFCURVE",
"203 -65 CURVE",
"204 -60 OFFCURVE",
"206 -55 OFFCURVE",
"208 -52 CURVE",
"243 -58 OFFCURVE",
"270 -62 OFFCURVE",
"290 -65 CURVE SMOOTH",
"310 -68 OFFCURVE",
"324 -71 OFFCURVE",
"333 -75 CURVE SMOOTH",
"350 -83 OFFCURVE",
"354 -87 OFFCURVE",
"354 -99 CURVE SMOOTH",
"354 -125 OFFCURVE",
"316 -146 OFFCURVE",
"269 -146 CURVE SMOOTH"
);
}
);
};
guideLines = (
{
position = "{761, 396}";
},
{
angle = 90;
position = "{15, 193}";
},
{
angle = 90;
position = "{549, 545}";
}
);
layerId = "5A1ECF60-5C3D-4C60-84B4-C69E600E0422";
paths = (
{
closed = 1;
nodes = (
"412 144 OFFCURVE",
"503 222 OFFCURVE",
"503 329 CURVE SMOOTH",
"503 359 OFFCURVE",
"477 396 OFFCURVE",
"456 429 CURVE",
"438 471 LINE",
"403 498 OFFCURVE",
"349 516 OFFCURVE",
"269 516 CURVE SMOOTH",
"105 516 OFFCURVE",
"19 445 OFFCURVE",
"17 326 CURVE SMOOTH",
"15 211 OFFCURVE",
"111 144 OFFCURVE",
"257 144 CURVE SMOOTH"
);
},
{
closed = 1;
nodes = (
"235 233 OFFCURVE",
"223 246 OFFCURVE",
"223 328 CURVE SMOOTH",
"223 408 OFFCURVE",
"235 422 OFFCURVE",
"265 422 CURVE SMOOTH",
"288 422 OFFCURVE",
"302 409 OFFCURVE",
"302 328 CURVE SMOOTH",
"302 245 OFFCURVE",
"288 233 OFFCURVE",
"261 233 CURVE SMOOTH"
);
},
{
closed = 1;
nodes = (
"-11 -48 LINE",
"32 -177 LINE",
"76 -190 OFFCURVE",
"143 -205 OFFCURVE",
"248 -205 CURVE SMOOTH",
"390 -205 OFFCURVE",
"548 -150 OFFCURVE",
"548 -29 CURVE SMOOTH",
"548 54 OFFCURVE",
"503 79 OFFCURVE",
"413 88 CURVE SMOOTH",
"231 106 LINE SMOOTH",
"209 108 OFFCURVE",
"203 116 OFFCURVE",
"215 136 CURVE SMOOTH",
"236 172 LINE",
"160 188 LINE",
"23 90 LINE",
"49 26 LINE",
"277 -14 LINE SMOOTH",
"319 -21 OFFCURVE",
"334 -30 OFFCURVE",
"334 -51 CURVE SMOOTH",
"334 -73 OFFCURVE",
"303 -82 OFFCURVE",
"255 -82 CURVE SMOOTH",
"172 -82 OFFCURVE",
"60 -40 OFFCURVE",
"26 -11 CURVE"
);
},
{
closed = 1;
nodes = (
"394 395 LINE",
"563 395 LINE",
"563 495 LINE",
"546 512 LINE",
"498 502 OFFCURVE",
"405 487 OFFCURVE",
"334 486 CURVE"
);
}
);
width = 557;
},
{
background = {
paths = (
{
closed = 1;
nodes = (
"276 159 OFFCURVE",
"327 178 OFFCURVE",
"364 212 CURVE SMOOTH",
"400 245 OFFCURVE",
"423 291 OFFCURVE",
"423 344 CURVE SMOOTH",
"423 383 OFFCURVE",
"410 418 OFFCURVE",
"382 449 CURVE",
"386 455 LINE",
"408 456 OFFCURVE",
"431 458 OFFCURVE",
"447 461 CURVE",
"457 462 OFFCURVE",
"466 463 OFFCURVE",
"475 464 CURVE",
"487 522 LINE",
"484 526 LINE",
"466 521 OFFCURVE",
"449 517 OFFCURVE",
"432 513 CURVE SMOOTH",
"402 506 OFFCURVE",
"366 498 OFFCURVE",
"340 495 CURVE",
"327 495 OFFCURVE",
"311 497 OFFCURVE",
"294 501 CURVE",
"277 504 OFFCURVE",
"258 507 OFFCURVE",
"238 507 CURVE SMOOTH",
"187 507 OFFCURVE",
"138 485 OFFCURVE",
"103 451 CURVE SMOOTH",
"67 416 OFFCURVE",
"45 371 OFFCURVE",
"45 321 CURVE SMOOTH",
"45 259 OFFCURVE",
"73 209 OFFCURVE",
"122 183 CURVE",
"122 179 LINE",
"111 173 OFFCURVE",
"101 165 OFFCURVE",
"90 158 CURVE SMOOTH",
"72 147 OFFCURVE",
"50 129 OFFCURVE",
"34 112 CURVE",
"34 87 OFFCURVE",
"47 64 OFFCURVE",
"68 46 CURVE SMOOTH",
"88 29 OFFCURVE",
"115 14 OFFCURVE",
"148 10 CURVE",
"148 4 LINE",
"134 -5 OFFCURVE",
"122 -16 OFFCURVE",
"109 -26 CURVE SMOOTH",
"87 -43 OFFCURVE",
"61 -66 OFFCURVE",
"45 -90 CURVE",
"45 -177 OFFCURVE",
"102 -228 OFFCURVE",
"202 -228 CURVE SMOOTH",
"268 -228 OFFCURVE",
"333 -205 OFFCURVE",
"381 -170 CURVE SMOOTH",
"429 -135 OFFCURVE",
"460 -90 OFFCURVE",
"460 -41 CURVE SMOOTH",
"460 -4 OFFCURVE",
"443 22 OFFCURVE",
"410 39 CURVE",
"375 56 OFFCURVE",
"318 67 OFFCURVE",
"238 71 CURVE SMOOTH",
"195 73 OFFCURVE",
"163 77 OFFCURVE",
"143 85 CURVE SMOOTH",
"124 93 OFFCURVE",
"113 106 OFFCURVE",
"113 122 CURVE SMOOTH",
"113 136 OFFCURVE",
"128 152 OFFCURVE",
"157 167 CURVE",
"179 162 OFFCURVE",
"198 159 OFFCURVE",
"217 159 CURVE SMOOTH"
);
},
{
closed = 1;
nodes = (
"171 205 OFFCURVE",
"123 259 OFFCURVE",
"123 339 CURVE SMOOTH",
"123 410 OFFCURVE",
"162 453 OFFCURVE",
"226 453 CURVE SMOOTH",
"296 453 OFFCURVE",
"345 398 OFFCURVE",
"345 318 CURVE SMOOTH",
"345 247 OFFCURVE",
"306 205 OFFCURVE",
"242 205 CURVE SMOOTH"
);
},
{
closed = 1;
nodes = (
"168 -177 OFFCURVE",
"126 -145 OFFCURVE",
"126 -92 CURVE SMOOTH",
"126 -80 OFFCURVE",
"129 -69 OFFCURVE",
"136 -57 CURVE",
"149 -36 OFFCURVE",
"165 -17 OFFCURVE",
"190 3 CURVE",
"274 -8 OFFCURVE",
"324 -17 OFFCURVE",
"355 -28 CURVE",
"384 -41 OFFCURVE",
"393 -53 OFFCURVE",
"393 -74 CURVE SMOOTH",
"393 -102 OFFCURVE",
"376 -127 OFFCURVE",
"347 -146 CURVE SMOOTH",
"318 -165 OFFCURVE",
"281 -177 OFFCURVE",
"240 -177 CURVE SMOOTH"
);
}
);
};
guideLines = (
{
position = "{133, 507}";
},
{
angle = 90;
position = "{44, 545}";
},
{
angle = 90;
position = "{466, 313}";
}
);
layerId = "1B5E7594-BD1E-41E1-80E1-0DE241437139";
paths = (
{
closed = 1;
nodes = (
"336 158 OFFCURVE",
"419 227 OFFCURVE",
"419 331 CURVE SMOOTH",
"419 386 OFFCURVE",
"393 448 OFFCURVE",
"358 461 CURVE",
"346 477 LINE",
"316 496 OFFCURVE",
"277 506 OFFCURVE",
"233 506 CURVE SMOOTH",
"126 506 OFFCURVE",
"44 436 OFFCURVE",
"44 331 CURVE SMOOTH",
"44 220 OFFCURVE",
"119 158 OFFCURVE",
"233 158 CURVE SMOOTH"
);
},
{
closed = 1;
nodes = (
"166 200 OFFCURVE",
"116 248 OFFCURVE",
"116 334 CURVE SMOOTH",
"116 412 OFFCURVE",
"172 464 OFFCURVE",
"233 464 CURVE SMOOTH",
"304 464 OFFCURVE",
"349 417 OFFCURVE",
"349 334 CURVE SMOOTH",
"349 255 OFFCURVE",
"298 202 OFFCURVE",
"233 201 CURVE SMOOTH"
);
},
{
closed = 1;
nodes = (
"19 -103 LINE",
"38 -170 LINE",
"84 -192 OFFCURVE",
"143 -204 OFFCURVE",
"204 -204 CURVE SMOOTH",
"328 -204 OFFCURVE",
"458 -154 OFFCURVE",
"458 -46 CURVE SMOOTH",
"458 5 OFFCURVE",
"415 45 OFFCURVE",
"328 56 CURVE SMOOTH",
"158 77 LINE SMOOTH",
"131 80 OFFCURVE",
"121 91 OFFCURVE",
"139 118 CURVE SMOOTH",
"187 189 LINE",
"144 199 LINE",
"45 73 LINE",
"61 41 LINE",
"328 -4 LINE SMOOTH",
"374 -12 OFFCURVE",
"395 -33 OFFCURVE",
"390 -67 CURVE SMOOTH",
"384 -110 OFFCURVE",
"321 -148 OFFCURVE",
"235 -148 CURVE SMOOTH",
"148 -148 OFFCURVE",
"89 -125 OFFCURVE",
"38 -88 CURVE"
);
},
{
closed = 1;
nodes = (
"334 447 LINE",
"467 443 LINE",
"467 497 LINE",
"458 504 LINE",
"403 493 OFFCURVE",
"357 484 OFFCURVE",
"293 482 CURVE"
);
}
);
width = 485;
},
{
associatedMasterId = "1B5E7594-BD1E-41E1-80E1-0DE241437139";
background = {
components = (
{
name = n;
transform = "{1, 0, 0, 1, -62, 0}";
}
);
};
guideLines = (
{
position = "{133, 507}";
},
{
angle = 90;
position = "{44, 545}";
},
{
angle = 90;
position = "{466, 313}";
}
);
layerId = "A3E59B41-4C32-4AFE-A3C5-3F1D053E9A2D";
name = "Mar 24 18, 09:55";
paths = (
{
closed = 1;
nodes = (
"336 158 OFFCURVE",
"419 227 OFFCURVE",
"419 331 CURVE SMOOTH",
"419 443 OFFCURVE",
"344 506 OFFCURVE",
"233 506 CURVE SMOOTH",
"126 506 OFFCURVE",
"44 436 OFFCURVE",
"44 331 CURVE SMOOTH",
"44 220 OFFCURVE",
"119 158 OFFCURVE",
"233 158 CURVE SMOOTH"
);
},
{
closed = 1;
nodes = (
"166 200 OFFCURVE",
"116 248 OFFCURVE",
"116 334 CURVE SMOOTH",
"116 412 OFFCURVE",
"172 464 OFFCURVE",
"233 464 CURVE SMOOTH",
"304 464 OFFCURVE",
"349 417 OFFCURVE",
"349 334 CURVE SMOOTH",
"349 255 OFFCURVE",
"298 202 OFFCURVE",
"233 201 CURVE SMOOTH"
);
},
{
closed = 1;
nodes = (
"23 -103 LINE",
"42 -170 LINE",
"82 -189 OFFCURVE",
"159 -202 OFFCURVE",
"249 -201 CURVE SMOOTH",
"386 -200 OFFCURVE",
"467 -125 OFFCURVE",
"467 -51 CURVE SMOOTH",
"467 22 OFFCURVE",
"409 72 OFFCURVE",
"313 73 CURVE SMOOTH",
"156 75 LINE",
"203 183 LINE",
"158 192 LINE",
"90 75 LINE",
"109 30 LINE",
"293 17 LINE SMOOTH",
"369 12 OFFCURVE",
"395 -13 OFFCURVE",
"394 -58 CURVE SMOOTH",
"392 -158 OFFCURVE",
"153 -169 OFFCURVE",
"42 -88 CURVE"
);
},
{
closed = 1;
nodes = (
"334 447 LINE",
"467 443 LINE",
"467 497 LINE",
"458 504 LINE",
"403 493 OFFCURVE",
"357 484 OFFCURVE",
"293 482 CURVE"
);
}
);
width = 485;
},
{
associatedMasterId = "1B5E7594-BD1E-41E1-80E1-0DE241437139";
background = {
paths = (
{
closed = 1;
nodes = (
"276 159 OFFCURVE",
"327 178 OFFCURVE",
"364 212 CURVE SMOOTH",
"400 245 OFFCURVE",
"423 291 OFFCURVE",
"423 344 CURVE SMOOTH",
"423 383 OFFCURVE",
"410 418 OFFCURVE",
"382 449 CURVE",
"386 455 LINE",
"408 456 OFFCURVE",
"431 458 OFFCURVE",
"447 461 CURVE",
"457 462 OFFCURVE",
"466 463 OFFCURVE",
"475 464 CURVE",
"487 522 LINE",
"484 526 LINE",
"466 521 OFFCURVE",
"449 517 OFFCURVE",
"432 513 CURVE SMOOTH",
"402 506 OFFCURVE",
"366 498 OFFCURVE",
"340 495 CURVE",
"327 495 OFFCURVE",
"311 497 OFFCURVE",
"294 501 CURVE",
"277 504 OFFCURVE",
"258 507 OFFCURVE",
"238 507 CURVE SMOOTH",
"187 507 OFFCURVE",
"138 485 OFFCURVE",
"103 451 CURVE SMOOTH",
"67 416 OFFCURVE",
"45 371 OFFCURVE",
"45 321 CURVE SMOOTH",
"45 259 OFFCURVE",
"73 209 OFFCURVE",
"122 183 CURVE",
"122 179 LINE",
"111 173 OFFCURVE",
"101 165 OFFCURVE",
"90 158 CURVE SMOOTH",
"72 147 OFFCURVE",
"50 129 OFFCURVE",
"34 112 CURVE",
"34 87 OFFCURVE",
"47 64 OFFCURVE",
"68 46 CURVE SMOOTH",
"88 29 OFFCURVE",
"115 14 OFFCURVE",
"148 10 CURVE",
"148 4 LINE",
"134 -5 OFFCURVE",
"122 -16 OFFCURVE",
"109 -26 CURVE SMOOTH",
"87 -43 OFFCURVE",
"61 -66 OFFCURVE",
"45 -90 CURVE",
"45 -177 OFFCURVE",
"102 -228 OFFCURVE",
"202 -228 CURVE SMOOTH",
"268 -228 OFFCURVE",
"333 -205 OFFCURVE",
"381 -170 CURVE SMOOTH",
"429 -135 OFFCURVE",
"460 -90 OFFCURVE",
"460 -41 CURVE SMOOTH",
"460 -4 OFFCURVE",
"443 22 OFFCURVE",
"410 39 CURVE",
"375 56 OFFCURVE",
"318 67 OFFCURVE",
"238 71 CURVE SMOOTH",
"195 73 OFFCURVE",
"163 77 OFFCURVE",
"143 85 CURVE SMOOTH",
"124 93 OFFCURVE",
"113 106 OFFCURVE",
"113 122 CURVE SMOOTH",
"113 136 OFFCURVE",
"128 152 OFFCURVE",
"157 167 CURVE",
"179 162 OFFCURVE",
"198 159 OFFCURVE",
"217 159 CURVE SMOOTH"
);
},
{
closed = 1;
nodes = (
"171 205 OFFCURVE",
"123 259 OFFCURVE",
"123 339 CURVE SMOOTH",
"123 410 OFFCURVE",
"162 453 OFFCURVE",
"226 453 CURVE SMOOTH",
"296 453 OFFCURVE",
"345 398 OFFCURVE",
"345 318 CURVE SMOOTH",
"345 247 OFFCURVE",
"306 205 OFFCURVE",
"242 205 CURVE SMOOTH"
);
},
{
closed = 1;
nodes = (
"168 -177 OFFCURVE",
"126 -145 OFFCURVE",
"126 -92 CURVE SMOOTH",
"126 -80 OFFCURVE",
"129 -69 OFFCURVE",
"136 -57 CURVE",
"149 -36 OFFCURVE",
"165 -17 OFFCURVE",
"190 3 CURVE",
"274 -8 OFFCURVE",
"324 -17 OFFCURVE",
"355 -28 CURVE",
"384 -41 OFFCURVE",
"393 -53 OFFCURVE",
"393 -74 CURVE SMOOTH",
"393 -102 OFFCURVE",
"376 -127 OFFCURVE",
"347 -146 CURVE SMOOTH",
"318 -165 OFFCURVE",
"281 -177 OFFCURVE",
"240 -177 CURVE SMOOTH"
);
}
);
};
guideLines = (
{
position = "{133, 507}";
},
{
angle = 90;
position = "{44, 545}";
},
{
angle = 90;
position = "{466, 313}";
}
);
layerId = "844B7F10-AF7C-45F9-AF10-2D4D552306D0";
name = "Mar 24 18, 10:08";
paths = (
{
closed = 1;
nodes = (
"336 158 OFFCURVE",
"419 227 OFFCURVE",
"419 331 CURVE SMOOTH",
"419 443 OFFCURVE",
"344 506 OFFCURVE",
"233 506 CURVE SMOOTH",
"126 506 OFFCURVE",
"44 436 OFFCURVE",
"44 331 CURVE SMOOTH",
"44 220 OFFCURVE",
"119 158 OFFCURVE",
"233 158 CURVE SMOOTH"
);
},
{
closed = 1;
nodes = (
"166 200 OFFCURVE",
"116 248 OFFCURVE",
"116 334 CURVE SMOOTH",
"116 412 OFFCURVE",
"172 464 OFFCURVE",
"233 464 CURVE SMOOTH",
"304 464 OFFCURVE",
"349 417 OFFCURVE",
"349 334 CURVE SMOOTH",
"349 255 OFFCURVE",
"298 202 OFFCURVE",
"233 201 CURVE SMOOTH"
);
},
{
closed = 1;
nodes = (
"29 -103 LINE",
"48 -170 LINE",
"88 -189 OFFCURVE",
"155 -202 OFFCURVE",
"238 -201 CURVE SMOOTH",
"355 -200 OFFCURVE",
"454 -139 OFFCURVE",
"455 -48 CURVE SMOOTH",
"456 51 OFFCURVE",
"332 95 OFFCURVE",
"156 79 CURVE",
"243 174 LINE",
"198 183 LINE",
"80 78 LINE",
"99 33 LINE",
"287 48 OFFCURVE",
"384 25 OFFCURVE",
"383 -49 CURVE SMOOTH",
"382 -108 OFFCURVE",
"322 -148 OFFCURVE",
"235 -148 CURVE SMOOTH",
"148 -148 OFFCURVE",
"99 -125 OFFCURVE",
"48 -88 CURVE"
);
},
{
closed = 1;
nodes = (
"334 447 LINE",
"467 443 LINE",
"467 497 LINE",
"458 504 LINE",
"403 493 OFFCURVE",
"357 484 OFFCURVE",
"293 482 CURVE"
);
}
);
width = 485;
},
{
associatedMasterId = "5A1ECF60-5C3D-4C60-84B4-C69E600E0422";
background = {
components = (
{
name = n;
transform = "{1, 0, 0, 1, -62, 0}";
}
);
};
guideLines = (
{
position = "{761, 396}";
}
);
layerId = "2144171E-733E-4D6A-B5AF-8FEE5A5C3D05";
name = "Mar 24 18, 10:14";
paths = (
{
closed = 1;
nodes = (
"412 153 OFFCURVE",
"503 231 OFFCURVE",
"503 329 CURVE SMOOTH",
"503 402 OFFCURVE",
"469 516 OFFCURVE",
"269 516 CURVE SMOOTH",
"105 516 OFFCURVE",
"19 445 OFFCURVE",
"17 326 CURVE SMOOTH",
"15 220 OFFCURVE",
"111 153 OFFCURVE",
"257 153 CURVE SMOOTH"
);
},
{
closed = 1;
nodes = (
"237 245 OFFCURVE",
"223 277 OFFCURVE",
"225 334 CURVE SMOOTH",
"227 388 OFFCURVE",
"237 421 OFFCURVE",
"267 421 CURVE SMOOTH",
"293 421 OFFCURVE",
"306 387 OFFCURVE",
"304 334 CURVE SMOOTH",
"302 276 OFFCURVE",
"290 245 OFFCURVE",
"263 245 CURVE SMOOTH"
);
},
{
closed = 1;
nodes = (
"5 -59 LINE",
"48 -186 LINE",
"92 -197 OFFCURVE",
"131 -205 OFFCURVE",
"201 -205 CURVE SMOOTH",
"358 -205 OFFCURVE",
"521 -161 OFFCURVE",
"536 -44 CURVE SMOOTH",
"547 44 OFFCURVE",
"471 138 OFFCURVE",
"239 118 CURVE",
"269 199 LINE",
"195 199 LINE",
"58 91 LINE",
"92 25 LINE",
"249 31 OFFCURVE",
"325 20 OFFCURVE",
"325 -15 CURVE SMOOTH",
"325 -48 OFFCURVE",
"301 -68 OFFCURVE",
"196 -68 CURVE SMOOTH",
"142 -68 OFFCURVE",
"70 -54 OFFCURVE",
"32 -22 CURVE"
);
},
{
closed = 1;
nodes = (
"394 395 LINE",
"563 395 LINE",
"563 495 LINE",
"546 512 LINE",
"498 502 OFFCURVE",
"405 487 OFFCURVE",
"334 486 CURVE"
);
}
);
width = 557;
}
);
unicode = 0067;
},
{
color = 1;
glyphname = h;
lastChange = "2018-03-24 17:20:12 +0000";
layers = (
{
background = {
components = (
{
name = n;
transform = "{1, 0, 0, 1, -6, 0}";
}
);
};
components = (
{
name = n_bow;
transform = "{1, 0, 0, 1, -6, 0}";
}
);
layerId = "1B5E7594-BD1E-41E1-80E1-0DE241437139";
paths = (
{
closed = 1;
nodes = (
"72 780 OFFCURVE",
"119 787 OFFCURVE",
"166 796 CURVE",
"175 790 LINE",
"171 81 LINE SMOOTH",
"171 45 OFFCURVE",
"190 31 OFFCURVE",
"261 31 CURVE",
"261 -4 LINE",
"142 0 LINE",
"25 -4 LINE",
"25 31 LINE",
"68 33 LINE SMOOTH",
"92 34 OFFCURVE",
"107 45 OFFCURVE",
"107 75 CURVE SMOOTH",
"107 692 LINE SMOOTH",
"107 714 OFFCURVE",
"99 736 OFFCURVE",
"66 739 CURVE SMOOTH",
"25 743 LINE",
"25 775 LINE"
);
}
);
width = 570;
},
{
background = {
components = (
{
name = n;
transform = "{1, 0, 0, 1, -14, 0}";
}
);
};
layerId = "5A1ECF60-5C3D-4C60-84B4-C69E600E0422";
paths = (
{
closed = 1;
nodes = (
"85 789 OFFCURVE",
"166 799 OFFCURVE",
"243 813 CURVE",
"261 796 LINE",
"260 127 LINE SMOOTH",
"260 98 OFFCURVE",
"272 93 OFFCURVE",
"296 90 CURVE",
"294 -3 LINE",
"154 0 LINE",
"4 -3 LINE",
"5 89 LINE",
"31 94 LINE SMOOTH",
"53 98 OFFCURVE",
"64 110 OFFCURVE",
"64 131 CURVE SMOOTH",
"64 652 LINE SMOOTH",
"64 675 OFFCURVE",
"49 692 OFFCURVE",
"29 694 CURVE SMOOTH",
"2 697 LINE",
"2 785 LINE"
);
},
{
closed = 1;
nodes = (
"273 484 OFFCURVE",
"345 520 OFFCURVE",
"408 520 CURVE SMOOTH",
"511 520 OFFCURVE",
"553 453 OFFCURVE",
"553 370 CURVE SMOOTH",
"552 127 LINE SMOOTH",
"552 100 OFFCURVE",
"567 91 OFFCURVE",
"584 90 CURVE SMOOTH",
"607 88 LINE",
"607 -4 LINE",
"460 0 LINE",
"322 -4 LINE",
"324 90 LINE",
"341 92 OFFCURVE",
"354 94 OFFCURVE",
"354 130 CURVE SMOOTH",
"353 309 LINE SMOOTH",
"353 372 OFFCURVE",
"318 415 OFFCURVE",
"219 332 CURVE",
"230 398 LINE"
);
}
);
width = 616;
}
);
rightMetricsKey = n;
unicode = 0068;
},
{
color = 1;
glyphname = i;
lastChange = "2018-03-22 20:00:39 +0000";
layers = (
{
background = {
components = (
{
name = n;
transform = "{1, 0, 0, 1, 21, 0}";
}
);
};
guideLines = (
{
position = "{-353, 31}";
}
);
layerId = "1B5E7594-BD1E-41E1-80E1-0DE241437139";
paths = (
{
closed = 1;
nodes = (
"165 676 OFFCURVE",
"191 702 OFFCURVE",
"191 733 CURVE SMOOTH",
"191 763 OFFCURVE",
"165 789 OFFCURVE",
"135 789 CURVE SMOOTH",
"104 789 OFFCURVE",
"78 763 OFFCURVE",
"78 733 CURVE SMOOTH",
"78 702 OFFCURVE",
"104 676 OFFCURVE",
"135 676 CURVE SMOOTH"
);
},
{
closed = 1;
nodes = (
"29 483 LINE",
"78 488 OFFCURVE",
"124 495 OFFCURVE",
"169 504 CURVE",
"178 498 LINE",
"171 76 LINE SMOOTH",
"171 46 OFFCURVE",
"186 35 OFFCURVE",
"210 34 CURVE SMOOTH",
"260 32 LINE",
"260 -4 LINE",
"143 0 LINE",
"30 -4 LINE",
"30 32 LINE",
"69 34 LINE SMOOTH",
"93 35 OFFCURVE",
"108 46 OFFCURVE",
"108 76 CURVE SMOOTH",
"108 403 LINE SMOOTH",
"108 425 OFFCURVE",
"101 444 OFFCURVE",
"68 447 CURVE SMOOTH",
"29 451 LINE"
);
}
);
width = 276;
},
{
background = {
components = (
{
name = n;
transform = "{1, 0, 0, 1, -8, 0}";
}
);
};
layerId = "5A1ECF60-5C3D-4C60-84B4-C69E600E0422";
paths = (
{
closed = 1;
nodes = (
"17 491 LINE",
"97 497 OFFCURVE",
"175 507 OFFCURVE",
"251 519 CURVE",
"276 498 LINE",
"269 128 LINE SMOOTH",
"269 107 OFFCURVE",
"285 93 OFFCURVE",
"306 91 CURVE SMOOTH",
"333 89 LINE",
"333 -3 LINE",
"169 0 LINE",
"17 -3 LINE",
"17 89 LINE",
"45 93 LINE SMOOTH",
"65 96 OFFCURVE",
"75 108 OFFCURVE",
"75 128 CURVE SMOOTH",
"75 363 LINE SMOOTH",
"75 384 OFFCURVE",
"63 400 OFFCURVE",
"44 403 CURVE SMOOTH",
"17 407 LINE"
);
},
{
closed = 1;
nodes = (
"231 599 OFFCURVE",
"282 650 OFFCURVE",
"282 712 CURVE SMOOTH",
"282 773 OFFCURVE",
"231 824 OFFCURVE",
"170 824 CURVE SMOOTH",
"108 824 OFFCURVE",
"57 773 OFFCURVE",
"57 712 CURVE SMOOTH",
"57 650 OFFCURVE",
"108 599 OFFCURVE",
"170 599 CURVE SMOOTH"
);
}
);
width = 338;
}
);
leftMetricsKey = n;
unicode = 0069;
},
{
color = 1;
glyphname = j;
lastChange = "2018-03-24 09:38:05 +0000";
layers = (
{
background = {
components = (
{
name = n;
transform = "{1, 0, 0, 1, -2, 0}";
}
);
};
layerId = "1B5E7594-BD1E-41E1-80E1-0DE241437139";
paths = (
{
closed = 1;
nodes = (
"173 135 LINE",
"163 0 OFFCURVE",
"151 -52 OFFCURVE",
"79 -178 CURVE",
"48 -160 LINE",
"93 -37 OFFCURVE",
"107 29 OFFCURVE",
"108 163 CURVE SMOOTH",
"109 405 LINE SMOOTH",
"109 428 OFFCURVE",
"97 445 OFFCURVE",
"74 447 CURVE SMOOTH",
"27 451 LINE",
"27 483 LINE",
"73 488 OFFCURVE",
"124 495 OFFCURVE",
"170 504 CURVE",
"179 498 LINE"
);
},
{
closed = 1;
nodes = (
"160 680 OFFCURVE",
"187 707 OFFCURVE",
"187 738 CURVE SMOOTH",
"187 768 OFFCURVE",
"160 795 OFFCURVE",
"130 795 CURVE SMOOTH",
"99 795 OFFCURVE",
"72 768 OFFCURVE",
"72 738 CURVE SMOOTH",
"72 707 OFFCURVE",
"99 680 OFFCURVE",
"130 680 CURVE SMOOTH"
);
}
);
width = 249;
},
{
background = {
components = (
{
name = u;
transform = "{1, 0, 0, 1, 4, 0}";
}
);
};
layerId = "5A1ECF60-5C3D-4C60-84B4-C69E600E0422";
paths = (
{
closed = 1;
nodes = (
"260 36 LINE",
"228 -44 OFFCURVE",
"171 -130 OFFCURVE",
"102 -184 CURVE",
"12 -139 LINE",
"49 -73 OFFCURVE",
"67 14 OFFCURVE",
"67 103 CURVE SMOOTH",
"67 354 LINE SMOOTH",
"67 381 OFFCURVE",
"57 399 OFFCURVE",
"29 401 CURVE SMOOTH",
"5 403 LINE",
"5 495 LINE",
"78 499 OFFCURVE",
"159 509 OFFCURVE",
"234 523 CURVE",
"260 500 LINE"
);
},
{
closed = 1;
nodes = (
"216 599 OFFCURVE",
"267 650 OFFCURVE",
"267 712 CURVE SMOOTH",
"267 773 OFFCURVE",
"216 824 OFFCURVE",
"155 824 CURVE SMOOTH",
"93 824 OFFCURVE",
"42 773 OFFCURVE",
"42 712 CURVE SMOOTH",
"42 650 OFFCURVE",
"93 599 OFFCURVE",
"155 599 CURVE SMOOTH"
);
}
);
width = 310;
}
);
unicode = 006A;
},
{
color = 1;
glyphname = k;
lastChange = "2018-03-24 18:45:20 +0000";
layers = (
{
background = {
components = (
{
name = a;
transform = "{1, 0, 0, 1, 48, 0}";
}
);
};
backgroundImage = {
crop = "{{0, 0}, {2884, 452}}";
imagePath = ../../../../Desktop/399e0d742084ac6ec50ea38fc76418.gif;
locked = "1";
transform = "{2, 0, 0, 2, -2112, -194}";
};
components = (
{
name = l;
}
);
layerId = "1B5E7594-BD1E-41E1-80E1-0DE241437139";
paths = (
{
closed = 1;
nodes = (
"291 303 LINE",
"440 68 LINE SMOOTH",
"452 49 OFFCURVE",
"463 50 OFFCURVE",
"482 54 CURVE SMOOTH",
"527 64 LINE",
"532 53 LINE",
"513 0 LINE",
"423 -22 OFFCURVE",
"392 13 OFFCURVE",
"366 58 CURVE SMOOTH",
"253 257 LINE"
);
},
{
closed = 1;
nodes = (
"405 497 LINE",
"505 500 LINE",
"505 463 LINE",
"464 457 OFFCURVE",
"448 445 OFFCURVE",
"416 411 CURVE SMOOTH",
"163 148 LINE",
"148 193 LINE",
"357 417 LINE SMOOTH",
"376 438 OFFCURVE",
"370 458 OFFCURVE",
"339 459 CURVE SMOOTH",
"289 461 LINE",
"289 497 LINE"
);
}
);
width = 562;
},
{
background = {
components = (
{
name = t;
transform = "{1, 0, 0, 1, 299, 0}";
}
);
};
components = (
{
name = l;
transform = "{1, 0, 0, 1, -9, 0}";
}
);
guideLines = (
{
angle = 90;
position = "{600, 339}";
}
);
layerId = "5A1ECF60-5C3D-4C60-84B4-C69E600E0422";
paths = (
{
closed = 1;
nodes = (
"433 325 LINE",
"532 153 LINE SMOOTH",
"543 134 OFFCURVE",
"554 123 OFFCURVE",
"575 127 CURVE SMOOTH",
"614 135 LINE",
"628 113 LINE",
"583 1 LINE",
"402 -40 OFFCURVE",
"357 25 OFFCURVE",
"330 113 CURVE SMOOTH",
"298 216 LINE"
);
},
{
closed = 1;
nodes = (
"444 500 LINE",
"584 503 LINE",
"584 416 LINE",
"544 402 OFFCURVE",
"508 382 OFFCURVE",
"478 354 CURVE SMOOTH",
"240 137 LINE",
"225 231 LINE",
"334 335 LINE SMOOTH",
"369 369 OFFCURVE",
"358 399 OFFCURVE",
"329 403 CURVE SMOOTH",
"303 407 LINE",
"303 503 LINE"
);
}
);
width = 632;
},
{
associatedMasterId = "1B5E7594-BD1E-41E1-80E1-0DE241437139";
background = {
components = (
{
name = a;
transform = "{1, 0, 0, 1, 48, 0}";
}
);
};
components = (
{
name = l;
}
);
layerId = "72A34C5F-BD73-4A46-87C5-32AC6C5140B7";
name = "Mar 24 18, 18:44";
paths = (
{
closed = 1;
nodes = (
"320 332 LINE",
"448 68 LINE SMOOTH",
"457 49 OFFCURVE",
"471 50 OFFCURVE",
"490 54 CURVE SMOOTH",
"535 64 LINE",
"540 53 LINE",
"521 0 LINE",
"431 -22 OFFCURVE",
"408 11 OFFCURVE",
"385 58 CURVE SMOOTH",
"273 286 LINE"
);
},
{
closed = 1;
nodes = (
"405 497 LINE",
"505 500 LINE",
"505 463 LINE",
"464 457 OFFCURVE",
"448 445 OFFCURVE",
"416 411 CURVE SMOOTH",
"163 148 LINE",
"148 193 LINE",
"357 417 LINE SMOOTH",
"376 438 OFFCURVE",
"370 458 OFFCURVE",
"339 459 CURVE SMOOTH",
"289 461 LINE",
"289 497 LINE"
);
}
);
width = 562;
}
);
unicode = 006B;
},
{
color = 1;
glyphname = l;
lastChange = "2018-03-24 09:22:05 +0000";
layers = (
{
background = {
components = (
{
name = n;
transform = "{1, 0, 0, 1, 22, 292}";
}
);
};
layerId = "1B5E7594-BD1E-41E1-80E1-0DE241437139";
paths = (
{
closed = 1;
nodes = (
"27 775 LINE",
"74 780 OFFCURVE",
"123 787 OFFCURVE",
"170 796 CURVE",
"179 790 LINE",
"171 71 LINE SMOOTH",
"171 47 OFFCURVE",
"187 34 OFFCURVE",
"214 33 CURVE SMOOTH",
"261 31 LINE",
"261 -4 LINE",
"142 0 LINE",
"27 -4 LINE",
"27 31 LINE",
"70 33 LINE SMOOTH",
"94 34 OFFCURVE",
"109 45 OFFCURVE",
"109 75 CURVE SMOOTH",
"109 694 LINE SMOOTH",
"109 716 OFFCURVE",
"101 736 OFFCURVE",
"68 739 CURVE SMOOTH",
"27 743 LINE"
);
}
);
width = 280;
},
{
background = {
components = (
{
name = i;
transform = "{1, 0, 0, 1, -19, 0}";
}
);
};
layerId = "5A1ECF60-5C3D-4C60-84B4-C69E600E0422";
paths = (
{
closed = 1;
nodes = (
"0 785 LINE",
"80 789 OFFCURVE",
"166 798 OFFCURVE",
"246 813 CURVE",
"264 796 LINE",
"259 135 LINE SMOOTH",
"259 112 OFFCURVE",
"271 98 OFFCURVE",
"293 94 CURVE SMOOTH",
"317 90 LINE",
"315 -3 LINE",
"154 0 LINE",
"4 -3 LINE",
"5 89 LINE",
"33 94 LINE SMOOTH",
"55 98 OFFCURVE",
"66 110 OFFCURVE",
"66 131 CURVE SMOOTH",
"62 651 LINE SMOOTH",
"62 674 OFFCURVE",
"47 691 OFFCURVE",
"27 693 CURVE SMOOTH",
"0 696 LINE"
);
}
);
width = 324;
}
);
unicode = 006C;
},
{
glyphname = m;
lastChange = "2018-03-24 18:21:43 +0000";
layers = (
{
components = (
{
name = n_bow;
transform = "{1, 0, 0, 1, 280, 0}";
}
);
guideLines = (
{
position = "{619, 453}";
}
);
layerId = "1B5E7594-BD1E-41E1-80E1-0DE241437139";
paths = (
{
closed = 1;
nodes = (
"87 483 OFFCURVE",
"121 494 OFFCURVE",
"167 506 CURVE",
"176 500 LINE",
"176 428 LINE",
"179 410 LINE",
"179 80 LINE SMOOTH",
"179 43 OFFCURVE",
"189 34 OFFCURVE",
"265 31 CURVE",
"265 -4 LINE",
"147 0 LINE",
"29 -4 LINE",
"29 31 LINE",
"68 33 LINE SMOOTH",
"97 34 OFFCURVE",
"109 47 OFFCURVE",
"109 74 CURVE SMOOTH",
"111 384 LINE SMOOTH",
"111 406 OFFCURVE",
"110 436 OFFCURVE",
"77 439 CURVE SMOOTH",
"29 443 LINE",
"29 471 LINE"
);
},
{
closed = 1;
nodes = (
"207 466 OFFCURVE",
"262 508 OFFCURVE",
"343 508 CURVE SMOOTH",
"426 508 OFFCURVE",
"482 453 OFFCURVE",
"481 360 CURVE SMOOTH",
"479 69 LINE SMOOTH",
"479 46 OFFCURVE",
"495 34 OFFCURVE",
"517 33 CURVE SMOOTH",
"565 31 LINE",
"565 -4 LINE",
"452 0 LINE",
"329 -4 LINE",
"329 31 LINE",
"403 34 OFFCURVE",
"415 45 OFFCURVE",
"415 82 CURVE SMOOTH",
"415 363 LINE SMOOTH",
"415 440 OFFCURVE",
"341 505 OFFCURVE",
"151 388 CURVE",
"155 420 LINE"
);
}
);
width = 847;
},
{
layerId = "5A1ECF60-5C3D-4C60-84B4-C69E600E0422";
paths = (
{
closed = 1;
nodes = (
"17 492 LINE",
"97 496 OFFCURVE",
"174 506 OFFCURVE",
"248 520 CURVE",
"266 503 LINE",
"265 432 LINE",
"272 401 LINE",
"268 127 LINE SMOOTH",
"268 98 OFFCURVE",
"278 93 OFFCURVE",
"302 90 CURVE",
"300 -3 LINE",
"165 0 LINE",
"17 -3 LINE",
"18 89 LINE",
"44 94 LINE SMOOTH",
"66 98 OFFCURVE",
"75 110 OFFCURVE",
"75 131 CURVE SMOOTH",
"75 359 LINE SMOOTH",
"75 382 OFFCURVE",
"64 399 OFFCURVE",
"44 401 CURVE SMOOTH",
"17 404 LINE"
);
},
{
closed = 1;
nodes = (
"566 480 OFFCURVE",
"634 520 OFFCURVE",
"697 520 CURVE SMOOTH",
"800 520 OFFCURVE",
"842 453 OFFCURVE",
"842 370 CURVE SMOOTH",
"841 127 LINE SMOOTH",
"841 100 OFFCURVE",
"856 91 OFFCURVE",
"873 90 CURVE SMOOTH",
"896 88 LINE",
"896 -4 LINE",
"749 0 LINE",
"611 -4 LINE",
"613 90 LINE",
"630 92 OFFCURVE",
"643 94 OFFCURVE",
"643 130 CURVE SMOOTH",
"642 309 LINE SMOOTH",
"642 372 OFFCURVE",
"607 411 OFFCURVE",
"508 328 CURVE",
"523 394 LINE"
);
},
{
closed = 1;
nodes = (
"278 482 OFFCURVE",
"346 520 OFFCURVE",
"409 520 CURVE SMOOTH",
"512 520 OFFCURVE",
"554 453 OFFCURVE",
"554 370 CURVE SMOOTH",
"553 127 LINE SMOOTH",
"553 100 OFFCURVE",
"561 93 OFFCURVE",
"579 90 CURVE SMOOTH",
"590 88 LINE",
"590 -4 LINE",
"461 0 LINE",
"323 -4 LINE",
"325 90 LINE",
"342 92 OFFCURVE",
"357 94 OFFCURVE",
"357 130 CURVE SMOOTH",
"355 309 LINE SMOOTH",
"354 372 OFFCURVE",
"319 413 OFFCURVE",
"220 330 CURVE",
"235 396 LINE"
);
}
);
width = 909;
},
{
associatedMasterId = "5A1ECF60-5C3D-4C60-84B4-C69E600E0422";
layerId = "CE586258-A461-475E-B3E6-05EB68AC5D90";
name = "Mar 22 18, 19:00";
paths = (
{
closed = 1;
nodes = (
"17 492 LINE",
"97 496 OFFCURVE",
"174 506 OFFCURVE",
"248 520 CURVE",
"266 503 LINE",
"265 432 LINE",
"272 401 LINE",
"268 127 LINE SMOOTH",
"268 98 OFFCURVE",
"278 93 OFFCURVE",
"302 90 CURVE",
"300 -3 LINE",
"165 0 LINE",
"17 -3 LINE",
"18 89 LINE",
"44 94 LINE SMOOTH",
"66 98 OFFCURVE",
"75 110 OFFCURVE",
"75 131 CURVE SMOOTH",
"75 359 LINE SMOOTH",
"75 382 OFFCURVE",
"64 399 OFFCURVE",
"44 401 CURVE SMOOTH",
"17 404 LINE"
);
},
{
closed = 1;
nodes = (
"387 549 OFFCURVE",
"555 559 OFFCURVE",
"554 408 CURVE SMOOTH",
"553 127 LINE SMOOTH",
"553 96 OFFCURVE",
"564 90 OFFCURVE",
"590 88 CURVE",
"590 -4 LINE",
"461 0 LINE",
"324 -4 LINE",
"326 90 LINE",
"343 92 OFFCURVE",
"359 94 OFFCURVE",
"358 130 CURVE SMOOTH",
"354 319 LINE",
"354 382 OFFCURVE",
"332 411 OFFCURVE",
"208 338 CURVE",
"193 398 LINE"
);
},
{
closed = 1;
nodes = (
"673 549 OFFCURVE",
"841 559 OFFCURVE",
"840 408 CURVE SMOOTH",
"839 127 LINE SMOOTH",
"839 100 OFFCURVE",
"854 91 OFFCURVE",
"871 90 CURVE SMOOTH",
"894 88 LINE",
"894 -4 LINE",
"747 0 LINE",
"612 -4 LINE",
"614 90 LINE",
"631 92 OFFCURVE",
"644 94 OFFCURVE",
"644 130 CURVE SMOOTH",
"642 319 LINE SMOOTH",
"641 382 OFFCURVE",
"618 411 OFFCURVE",
"494 338 CURVE",
"479 398 LINE"
);
}
);
width = 909;
},
{
associatedMasterId = "1B5E7594-BD1E-41E1-80E1-0DE241437139";
background = {
components = (
{
name = I;
transform = "{1, 0, 0, 1, -14, 0}";
}
);
};
layerId = "161FB93C-44D1-4D20-AA25-5497D2E877BF";
name = "Mar 22 18, 19:01";
paths = (
{
closed = 1;
nodes = (
"29 483 LINE",
"77 488 OFFCURVE",
"122 495 OFFCURVE",
"168 504 CURVE",
"177 498 LINE",
"177 436 LINE",
"179 418 LINE",
"178 76 LINE SMOOTH",
"178 45 OFFCURVE",
"185 35 OFFCURVE",
"265 32 CURVE",
"265 -4 LINE",
"147 0 LINE",
"29 -4 LINE",
"29 32 LINE",
"69 34 LINE SMOOTH",
"98 35 OFFCURVE",
"110 48 OFFCURVE",
"110 75 CURVE SMOOTH",
"111 397 LINE SMOOTH",
"111 419 OFFCURVE",
"106 444 OFFCURVE",
"73 447 CURVE SMOOTH",
"29 451 LINE"
);
},
{
closed = 1;
nodes = (
"304 533 OFFCURVE",
"465 555 OFFCURVE",
"464 360 CURVE SMOOTH",
"462 80 LINE SMOOTH",
"462 43 OFFCURVE",
"473 35 OFFCURVE",
"548 32 CURVE",
"548 -4 LINE",
"435 0 LINE",
"312 -4 LINE",
"312 32 LINE",
"386 33 OFFCURVE",
"398 42 OFFCURVE",
"398 86 CURVE SMOOTH",
"398 339 LINE SMOOTH",
"398 458 OFFCURVE",
"347 476 OFFCURVE",
"157 396 CURVE",
"151 428 LINE"
);
},
{
closed = 1;
nodes = (
"587 533 OFFCURVE",
"748 555 OFFCURVE",
"747 360 CURVE SMOOTH",
"745 70 LINE SMOOTH",
"745 47 OFFCURVE",
"761 35 OFFCURVE",
"783 34 CURVE SMOOTH",
"831 32 LINE",
"831 -4 LINE",
"718 0 LINE",
"595 -4 LINE",
"595 32 LINE",
"674 35 OFFCURVE",
"681 44 OFFCURVE",
"681 76 CURVE SMOOTH",
"681 339 LINE SMOOTH",
"681 458 OFFCURVE",
"630 476 OFFCURVE",
"440 396 CURVE",
"434 428 LINE"
);
}
);
width = 847;
},
{
associatedMasterId = "1B5E7594-BD1E-41E1-80E1-0DE241437139";
layerId = "60E3E46C-8685-46E3-BFD4-85A85114F60B";
name = "Mar 24 18, 18:21";
paths = (
{
closed = 1;
nodes = (
"29 483 LINE",
"77 488 OFFCURVE",
"122 495 OFFCURVE",
"168 504 CURVE",
"177 498 LINE",
"177 436 LINE",
"179 418 LINE",
"178 76 LINE SMOOTH",
"178 45 OFFCURVE",
"185 35 OFFCURVE",
"265 32 CURVE",
"265 -4 LINE",
"147 0 LINE",
"29 -4 LINE",
"29 32 LINE",
"69 34 LINE SMOOTH",
"98 35 OFFCURVE",
"110 48 OFFCURVE",
"110 75 CURVE SMOOTH",
"111 397 LINE SMOOTH",
"111 419 OFFCURVE",
"106 444 OFFCURVE",
"73 447 CURVE SMOOTH",
"29 451 LINE"
);
},
{
closed = 1;
nodes = (
"475 463 OFFCURVE",
"539 507 OFFCURVE",
"620 507 CURVE SMOOTH",
"691 507 OFFCURVE",
"748 465 OFFCURVE",
"747 360 CURVE SMOOTH",
"745 69 LINE SMOOTH",
"745 46 OFFCURVE",
"761 34 OFFCURVE",
"783 33 CURVE SMOOTH",
"831 31 LINE",
"831 -4 LINE",
"718 0 LINE",
"595 -4 LINE",
"595 31 LINE",
"669 34 OFFCURVE",
"681 45 OFFCURVE",
"681 82 CURVE SMOOTH",
"681 363 LINE SMOOTH",
"681 440 OFFCURVE",
"610 511 OFFCURVE",
"429 385 CURVE",
"423 417 LINE"
);
},
{
closed = 1;
nodes = (
"191 455 OFFCURVE",
"254 507 OFFCURVE",
"335 507 CURVE SMOOTH",
"406 507 OFFCURVE",
"463 465 OFFCURVE",
"462 360 CURVE SMOOTH",
"460 69 LINE SMOOTH",
"460 46 OFFCURVE",
"476 34 OFFCURVE",
"498 33 CURVE SMOOTH",
"546 31 LINE",
"546 -4 LINE",
"433 0 LINE",
"310 -4 LINE",
"310 31 LINE",
"384 34 OFFCURVE",
"396 45 OFFCURVE",
"396 82 CURVE SMOOTH",
"396 363 LINE SMOOTH",
"396 440 OFFCURVE",
"325 509 OFFCURVE",
"144 383 CURVE",
"139 409 LINE"
);
}
);
width = 847;
}
);
leftMetricsKey = n;
rightMetricsKey = n;
unicode = 006D;
},
{
color = 1;
glyphname = n;
lastChange = "2018-03-24 18:35:57 +0000";
layers = (
{
background = {
components = (
{
name = p;
transform = "{1, 0, 0, 1, 9, 0}";
}
);
};
components = (
{
name = n_bow;
}
);
guideLines = (
{
position = "{851, 428}";
},
{
angle = 71;
position = "{639, 174}";
},
{
position = "{911, 515}";
}
);
layerId = "5A1ECF60-5C3D-4C60-84B4-C69E600E0422";
paths = (
{
closed = 1;
nodes = (
"100 496 OFFCURVE",
"177 506 OFFCURVE",
"251 520 CURVE",
"269 503 LINE",
"268 432 LINE",
"275 401 LINE",
"274 127 LINE SMOOTH",
"274 98 OFFCURVE",
"286 93 OFFCURVE",
"310 90 CURVE",
"308 -3 LINE",
"168 0 LINE",
"20 -3 LINE",
"21 89 LINE",
"47 94 LINE SMOOTH",
"69 98 OFFCURVE",
"78 110 OFFCURVE",
"78 131 CURVE SMOOTH",
"78 359 LINE SMOOTH",
"78 382 OFFCURVE",
"67 399 OFFCURVE",
"47 401 CURVE SMOOTH",
"20 404 LINE",
"20 492 LINE"
);
}
);
width = 622;
},
{
background = {
components = (
{
name = i;
transform = "{1, 0, 0, 1, 301, 0}";
}
);
};
backgroundImage = {
crop = "{{0, 0}, {2884, 452}}";
imagePath = ../../../../Desktop/399e0d742084ac6ec50ea38fc76418.gif;
locked = "1";
transform = "{2, 0, 0, 2, -3065, -194}";
};
components = (
{
name = n_bow;
}
);
guideLines = (
{
position = "{85, 509}";
}
);
layerId = "1B5E7594-BD1E-41E1-80E1-0DE241437139";
paths = (
{
closed = 1;
nodes = (
"87 483 OFFCURVE",
"121 494 OFFCURVE",
"167 506 CURVE",
"176 500 LINE",
"176 428 LINE",
"179 410 LINE",
"179 80 LINE SMOOTH",
"179 43 OFFCURVE",
"189 34 OFFCURVE",
"265 31 CURVE",
"265 -4 LINE",
"147 0 LINE",
"29 -4 LINE",
"29 31 LINE",
"68 33 LINE SMOOTH",
"97 34 OFFCURVE",
"109 47 OFFCURVE",
"109 74 CURVE SMOOTH",
"111 384 LINE SMOOTH",
"111 406 OFFCURVE",
"110 436 OFFCURVE",
"77 439 CURVE SMOOTH",
"29 443 LINE",
"29 471 LINE"
);
}
);
width = 576;
},
{
associatedMasterId = "1B5E7594-BD1E-41E1-80E1-0DE241437139";
background = {
components = (
{
name = p;
transform = "{1, 0, 0, 1, 20, 0}";
}
);
};
guideLines = (
{
position = "{85, 509}";
}
);
layerId = "7CB3E3CD-98EF-4B4D-8995-BA174603F5BC";
name = "Mar 22 18, 18:53";
paths = (
{
closed = 1;
nodes = (
"77 488 OFFCURVE",
"121 495 OFFCURVE",
"167 504 CURVE",
"176 498 LINE",
"176 428 LINE",
"179 410 LINE",
"179 80 LINE SMOOTH",
"179 43 OFFCURVE",
"189 34 OFFCURVE",
"265 31 CURVE",
"265 -4 LINE",
"147 0 LINE",
"29 -4 LINE",
"29 31 LINE",
"68 33 LINE SMOOTH",
"97 34 OFFCURVE",
"109 47 OFFCURVE",
"109 74 CURVE SMOOTH",
"111 396 LINE SMOOTH",
"111 418 OFFCURVE",
"106 443 OFFCURVE",
"73 446 CURVE SMOOTH",
"29 450 LINE",
"29 483 LINE"
);
},
{
closed = 1;
nodes = (
"316 533 OFFCURVE",
"477 555 OFFCURVE",
"476 360 CURVE SMOOTH",
"474 69 LINE SMOOTH",
"474 46 OFFCURVE",
"490 34 OFFCURVE",
"512 33 CURVE SMOOTH",
"560 31 LINE",
"560 -4 LINE",
"447 0 LINE",
"324 -4 LINE",
"324 31 LINE",
"398 34 OFFCURVE",
"410 45 OFFCURVE",
"410 82 CURVE SMOOTH",
"410 339 LINE SMOOTH",
"410 458 OFFCURVE",
"359 476 OFFCURVE",
"169 396 CURVE",
"163 428 LINE"
);
}
);
width = 576;
},
{
associatedMasterId = "5A1ECF60-5C3D-4C60-84B4-C69E600E0422";
background = {
components = (
{
name = p;
transform = "{1, 0, 0, 1, 9, 0}";
}
);
};
guideLines = (
{
position = "{851, 428}";
},
{
angle = 71;
position = "{639, 174}";
},
{
position = "{911, 515}";
}
);
layerId = "E50B2AD7-6AE8-421B-A2EB-50705AFAFDEA";
name = "Mar 22 18, 18:57";
paths = (
{
closed = 1;
nodes = (
"100 496 OFFCURVE",
"177 506 OFFCURVE",
"251 520 CURVE",
"269 503 LINE",
"268 432 LINE",
"275 401 LINE",
"274 127 LINE SMOOTH",
"274 98 OFFCURVE",
"286 93 OFFCURVE",
"310 90 CURVE",
"308 -3 LINE",
"168 0 LINE",
"20 -3 LINE",
"21 89 LINE",
"47 94 LINE SMOOTH",
"69 98 OFFCURVE",
"78 110 OFFCURVE",
"78 131 CURVE SMOOTH",
"78 359 LINE SMOOTH",
"78 382 OFFCURVE",
"67 399 OFFCURVE",
"47 401 CURVE SMOOTH",
"20 404 LINE",
"20 492 LINE"
);
},
{
closed = 1;
nodes = (
"390 549 OFFCURVE",
"562 559 OFFCURVE",
"561 408 CURVE SMOOTH",
"560 127 LINE SMOOTH",
"560 100 OFFCURVE",
"575 91 OFFCURVE",
"592 90 CURVE SMOOTH",
"615 88 LINE",
"615 -4 LINE",
"468 0 LINE",
"330 -4 LINE",
"332 90 LINE",
"349 92 OFFCURVE",
"362 94 OFFCURVE",
"362 130 CURVE SMOOTH",
"361 319 LINE",
"361 382 OFFCURVE",
"335 411 OFFCURVE",
"211 338 CURVE",
"196 398 LINE"
);
}
);
width = 622;
}
);
unicode = 006E;
},
{
glyphname = n_bow;
lastChange = "2018-03-24 17:19:31 +0000";
layers = (
{
layerId = "1B5E7594-BD1E-41E1-80E1-0DE241437139";
paths = (
{
closed = 1;
nodes = (
"215 472 OFFCURVE",
"280 508 OFFCURVE",
"361 508 CURVE SMOOTH",
"444 508 OFFCURVE",
"500 453 OFFCURVE",
"499 360 CURVE SMOOTH",
"497 69 LINE SMOOTH",
"497 46 OFFCURVE",
"513 34 OFFCURVE",
"535 33 CURVE SMOOTH",
"583 31 LINE",
"583 -4 LINE",
"470 0 LINE",
"347 -4 LINE",
"347 31 LINE",
"421 34 OFFCURVE",
"433 45 OFFCURVE",
"433 82 CURVE SMOOTH",
"433 363 LINE SMOOTH",
"433 440 OFFCURVE",
"352 505 OFFCURVE",
"159 394 CURVE",
"163 426 LINE"
);
}
);
width = 576;
},
{
layerId = "5A1ECF60-5C3D-4C60-84B4-C69E600E0422";
paths = (
{
closed = 1;
nodes = (
"287 484 OFFCURVE",
"359 520 OFFCURVE",
"422 520 CURVE SMOOTH",
"525 520 OFFCURVE",
"567 453 OFFCURVE",
"567 370 CURVE SMOOTH",
"566 127 LINE SMOOTH",
"566 100 OFFCURVE",
"581 91 OFFCURVE",
"598 90 CURVE SMOOTH",
"621 88 LINE",
"621 -4 LINE",
"474 0 LINE",
"336 -4 LINE",
"338 90 LINE",
"355 92 OFFCURVE",
"368 94 OFFCURVE",
"368 130 CURVE SMOOTH",
"367 309 LINE SMOOTH",
"367 372 OFFCURVE",
"332 415 OFFCURVE",
"233 332 CURVE",
"244 398 LINE"
);
}
);
width = 622;
}
);
},
{
color = 1;
glyphname = o;
lastChange = "2018-03-24 17:20:32 +0000";
layers = (
{
background = {
components = (
{
name = n;
transform = "{1, 0, 0, 1, -54, 0}";
}
);
};
guideLines = (
{
position = "{865, 505}";
}
);
layerId = "1B5E7594-BD1E-41E1-80E1-0DE241437139";
paths = (
{
closed = 1;
nodes = (
"386 -14 OFFCURVE",
"482 95 OFFCURVE",
"483 257 CURVE SMOOTH",
"484 402 OFFCURVE",
"387 511 OFFCURVE",
"250 511 CURVE SMOOTH",
"112 511 OFFCURVE",
"16 402 OFFCURVE",
"15 257 CURVE SMOOTH",
"14 95 OFFCURVE",
"107 -14 OFFCURVE",
"248 -14 CURVE SMOOTH"
);
},
{
closed = 1;
nodes = (
"134 31 OFFCURVE",
"94 138 OFFCURVE",
"94 257 CURVE SMOOTH",
"94 261 OFFCURVE",
"94 264 OFFCURVE",
"94 268 CURVE SMOOTH",
"97 363 OFFCURVE",
"143 466 OFFCURVE",
"250 466 CURVE SMOOTH",
"360 466 OFFCURVE",
"406 371 OFFCURVE",
"406 269 CURVE SMOOTH",
"406 265 OFFCURVE",
"406 261 OFFCURVE",
"406 257 CURVE SMOOTH",
"406 138 OFFCURVE",
"363 31 OFFCURVE",
"248 31 CURVE SMOOTH"
);
}
);
width = 495;
},
{
background = {
paths = (
{
closed = 1;
nodes = (
"461 -13 OFFCURVE",
"558 79 OFFCURVE",
"560 259 CURVE SMOOTH",
"562 431 OFFCURVE",
"470 519 OFFCURVE",
"290 518 CURVE SMOOTH",
"111 517 OFFCURVE",
"19 428 OFFCURVE",
"19 259 CURVE SMOOTH",
"19 79 OFFCURVE",
"107 -13 OFFCURVE",
"286 -13 CURVE SMOOTH"
);
},
{
closed = 1;
nodes = (
"329 419 OFFCURVE",
"336 395 OFFCURVE",
"336 369 CURVE SMOOTH",
"336 345 OFFCURVE",
"336 162 OFFCURVE",
"336 149 CURVE SMOOTH",
"336 115 OFFCURVE",
"328 80 OFFCURVE",
"289 80 CURVE SMOOTH",
"249 80 OFFCURVE",
"243 115 OFFCURVE",
"243 149 CURVE SMOOTH",
"243 163 OFFCURVE",
"243 346 OFFCURVE",
"243 369 CURVE SMOOTH",
"243 395 OFFCURVE",
"248 419 OFFCURVE",
"289 419 CURVE SMOOTH"
);
}
);
};
guideLines = (
{
position = "{994, 517}";
},
{
position = "{999, 421}";
}
);
layerId = "5A1ECF60-5C3D-4C60-84B4-C69E600E0422";
paths = (
{
closed = 1;
nodes = (
"461 -13 OFFCURVE",
"558 79 OFFCURVE",
"560 259 CURVE SMOOTH",
"562 431 OFFCURVE",
"470 519 OFFCURVE",
"290 518 CURVE SMOOTH",
"111 517 OFFCURVE",
"19 428 OFFCURVE",
"19 259 CURVE SMOOTH",
"19 79 OFFCURVE",
"107 -13 OFFCURVE",
"286 -13 CURVE SMOOTH"
);
},
{
closed = 1;
nodes = (
"250 81 OFFCURVE",
"243 121 OFFCURVE",
"243 147 CURVE SMOOTH",
"243 221 OFFCURVE",
"243 288 OFFCURVE",
"243 351 CURVE SMOOTH",
"243 385 OFFCURVE",
"251 420 OFFCURVE",
"290 420 CURVE SMOOTH",
"330 420 OFFCURVE",
"336 385 OFFCURVE",
"336 351 CURVE SMOOTH",
"336 287 OFFCURVE",
"336 220 OFFCURVE",
"336 147 CURVE SMOOTH",
"336 121 OFFCURVE",
"331 81 OFFCURVE",
"290 81 CURVE SMOOTH"
);
}
);
width = 580;
}
);
unicode = 006F;
},
{
color = 1;
glyphname = p;
lastChange = "2018-03-24 18:43:02 +0000";
layers = (
{
background = {
components = (
{
name = n;
transform = "{1, 0, 0, 1, -20, 0}";
}
);
};
components = (
{
name = _part_bowl;
transform = "{1, 0, 0, 1, 1, 0}";
}
);
guideLines = (
{
position = "{834, -183}";
},
{
position = "{164, 446}";
},
{
position = "{-451, -11}";
},
{
position = "{162, 511}";
}
);
layerId = "1B5E7594-BD1E-41E1-80E1-0DE241437139";
paths = (
{
closed = 1;
nodes = (
"67 483 OFFCURVE",
"101 494 OFFCURVE",
"147 506 CURVE",
"156 500 LINE",
"156 428 LINE",
"159 410 LINE",
"159 -117 LINE SMOOTH",
"159 -154 OFFCURVE",
"169 -163 OFFCURVE",
"245 -166 CURVE",
"245 -201 LINE",
"127 -197 LINE",
"9 -201 LINE",
"9 -166 LINE",
"48 -164 LINE SMOOTH",
"77 -163 OFFCURVE",
"89 -150 OFFCURVE",
"89 -123 CURVE SMOOTH",
"91 384 LINE SMOOTH",
"91 406 OFFCURVE",
"90 436 OFFCURVE",
"57 439 CURVE SMOOTH",
"9 443 LINE",
"9 471 LINE"
);
}
);
width = 528;
},
{
background = {
components = (
{
name = l;
transform = "{1, 0, 0, 1, -3, -290}";
}
);
};
components = (
{
name = _part_bowl;
piece = {
"d,q" = 1;
};
transform = "{1, 0, 0, 1, 25, 7}";
}
);
layerId = "5A1ECF60-5C3D-4C60-84B4-C69E600E0422";
paths = (
{
closed = 1;
nodes = (
"7 492 LINE",
"86 494 OFFCURVE",
"163 505 OFFCURVE",
"236 520 CURVE",
"261 499 LINE",
"261 436 LINE",
"269 396 LINE",
"268 -80 LINE SMOOTH",
"268 -98 OFFCURVE",
"281 -110 OFFCURVE",
"311 -112 CURVE SMOOTH",
"342 -114 LINE",
"342 -204 LINE",
"169 -200 LINE",
"9 -204 LINE",
"9 -114 LINE",
"37 -110 LINE SMOOTH",
"55 -107 OFFCURVE",
"65 -94 OFFCURVE",
"65 -72 CURVE SMOOTH",
"65 358 LINE SMOOTH",
"65 379 OFFCURVE",
"57 393 OFFCURVE",
"37 397 CURVE SMOOTH",
"7 403 LINE"
);
}
);
width = 596;
}
);
rightMetricsKey = o;
unicode = 0070;
},
{
color = 1;
glyphname = q;
lastChange = "2018-03-24 12:53:50 +0000";
layers = (
{
background = {
components = (
{
name = b;
transform = "{-1, 0, 0, -1, 565, 499}";
}
);
};
components = (
{
name = _part_bowl;
transform = "{-1, 0, 0, -1, 551, 499}";
}
);
layerId = "1B5E7594-BD1E-41E1-80E1-0DE241437139";
paths = (
{
closed = 1;
nodes = (
"311 -161 LINE",
"365 -157 LINE SMOOTH",
"388 -155 OFFCURVE",
"399 -140 OFFCURVE",
"399 -116 CURVE SMOOTH",
"399 402 LINE SMOOTH",
"399 434 OFFCURVE",
"425 480 OFFCURVE",
"453 506 CURVE",
"489 489 LINE",
"469 444 OFFCURVE",
"462 412 OFFCURVE",
"462 365 CURVE SMOOTH",
"464 -118 LINE SMOOTH",
"464 -143 OFFCURVE",
"475 -157 OFFCURVE",
"496 -159 CURVE SMOOTH",
"535 -162 LINE",
"535 -204 LINE",
"427 -200 LINE",
"311 -204 LINE"
);
}
);
width = 536;
},
{
associatedMasterId = "5A1ECF60-5C3D-4C60-84B4-C69E600E0422";
guideLines = (
{
position = "{-219, 516}";
}
);
layerId = "8D1CA527-C9E7-4B61-BD44-A1816776B035";
name = "Jan 1 18, 16:39";
paths = (
{
closed = 1;
nodes = (
"245 -112 LINE",
"293 -107 LINE SMOOTH",
"321 -104 OFFCURVE",
"332 -80 OFFCURVE",
"332 -49 CURVE SMOOTH",
"330 421 LINE",
"363 396 LINE",
"448 516 LINE",
"526 516 LINE",
"525 -65 LINE SMOOTH",
"525 -88 OFFCURVE",
"537 -102 OFFCURVE",
"559 -106 CURVE SMOOTH",
"583 -110 LINE",
"581 -203 LINE",
"420 -200 LINE",
"244 -204 LINE"
);
},
{
closed = 1;
nodes = (
"389 146 LINE",
"349 64 OFFCURVE",
"285 -8 OFFCURVE",
"191 -8 CURVE SMOOTH",
"78 -8 OFFCURVE",
"15 91 OFFCURVE",
"15 236 CURVE SMOOTH",
"15 410 OFFCURVE",
"104 520 OFFCURVE",
"235 520 CURVE SMOOTH",
"355 520 OFFCURVE",
"401 481 OFFCURVE",
"433 391 CURVE",
"347 378 LINE",
"332 394 OFFCURVE",
"313 403 OFFCURVE",
"292 402 CURVE SMOOTH",
"259 400 OFFCURVE",
"240 366 OFFCURVE",
"238 279 CURVE SMOOTH",
"235 169 OFFCURVE",
"252 125 OFFCURVE",
"290 125 CURVE SMOOTH",
"311 125 OFFCURVE",
"330 132 OFFCURVE",
"347 145 CURVE"
);
}
);
width = 583;
},
{
components = (
{
name = _part_bowl;
piece = {
"d,q" = 1;
};
transform = "{-1, 0, 0, -1, 575, 505}";
}
);
guideLines = (
{
position = "{-215, 516}";
}
);
layerId = "5A1ECF60-5C3D-4C60-84B4-C69E600E0422";
paths = (
{
closed = 1;
nodes = (
"249 -112 LINE",
"297 -107 LINE SMOOTH",
"325 -104 OFFCURVE",
"336 -80 OFFCURVE",
"336 -49 CURVE SMOOTH",
"334 421 LINE",
"367 446 LINE",
"402 516 LINE",
"531 516 LINE",
"529 -65 LINE SMOOTH",
"529 -88 OFFCURVE",
"541 -102 OFFCURVE",
"563 -106 CURVE SMOOTH",
"587 -110 LINE",
"585 -203 LINE",
"424 -200 LINE",
"248 -204 LINE"
);
}
);
width = 581;
}
);
leftMetricsKey = o;
unicode = 0071;
},
{
color = 1;
glyphname = r;
lastChange = "2018-03-24 18:15:34 +0000";
layers = (
{
background = {
components = (
{
name = n;
transform = "{1, 0, 0, 1, -1, 0}";
}
);
};
backgroundImage = {
crop = "{{0, 0}, {2884, 452}}";
imagePath = ../../../../Desktop/399e0d742084ac6ec50ea38fc76418.gif;
locked = "1";
transform = "{2, 0, 0, 2, -2668, -194}";
};
guideLines = (
{
position = "{0, 471}";
}
);
layerId = "1B5E7594-BD1E-41E1-80E1-0DE241437139";
paths = (
{
closed = 1;
nodes = (
"193 456 OFFCURVE",
"293 522 OFFCURVE",
"363 500 CURVE",
"373 488 LINE",
"356 367 LINE",
"312 367 LINE",
"318 427 OFFCURVE",
"312 446 OFFCURVE",
"275 441 CURVE SMOOTH",
"246 437 OFFCURVE",
"188 407 OFFCURVE",
"165 376 CURVE",
"157 404 LINE"
);
},
{
closed = 1;
nodes = (
"84 483 OFFCURVE",
"118 494 OFFCURVE",
"164 506 CURVE",
"173 500 LINE",
"173 428 LINE",
"176 410 LINE",
"176 80 LINE SMOOTH",
"176 49 OFFCURVE",
"185 37 OFFCURVE",
"233 33 CURVE SMOOTH",
"242 32 OFFCURVE",
"256 31 OFFCURVE",
"268 31 CURVE",
"268 -4 LINE",
"144 0 LINE",
"26 -4 LINE",
"26 31 LINE",
"65 33 LINE SMOOTH",
"94 34 OFFCURVE",
"106 47 OFFCURVE",
"106 74 CURVE SMOOTH",
"108 384 LINE SMOOTH",
"108 406 OFFCURVE",
"107 436 OFFCURVE",
"74 439 CURVE SMOOTH",
"26 443 LINE",
"26 471 LINE"
);
}
);
width = 390;
},
{
background = {
components = (
{
name = n;
transform = "{1, 0, 0, 1, -5, 0}";
}
);
};
layerId = "5A1ECF60-5C3D-4C60-84B4-C69E600E0422";
paths = (
{
closed = 1;
nodes = (
"20 491 LINE",
"95 497 OFFCURVE",
"175 505 OFFCURVE",
"247 520 CURVE",
"266 503 LINE",
"264 394 LINE",
"271 361 LINE",
"271 132 LINE SMOOTH",
"271 106 OFFCURVE",
"285 93 OFFCURVE",
"314 91 CURVE SMOOTH",
"349 89 LINE",
"349 -3 LINE",
"173 0 LINE",
"20 -3 LINE",
"20 89 LINE",
"44 93 LINE SMOOTH",
"64 96 OFFCURVE",
"78 109 OFFCURVE",
"78 129 CURVE SMOOTH",
"78 363 LINE SMOOTH",
"78 384 OFFCURVE",
"66 399 OFFCURVE",
"47 401 CURVE SMOOTH",
"20 404 LINE"
);
},
{
closed = 1;
nodes = (
"261 450 OFFCURVE",
"358 529 OFFCURVE",
"468 514 CURVE",
"486 496 LINE",
"457 277 LINE",
"343 277 LINE",
"350 343 OFFCURVE",
"341 360 OFFCURVE",
"314 360 CURVE SMOOTH",
"282 360 OFFCURVE",
"268 349 OFFCURVE",
"248 332 CURVE",
"233 362 LINE"
);
}
);
width = 492;
}
);
unicode = 0072;
},
{
color = 1;
glyphname = s;
lastChange = "2018-03-24 18:44:11 +0000";
layers = (
{
associatedMasterId = "5A1ECF60-5C3D-4C60-84B4-C69E600E0422";
background = {
components = (
{
name = c;
transform = "{-1, 0, 0, -1, 485, 504}";
}
);
};
guideLines = (
{
position = "{-1138, -13}";
}
);
layerId = "1628EC35-BD20-450B-A095-3A2CE14C16B3";
name = "Mar 22 18, 20:41";
paths = (
{
closed = 1;
nodes = (
"38 475 OFFCURVE",
"150 514 OFFCURVE",
"296 517 CURVE SMOOTH",
"349 518 OFFCURVE",
"406 512 OFFCURVE",
"463 499 CURVE",
"483 471 LINE",
"455 327 LINE",
"324 327 LINE",
"334 385 OFFCURVE",
"321 414 OFFCURVE",
"268 414 CURVE SMOOTH",
"244 414 OFFCURVE",
"220 399 OFFCURVE",
"220 368 CURVE SMOOTH",
"220 340 OFFCURVE",
"260 329 OFFCURVE",
"319 315 CURVE SMOOTH",
"453 283 OFFCURVE",
"509 259 OFFCURVE",
"506 160 CURVE SMOOTH",
"503 51 OFFCURVE",
"415 -16 OFFCURVE",
"227 -16 CURVE SMOOTH",
"161 -16 OFFCURVE",
"75 -6 OFFCURVE",
"18 15 CURVE",
"54 167 LINE",
"94 180 LINE",
"114 155 OFFCURVE",
"181 91 OFFCURVE",
"243 91 CURVE SMOOTH",
"279 91 OFFCURVE",
"311 102 OFFCURVE",
"311 125 CURVE SMOOTH",
"311 150 OFFCURVE",
"275 158 OFFCURVE",
"211 171 CURVE SMOOTH",
"100 194 OFFCURVE",
"27 239 OFFCURVE",
"32 345 CURVE SMOOTH"
);
}
);
width = 515;
},
{
associatedMasterId = "5A1ECF60-5C3D-4C60-84B4-C69E600E0422";
background = {
components = (
{
name = n;
transform = "{1, 0, 0, 1, -42, 0}";
}
);
};
guideLines = (
{
position = "{-1138, -13}";
}
);
layerId = "5584C09B-412C-40C0-9745-EF0EBACB3502";
name = "Mar 24 18, 11:08";
paths = (
{
closed = 1;
nodes = (
"51 478 OFFCURVE",
"151 514 OFFCURVE",
"297 516 CURVE SMOOTH",
"366 517 OFFCURVE",
"439 512 OFFCURVE",
"496 499 CURVE",
"516 471 LINE",
"488 327 LINE",
"342 327 LINE",
"352 385 OFFCURVE",
"331 412 OFFCURVE",
"268 412 CURVE SMOOTH",
"244 412 OFFCURVE",
"224 401 OFFCURVE",
"224 370 CURVE SMOOTH",
"224 342 OFFCURVE",
"260 324 OFFCURVE",
"319 313 CURVE SMOOTH",
"462 287 OFFCURVE",
"523 258 OFFCURVE",
"520 159 CURVE SMOOTH",
"517 50 OFFCURVE",
"431 -16 OFFCURVE",
"227 -16 CURVE SMOOTH",
"161 -16 OFFCURVE",
"75 -6 OFFCURVE",
"18 15 CURVE",
"54 167 LINE",
"94 180 LINE",
"114 155 OFFCURVE",
"181 98 OFFCURVE",
"243 98 CURVE SMOOTH",
"279 98 OFFCURVE",
"305 102 OFFCURVE",
"305 125 CURVE SMOOTH",
"305 149 OFFCURVE",
"275 158 OFFCURVE",
"211 171 CURVE SMOOTH",
"100 194 OFFCURVE",
"25 250 OFFCURVE",
"37 355 CURVE SMOOTH"
);
}
);
width = 515;
},
{
background = {
components = (
{
name = c;
transform = "{-1, 0, 0, -1, 485, 504}";
}
);
};
guideLines = (
{
position = "{-1138, -13}";
}
);
layerId = "5A1ECF60-5C3D-4C60-84B4-C69E600E0422";
paths = (
{
closed = 1;
nodes = (
"41 477 OFFCURVE",
"150 517 OFFCURVE",
"264 517 CURVE SMOOTH",
"349 517 OFFCURVE",
"386 512 OFFCURVE",
"443 499 CURVE",
"463 471 LINE",
"435 331 LINE",
"304 331 LINE",
"312 395 OFFCURVE",
"316 418 OFFCURVE",
"268 418 CURVE SMOOTH",
"239 418 OFFCURVE",
"219 403 OFFCURVE",
"219 375 CURVE SMOOTH",
"219 344 OFFCURVE",
"240 333 OFFCURVE",
"299 319 CURVE SMOOTH",
"433 287 OFFCURVE",
"489 263 OFFCURVE",
"486 160 CURVE SMOOTH",
"483 51 OFFCURVE",
"407 -16 OFFCURVE",
"227 -16 CURVE SMOOTH",
"161 -16 OFFCURVE",
"99 -11 OFFCURVE",
"42 10 CURVE",
"25 41 LINE",
"51 172 LINE",
"185 169 LINE",
"177 94 OFFCURVE",
"188 72 OFFCURVE",
"239 72 CURVE SMOOTH",
"269 72 OFFCURVE",
"291 89 OFFCURVE",
"291 115 CURVE SMOOTH",
"291 148 OFFCURVE",
"255 158 OFFCURVE",
"211 171 CURVE SMOOTH",
"102 203 OFFCURVE",
"30 241 OFFCURVE",
"35 347 CURVE SMOOTH"
);
}
);
width = 495;
},
{
associatedMasterId = "5A1ECF60-5C3D-4C60-84B4-C69E600E0422";
background = {
components = (
{
name = c;
transform = "{-1, 0, 0, -1, 485, 504}";
}
);
};
guideLines = (
{
position = "{-1138, -13}";
}
);
layerId = "9CAA8F00-B1D1-4A6B-9494-781CD8092ED6";
name = "Mar 24 18, 11:08";
paths = (
{
closed = 1;
nodes = (
"38 475 OFFCURVE",
"150 514 OFFCURVE",
"296 517 CURVE SMOOTH",
"349 518 OFFCURVE",
"406 512 OFFCURVE",
"463 499 CURVE",
"483 471 LINE",
"455 331 LINE",
"324 331 LINE",
"334 389 OFFCURVE",
"321 418 OFFCURVE",
"268 418 CURVE SMOOTH",
"244 418 OFFCURVE",
"220 403 OFFCURVE",
"220 372 CURVE SMOOTH",
"220 344 OFFCURVE",
"260 333 OFFCURVE",
"319 319 CURVE SMOOTH",
"453 287 OFFCURVE",
"509 263 OFFCURVE",
"506 160 CURVE SMOOTH",
"503 51 OFFCURVE",
"427 -16 OFFCURVE",
"227 -16 CURVE SMOOTH",
"161 -16 OFFCURVE",
"99 -11 OFFCURVE",
"42 10 CURVE",
"25 41 LINE",
"51 172 LINE",
"185 169 LINE",
"177 94 OFFCURVE",
"188 72 OFFCURVE",
"253 72 CURVE SMOOTH",
"289 72 OFFCURVE",
"311 89 OFFCURVE",
"311 115 CURVE SMOOTH",
"311 148 OFFCURVE",
"275 158 OFFCURVE",
"211 171 CURVE SMOOTH",
"100 194 OFFCURVE",
"27 239 OFFCURVE",
"32 345 CURVE SMOOTH"
);
}
);
width = 515;
},
{
background = {
components = (
{
name = a;
transform = "{1, 0, 0, 1, 29, 0}";
}
);
};
layerId = "1B5E7594-BD1E-41E1-80E1-0DE241437139";
paths = (
{
closed = 1;
nodes = (
"63 462 OFFCURVE",
"151 509 OFFCURVE",
"265 507 CURVE SMOOTH",
"321 506 OFFCURVE",
"353 498 OFFCURVE",
"378 489 CURVE",
"383 475 LINE",
"368 365 LINE",
"325 365 LINE",
"331 446 OFFCURVE",
"307 461 OFFCURVE",
"253 461 CURVE SMOOTH",
"179 461 OFFCURVE",
"125 426 OFFCURVE",
"124 368 CURVE SMOOTH",
"123 326 OFFCURVE",
"138 299 OFFCURVE",
"240 273 CURVE SMOOTH",
"329 250 OFFCURVE",
"408 224 OFFCURVE",
"403 138 CURVE SMOOTH",
"397 29 OFFCURVE",
"302 -13 OFFCURVE",
"209 -13 CURVE SMOOTH",
"144 -13 OFFCURVE",
"102 -6 OFFCURVE",
"54 23 CURVE",
"51 35 LINE",
"66 138 LINE",
"114 138 LINE",
"103 39 OFFCURVE",
"132 32 OFFCURVE",
"212 32 CURVE SMOOTH",
"283 32 OFFCURVE",
"337 68 OFFCURVE",
"338 121 CURVE SMOOTH",
"339 180 OFFCURVE",
"278 196 OFFCURVE",
"200 215 CURVE SMOOTH",
"122 235 OFFCURVE",
"63 268 OFFCURVE",
"63 360 CURVE SMOOTH"
);
}
);
width = 478;
},
{
associatedMasterId = "1B5E7594-BD1E-41E1-80E1-0DE241437139";
background = {
components = (
{
name = n;
transform = "{1, 0, 0, 1, -46, 0}";
}
);
};
layerId = "484AE916-5C27-450D-A540-8E5A2453657E";
name = "Mar 24 18, 13:01";
paths = (
{
closed = 1;
nodes = (
"63 459 OFFCURVE",
"151 507 OFFCURVE",
"265 507 CURVE SMOOTH",
"318 507 OFFCURVE",
"359 505 OFFCURVE",
"407 488 CURVE",
"412 474 LINE",
"397 362 LINE",
"354 362 LINE",
"360 443 OFFCURVE",
"350 461 OFFCURVE",
"253 461 CURVE SMOOTH",
"179 461 OFFCURVE",
"127 427 OFFCURVE",
"127 366 CURVE SMOOTH",
"127 320 OFFCURVE",
"171 300 OFFCURVE",
"232 286 CURVE SMOOTH",
"322 265 OFFCURVE",
"432 247 OFFCURVE",
"431 137 CURVE SMOOTH",
"430 20 OFFCURVE",
"332 -19 OFFCURVE",
"209 -15 CURVE SMOOTH",
"144 -13 OFFCURVE",
"102 -3 OFFCURVE",
"54 26 CURVE",
"51 38 LINE",
"66 141 LINE",
"114 141 LINE",
"103 42 OFFCURVE",
"116 32 OFFCURVE",
"236 29 CURVE SMOOTH",
"307 27 OFFCURVE",
"365 61 OFFCURVE",
"366 117 CURVE SMOOTH",
"367 182 OFFCURVE",
"298 196 OFFCURVE",
"220 215 CURVE SMOOTH",
"142 235 OFFCURVE",
"63 265 OFFCURVE",
"63 357 CURVE SMOOTH"
);
}
);
width = 478;
}
);
unicode = 0073;
},
{
glyphname = germandbls;
lastChange = "2018-03-25 10:52:23 +0000";
layers = (
{
background = {
components = (
{
name = s;
transform = "{1, 0, 0, 1, 202, 0}";
},
{
name = f;
},
{
name = o;
transform = "{1, 0, 0, 0.9, 74, 341}";
}
);
};
layerId = "1B5E7594-BD1E-41E1-80E1-0DE241437139";
paths = (
{
closed = 1;
nodes = (
"168 76 LINE SMOOTH",
"168 50 OFFCURVE",
"167 39 OFFCURVE",
"192 34 CURVE SMOOTH",
"222 28 LINE",
"222 -4 LINE",
"136 0 LINE",
"29 -4 LINE",
"29 25 LINE",
"68 32 LINE SMOOTH",
"92 36 OFFCURVE",
"105 50 OFFCURVE",
"105 74 CURVE SMOOTH",
"105 395 LINE SMOOTH",
"105 421 OFFCURVE",
"103 438 OFFCURVE",
"73 440 CURVE SMOOTH",
"35 442 LINE",
"35 475 LINE",
"108 482 LINE",
"108 523 OFFCURVE",
"109 555 OFFCURVE",
"109 591 CURVE SMOOTH",
"109 675 OFFCURVE",
"169 801 OFFCURVE",
"323 801 CURVE SMOOTH",
"456 801 OFFCURVE",
"506 721 OFFCURVE",
"506 648 CURVE SMOOTH",
"506 490 OFFCURVE",
"326 465 OFFCURVE",
"326 368 CURVE SMOOTH",
"326 322 OFFCURVE",
"343 300 OFFCURVE",
"433 275 CURVE SMOOTH",
"523 250 OFFCURVE",
"607 229 OFFCURVE",
"606 137 CURVE SMOOTH",
"605 29 OFFCURVE",
"499 -13 OFFCURVE",
"410 -13 CURVE SMOOTH",
"345 -13 OFFCURVE",
"303 -3 OFFCURVE",
"255 26 CURVE",
"252 38 LINE",
"267 141 LINE",
"315 141 LINE",
"304 42 OFFCURVE",
"328 34 OFFCURVE",
"411 33 CURVE SMOOTH",
"486 32 OFFCURVE",
"540 70 OFFCURVE",
"541 117 CURVE SMOOTH",
"542 177 OFFCURVE",
"493 190 OFFCURVE",
"415 211 CURVE SMOOTH",
"337 232 OFFCURVE",
"264 265 OFFCURVE",
"264 357 CURVE SMOOTH",
"264 504 OFFCURVE",
"440 496 OFFCURVE",
"440 646 CURVE SMOOTH",
"440 729 OFFCURVE",
"382 759 OFFCURVE",
"316 759 CURVE SMOOTH",
"252 759 OFFCURVE",
"169 721 OFFCURVE",
"169 563 CURVE SMOOTH"
);
}
);
width = 612;
},
{
associatedMasterId = "5A1ECF60-5C3D-4C60-84B4-C69E600E0422";
background = {
components = (
{
name = s;
transform = "{1, 0, 0, 1, 277, 0}";
}
);
};
layerId = "BFE8D0AD-B6F4-4ADA-A49F-D548B81B16FE";
name = "Jan 1 18, 16:24";
paths = (
{
closed = 1;
nodes = (
"275 -2 LINE",
"187 0 LINE",
"16 -2 LINE",
"16 90 LINE",
"38 93 LINE SMOOTH",
"64 97 OFFCURVE",
"76 110 OFFCURVE",
"76 136 CURVE SMOOTH",
"73 351 LINE SMOOTH",
"73 376 OFFCURVE",
"62 391 OFFCURVE",
"38 393 CURVE SMOOTH",
"15 395 LINE",
"15 493 LINE",
"75 498 LINE",
"75 700 OFFCURVE",
"204 803 OFFCURVE",
"405 803 CURVE SMOOTH",
"531 803 OFFCURVE",
"646 762 OFFCURVE",
"646 640 CURVE SMOOTH",
"646 490 OFFCURVE",
"470 480 OFFCURVE",
"453 418 CURVE SMOOTH",
"441 376 OFFCURVE",
"504 364 OFFCURVE",
"575 351 CURVE SMOOTH",
"714 326 OFFCURVE",
"771 264 OFFCURVE",
"762 160 CURVE SMOOTH",
"752 47 OFFCURVE",
"672 -18 OFFCURVE",
"506 -18 CURVE SMOOTH",
"405 -18 OFFCURVE",
"313 6 OFFCURVE",
"293 13 CURVE",
"317 172 LINE",
"451 169 LINE",
"443 93 OFFCURVE",
"454 79 OFFCURVE",
"514 79 CURVE SMOOTH",
"554 79 OFFCURVE",
"577 92 OFFCURVE",
"577 121 CURVE SMOOTH",
"577 167 OFFCURVE",
"517 177 OFFCURVE",
"477 186 CURVE SMOOTH",
"367 212 OFFCURVE",
"298 242 OFFCURVE",
"298 358 CURVE SMOOTH",
"298 518 OFFCURVE",
"430 487 OFFCURVE",
"430 613 CURVE SMOOTH",
"430 661 OFFCURVE",
"411 701 OFFCURVE",
"362 701 CURVE SMOOTH",
"304 701 OFFCURVE",
"270 643 OFFCURVE",
"270 520 CURVE SMOOTH",
"270 139 LINE"
);
}
);
width = 782;
},
{
associatedMasterId = "5A1ECF60-5C3D-4C60-84B4-C69E600E0422";
background = {
components = (
{
name = s;
transform = "{1, 0, 0, 1, 266, 0}";
}
);
};
layerId = "CD3B0CC0-BCE6-45B7-AEE4-647DFA9CE993";
name = "Mar 25 18, 11:37";
paths = (
{
closed = 1;
nodes = (
"270 139 LINE SMOOTH",
"271 117 OFFCURVE",
"272 96 OFFCURVE",
"273 74 CURVE SMOOTH",
"274 37 LINE",
"275 -2 LINE",
"187 0 LINE",
"16 -2 LINE",
"16 90 LINE",
"38 93 LINE SMOOTH",
"64 97 OFFCURVE",
"76 110 OFFCURVE",
"76 136 CURVE SMOOTH",
"73 351 LINE SMOOTH",
"73 376 OFFCURVE",
"62 391 OFFCURVE",
"38 393 CURVE SMOOTH",
"15 395 LINE",
"15 493 LINE",
"75 498 LINE",
"75 511 OFFCURVE",
"75 519 OFFCURVE",
"75 538 CURVE SMOOTH",
"75 706 OFFCURVE",
"224 803 OFFCURVE",
"405 803 CURVE SMOOTH",
"531 803 OFFCURVE",
"646 762 OFFCURVE",
"646 640 CURVE SMOOTH",
"646 448 OFFCURVE",
"481 488 OFFCURVE",
"481 377 CURVE SMOOTH",
"481 355 OFFCURVE",
"505 336 OFFCURVE",
"583 315 CURVE SMOOTH",
"689 287 OFFCURVE",
"753 266 OFFCURVE",
"753 162 CURVE SMOOTH",
"753 49 OFFCURVE",
"652 -18 OFFCURVE",
"506 -18 CURVE SMOOTH",
"425 -18 OFFCURVE",
"349 -2 OFFCURVE",
"312 7 CURVE",
"296 24 LINE",
"317 172 LINE",
"451 169 LINE",
"443 93 OFFCURVE",
"463 70 OFFCURVE",
"503 70 CURVE SMOOTH",
"543 70 OFFCURVE",
"557 92 OFFCURVE",
"557 114 CURVE SMOOTH",
"557 152 OFFCURVE",
"491 166 OFFCURVE",
"451 180 CURVE SMOOTH",
"362 212 OFFCURVE",
"294 242 OFFCURVE",
"298 358 CURVE SMOOTH",
"302 474 OFFCURVE",
"428 457 OFFCURVE",
"430 613 CURVE SMOOTH",
"431 661 OFFCURVE",
"411 701 OFFCURVE",
"362 701 CURVE SMOOTH",
"304 701 OFFCURVE",
"270 643 OFFCURVE",
"270 520 CURVE SMOOTH"
);
}
);
width = 743;
},
{
background = {
components = (
{
name = s;
transform = "{1, 0, 0, 1, 266, 0}";
},
{
name = f;
transform = "{1, 0, 0, 1, -4, 0}";
}
);
};
layerId = "5A1ECF60-5C3D-4C60-84B4-C69E600E0422";
paths = (
{
closed = 1;
nodes = (
"270 139 LINE SMOOTH",
"271 117 OFFCURVE",
"272 96 OFFCURVE",
"273 74 CURVE SMOOTH",
"274 37 LINE",
"277 -2 LINE",
"187 0 LINE",
"16 -2 LINE",
"16 90 LINE",
"38 93 LINE SMOOTH",
"64 97 OFFCURVE",
"76 110 OFFCURVE",
"76 136 CURVE SMOOTH",
"73 351 LINE SMOOTH",
"73 376 OFFCURVE",
"62 391 OFFCURVE",
"38 393 CURVE SMOOTH",
"15 395 LINE",
"15 493 LINE",
"75 498 LINE",
"75 511 OFFCURVE",
"75 519 OFFCURVE",
"75 538 CURVE SMOOTH",
"75 706 OFFCURVE",
"187 801 OFFCURVE",
"370 803 CURVE SMOOTH",
"540 805 OFFCURVE",
"640 754 OFFCURVE",
"640 642 CURVE SMOOTH",
"640 506 OFFCURVE",
"482 463 OFFCURVE",
"482 380 CURVE SMOOTH",
"482 350 OFFCURVE",
"515 329 OFFCURVE",
"583 314 CURVE SMOOTH",
"722 281 OFFCURVE",
"752 249 OFFCURVE",
"752 161 CURVE SMOOTH",
"752 48 OFFCURVE",
"652 -18 OFFCURVE",
"506 -18 CURVE SMOOTH",
"425 -18 OFFCURVE",
"349 -2 OFFCURVE",
"312 7 CURVE",
"296 24 LINE",
"317 172 LINE",
"451 169 LINE",
"443 93 OFFCURVE",
"463 70 OFFCURVE",
"503 70 CURVE SMOOTH",
"543 70 OFFCURVE",
"557 90 OFFCURVE",
"557 119 CURVE SMOOTH",
"557 145 OFFCURVE",
"517 159 OFFCURVE",
"477 172 CURVE SMOOTH",
"370 207 OFFCURVE",
"297 234 OFFCURVE",
"301 350 CURVE SMOOTH",
"306 479 OFFCURVE",
"421 477 OFFCURVE",
"421 608 CURVE SMOOTH",
"421 679 OFFCURVE",
"404 707 OFFCURVE",
"348 707 CURVE SMOOTH",
"287 707 OFFCURVE",
"270 643 OFFCURVE",
"270 520 CURVE SMOOTH"
);
}
);
width = 743;
},
{
associatedMasterId = "5A1ECF60-5C3D-4C60-84B4-C69E600E0422";
background = {
components = (
{
name = s;
transform = "{1, 0, 0, 1, 266, 0}";
},
{
name = o;
transform = "{1, 0, 0, 1, 59, 286}";
}
);
};
layerId = "CAFA1AC4-23F6-4040-B28B-C922DCA5C4FC";
name = "Mar 25 18, 11:45";
paths = (
{
closed = 1;
nodes = (
"270 139 LINE SMOOTH",
"271 117 OFFCURVE",
"272 96 OFFCURVE",
"273 74 CURVE SMOOTH",
"274 37 LINE",
"275 -2 LINE",
"187 0 LINE",
"16 -2 LINE",
"16 90 LINE",
"38 93 LINE SMOOTH",
"64 97 OFFCURVE",
"76 110 OFFCURVE",
"76 136 CURVE SMOOTH",
"73 351 LINE SMOOTH",
"73 376 OFFCURVE",
"62 391 OFFCURVE",
"38 393 CURVE SMOOTH",
"15 395 LINE",
"15 493 LINE",
"75 498 LINE",
"75 511 OFFCURVE",
"75 519 OFFCURVE",
"75 538 CURVE SMOOTH",
"75 706 OFFCURVE",
"224 803 OFFCURVE",
"405 803 CURVE SMOOTH",
"531 803 OFFCURVE",
"646 754 OFFCURVE",
"646 642 CURVE SMOOTH",
"646 493 OFFCURVE",
"474 452 OFFCURVE",
"474 380 CURVE SMOOTH",
"474 348 OFFCURVE",
"504 332 OFFCURVE",
"583 314 CURVE SMOOTH",
"722 281 OFFCURVE",
"752 249 OFFCURVE",
"752 161 CURVE SMOOTH",
"752 48 OFFCURVE",
"652 -18 OFFCURVE",
"506 -18 CURVE SMOOTH",
"425 -18 OFFCURVE",
"349 -2 OFFCURVE",
"312 7 CURVE",
"296 24 LINE",
"317 172 LINE",
"451 169 LINE",
"443 93 OFFCURVE",
"463 70 OFFCURVE",
"503 70 CURVE SMOOTH",
"543 70 OFFCURVE",
"557 90 OFFCURVE",
"557 119 CURVE SMOOTH",
"557 145 OFFCURVE",
"517 159 OFFCURVE",
"477 172 CURVE SMOOTH",
"370 207 OFFCURVE",
"300 234 OFFCURVE",
"300 350 CURVE SMOOTH",
"300 483 OFFCURVE",
"426 465 OFFCURVE",
"426 621 CURVE SMOOTH",
"426 672 OFFCURVE",
"411 701 OFFCURVE",
"356 701 CURVE SMOOTH",
"304 701 OFFCURVE",
"270 643 OFFCURVE",
"270 520 CURVE SMOOTH"
);
}
);
width = 743;
}
);
unicode = 00DF;
},
{
color = 1;
glyphname = t;
lastChange = "2018-03-24 18:34:09 +0000";
layers = (
{
background = {
components = (
{
name = n;
transform = "{1, 0, 0, 1, -25, 0}";
}
);
};
guideLines = (
{
position = "{736, -5}";
}
);
layerId = "1B5E7594-BD1E-41E1-80E1-0DE241437139";
paths = (
{
closed = 1;
nodes = (
"19 477 LINE",
"60 479 LINE SMOOTH",
"81 480 OFFCURVE",
"92 489 OFFCURVE",
"95 509 CURVE SMOOTH",
"112 640 LINE",
"145 640 LINE",
"153 630 LINE",
"153 478 LINE",
"276 490 LINE",
"284 484 LINE",
"284 430 LINE",
"154 441 LINE",
"152 109 LINE SMOOTH",
"152 44 OFFCURVE",
"177 37 OFFCURVE",
"238 55 CURVE SMOOTH",
"278 67 LINE",
"282 57 LINE",
"264 4 LINE",
"143 -24 OFFCURVE",
"84 7 OFFCURVE",
"85 105 CURVE SMOOTH",
"89 403 LINE SMOOTH",
"89 424 OFFCURVE",
"80 440 OFFCURVE",
"59 441 CURVE SMOOTH",
"19 442 LINE"
);
}
);
width = 320;
},
{
background = {
components = (
{
name = f;
transform = "{1, 0, 0, -1, -18, 793}";
}
);
};
guideLines = (
{
position = "{458, 495}";
}
);
layerId = "5A1ECF60-5C3D-4C60-84B4-C69E600E0422";
paths = (
{
closed = 1;
nodes = (
"15 502 LINE",
"60 504 LINE SMOOTH",
"82 505 OFFCURVE",
"102 521 OFFCURVE",
"111 551 CURVE SMOOTH",
"147 670 LINE",
"239 670 LINE",
"258 648 LINE",
"258 495 LINE",
"334 503 LINE",
"354 482 LINE",
"354 389 LINE",
"259 398 LINE",
"255 178 LINE SMOOTH",
"255 139 OFFCURVE",
"270 111 OFFCURVE",
"316 131 CURVE SMOOTH",
"343 142 LINE",
"364 111 LINE",
"320 -4 LINE",
"86 -47 OFFCURVE",
"50 52 OFFCURVE",
"54 139 CURVE SMOOTH",
"65 370 LINE SMOOTH",
"66 391 OFFCURVE",
"50 403 OFFCURVE",
"30 402 CURVE SMOOTH",
"15 401 LINE"
);
}
);
width = 364;
},
{
associatedMasterId = "5A1ECF60-5C3D-4C60-84B4-C69E600E0422";
background = {
components = (
{
name = f;
transform = "{1, 0, 0, 1, -3, 0}";
}
);
};
guideLines = (
{
position = "{458, 495}";
}
);
layerId = "49F4F265-1A1E-432D-8A53-989ABD0B3DBC";
name = "Jan 1 18, 15:54";
paths = (
{
closed = 1;
nodes = (
"25 502 LINE",
"70 504 LINE SMOOTH",
"92 505 OFFCURVE",
"112 521 OFFCURVE",
"121 551 CURVE SMOOTH",
"157 670 LINE",
"239 670 LINE",
"258 648 LINE",
"258 495 LINE",
"324 503 LINE",
"344 482 LINE",
"344 389 LINE",
"259 398 LINE",
"255 155 LINE SMOOTH",
"255 130 OFFCURVE",
"277 121 OFFCURVE",
"302 127 CURVE SMOOTH",
"335 135 LINE",
"351 113 LINE",
"305 0 LINE",
"141 -43 OFFCURVE",
"66 26 OFFCURVE",
"66 113 CURVE SMOOTH",
"66 368 LINE SMOOTH",
"66 389 OFFCURVE",
"60 403 OFFCURVE",
"40 402 CURVE SMOOTH",
"25 401 LINE"
);
}
);
width = 364;
},
{
associatedMasterId = "1B5E7594-BD1E-41E1-80E1-0DE241437139";
background = {
components = (
{
name = n;
transform = "{1, 0, 0, 1, -25, 0}";
}
);
};
layerId = "B4B0FBE7-F7C2-454A-B586-A98C9DB7BF09";
name = "Mar 24 18, 18:22";
paths = (
{
closed = 1;
nodes = (
"19 477 LINE",
"60 479 LINE SMOOTH",
"81 480 OFFCURVE",
"92 489 OFFCURVE",
"95 509 CURVE SMOOTH",
"112 640 LINE",
"143 640 LINE",
"151 630 LINE",
"151 478 LINE",
"259 490 LINE",
"267 484 LINE",
"267 430 LINE",
"152 441 LINE",
"150 82 LINE SMOOTH",
"150 56 OFFCURVE",
"165 47 OFFCURVE",
"190 51 CURVE SMOOTH",
"266 63 LINE",
"270 53 LINE",
"252 0 LINE",
"121 -23 OFFCURVE",
"85 11 OFFCURVE",
"85 109 CURVE SMOOTH",
"86 403 LINE SMOOTH",
"86 424 OFFCURVE",
"77 440 OFFCURVE",
"56 441 CURVE SMOOTH",
"19 442 LINE"
);
}
);
width = 280;
}
);
unicode = 0074;
},
{
color = 1;
glyphname = u;
lastChange = "2018-03-24 18:46:55 +0000";
layers = (
{
background = {
components = (
{
name = n;
transform = "{-1, 0, 0, -1, 629, 504}";
}
);
};
guideLines = (
{
position = "{-7, 125}";
},
{
position = "{-51, -8}";
}
);
layerId = "5A1ECF60-5C3D-4C60-84B4-C69E600E0422";
paths = (
{
closed = 1;
nodes = (
"8 497 LINE",
"93 501 OFFCURVE",
"163 508 OFFCURVE",
"235 523 CURVE",
"263 501 LINE",
"258 183 LINE SMOOTH",
"257 129 OFFCURVE",
"296 89 OFFCURVE",
"395 169 CURVE",
"384 101 LINE",
"330 10 OFFCURVE",
"271 -16 OFFCURVE",
"199 -16 CURVE SMOOTH",
"107 -16 OFFCURVE",
"58 43 OFFCURVE",
"60 145 CURVE SMOOTH",
"65 366 LINE SMOOTH",
"66 389 OFFCURVE",
"53 399 OFFCURVE",
"32 401 CURVE SMOOTH",
"8 403 LINE"
);
},
{
closed = 1;
nodes = (
"291 497 LINE",
"369 502 OFFCURVE",
"446 509 OFFCURVE",
"524 522 CURVE",
"548 502 LINE",
"543 157 LINE SMOOTH",
"543 131 OFFCURVE",
"560 122 OFFCURVE",
"583 129 CURVE SMOOTH",
"606 136 LINE",
"623 108 LINE",
"574 0 LINE",
"427 -38 OFFCURVE",
"345 10 OFFCURVE",
"345 118 CURVE SMOOTH",
"345 363 LINE SMOOTH",
"345 386 OFFCURVE",
"337 399 OFFCURVE",
"315 401 CURVE SMOOTH",
"291 403 LINE"
);
}
);
width = 617;
},
{
background = {
components = (
{
name = n;
transform = "{-1, 0, 0, -1, 570, 499}";
}
);
};
layerId = "1B5E7594-BD1E-41E1-80E1-0DE241437139";
paths = (
{
closed = 1;
nodes = (
"3 484 LINE",
"48 488 OFFCURVE",
"91 494 OFFCURVE",
"134 502 CURVE",
"143 498 LINE",
"139 149 LINE SMOOTH",
"138 47 OFFCURVE",
"239 -1 OFFCURVE",
"413 111 CURVE",
"415 77 LINE",
"261 -63 OFFCURVE",
"67 -25 OFFCURVE",
"71 132 CURVE SMOOTH",
"77 394 LINE SMOOTH",
"78 435 OFFCURVE",
"71 447 OFFCURVE",
"27 449 CURVE SMOOTH",
"3 450 LINE"
);
},
{
closed = 1;
nodes = (
"311 483 LINE",
"360 487 OFFCURVE",
"406 494 OFFCURVE",
"451 502 CURVE",
"460 498 LINE",
"454 98 LINE SMOOTH",
"453 56 OFFCURVE",
"466 49 OFFCURVE",
"494 54 CURVE SMOOTH",
"542 63 LINE",
"546 53 LINE",
"527 0 LINE",
"412 -28 OFFCURVE",
"389 52 OFFCURVE",
"390 106 CURVE SMOOTH",
"393 392 LINE SMOOTH",
"393 430 OFFCURVE",
"381 445 OFFCURVE",
"338 448 CURVE SMOOTH",
"311 450 LINE"
);
}
);
width = 565;
},
{
associatedMasterId = "1B5E7594-BD1E-41E1-80E1-0DE241437139";
background = {
components = (
{
name = t;
transform = "{1, 0, 0, 1, 305, 0}";
}
);
};
layerId = "61492818-0997-4729-BF61-F9DE1467FD80";
name = "Mar 22 18, 19:09";
paths = (
{
closed = 1;
nodes = (
"29 484 LINE",
"74 488 OFFCURVE",
"117 494 OFFCURVE",
"160 502 CURVE",
"169 498 LINE",
"165 163 LINE SMOOTH",
"164 82 OFFCURVE",
"167 -9 OFFCURVE",
"418 116 CURVE",
"409 73 LINE",
"212 -60 OFFCURVE",
"93 -22 OFFCURVE",
"97 132 CURVE SMOOTH",
"103 394 LINE SMOOTH",
"104 435 OFFCURVE",
"97 447 OFFCURVE",
"53 449 CURVE SMOOTH",
"29 450 LINE"
);
},
{
closed = 1;
nodes = (
"311 483 LINE",
"360 487 OFFCURVE",
"406 494 OFFCURVE",
"451 502 CURVE",
"460 498 LINE",
"454 98 LINE SMOOTH",
"453 56 OFFCURVE",
"466 49 OFFCURVE",
"494 54 CURVE SMOOTH",
"542 63 LINE",
"546 53 LINE",
"527 0 LINE",
"412 -28 OFFCURVE",
"389 52 OFFCURVE",
"390 106 CURVE SMOOTH",
"393 392 LINE SMOOTH",
"393 430 OFFCURVE",
"381 445 OFFCURVE",
"338 448 CURVE SMOOTH",
"311 450 LINE"
);
}
);
width = 565;
}
);
unicode = 0075;
},
{
color = 1;
glyphname = v;
lastChange = "2018-03-24 18:47:37 +0000";
layers = (
{
background = {
components = (
{
name = n;
transform = "{1, 0, 0, 1, -48, 149}";
}
);
};
layerId = "1B5E7594-BD1E-41E1-80E1-0DE241437139";
paths = (
{
closed = 1;
nodes = (
"8 500 LINE",
"99 496 LINE",
"203 500 LINE",
"204 461 LINE",
"173 459 LINE SMOOTH",
"148 457 OFFCURVE",
"136 443 OFFCURVE",
"143 422 CURVE SMOOTH",
"233 133 LINE",
"250 73 LINE",
"373 415 LINE SMOOTH",
"382 440 OFFCURVE",
"379 460 OFFCURVE",
"337 460 CURVE SMOOTH",
"293 460 LINE",
"293 500 LINE",
"407 496 LINE",
"488 500 LINE",
"488 463 LINE",
"473 463 LINE SMOOTH",
"455 463 OFFCURVE",
"446 454 OFFCURVE",
"440 438 CURVE SMOOTH",
"275 8 LINE",
"253 1 OFFCURVE",
"232 -5 OFFCURVE",
"210 -12 CURVE",
"67 427 LINE SMOOTH",
"61 444 OFFCURVE",
"51 459 OFFCURVE",
"30 461 CURVE SMOOTH",
"8 463 LINE"
);
}
);
width = 481;
},
{
layerId = "5A1ECF60-5C3D-4C60-84B4-C69E600E0422";
paths = (
{
closed = 1;
nodes = (
"-4 501 LINE",
"143 500 LINE",
"294 503 LINE",
"294 406 LINE",
"273 404 LINE SMOOTH",
"256 402 OFFCURVE",
"260 376 OFFCURVE",
"264 357 CURVE SMOOTH",
"296 194 LINE",
"305 129 LINE",
"355 347 LINE SMOOTH",
"363 381 OFFCURVE",
"362 402 OFFCURVE",
"342 404 CURVE SMOOTH",
"318 406 LINE",
"318 503 LINE",
"454 500 LINE",
"553 503 LINE",
"553 406 LINE",
"521 402 LINE SMOOTH",
"502 400 OFFCURVE",
"490 378 OFFCURVE",
"484 355 CURVE SMOOTH",
"392 6 LINE",
"322 6 OFFCURVE",
"221 -1 OFFCURVE",
"151 -10 CURVE",
"55 368 LINE SMOOTH",
"50 387 OFFCURVE",
"34 401 OFFCURVE",
"19 402 CURVE SMOOTH",
"-4 404 LINE"
);
}
);
width = 551;
},
{
associatedMasterId = "1B5E7594-BD1E-41E1-80E1-0DE241437139";
background = {
paths = (
{
closed = 1;
nodes = (
"357 421 OFFCURVE",
"345 386 OFFCURVE",
"322 329 CURVE SMOOTH",
"298 273 OFFCURVE",
"264 194 OFFCURVE",
"223 91 CURVE",
"219 91 LINE",
"200 151 OFFCURVE",
"184 205 OFFCURVE",
"172 253 CURVE SMOOTH",
"166 274 OFFCURVE",
"161 294 OFFCURVE",
"155 315 CURVE SMOOTH",
"144 356 OFFCURVE",
"134 391 OFFCURVE",
"130 416 CURVE",
"126 428 OFFCURVE",
"125 435 OFFCURVE",
"125 440 CURVE SMOOTH",
"125 450 OFFCURVE",
"130 457 OFFCURVE",
"138 461 CURVE SMOOTH",
"147 464 OFFCURVE",
"165 467 OFFCURVE",
"190 468 CURVE",
"197 503 LINE",
"195 508 LINE",
"181 507 OFFCURVE",
"168 505 OFFCURVE",
"154 504 CURVE",
"129 500 OFFCURVE",
"97 500 OFFCURVE",
"62 500 CURVE SMOOTH",
"7 500 LINE SMOOTH",
"-5 500 OFFCURVE",
"-17 500 OFFCURVE",
"-29 502 CURVE",
"-36 465 LINE",
"-34 461 LINE",
"4 460 OFFCURVE",
"30 441 OFFCURVE",
"41 406 CURVE SMOOTH",
"49 382 OFFCURVE",
"61 344 OFFCURVE",
"76 300 CURVE SMOOTH",
"90 256 OFFCURVE",
"107 206 OFFCURVE",
"121 158 CURVE SMOOTH",
"137 103 OFFCURVE",
"157 45 OFFCURVE",
"176 -17 CURVE",
"236 2 LINE",
"396 378 LINE SMOOTH",
"409 410 OFFCURVE",
"420 429 OFFCURVE",
"430 442 CURVE",
"440 454 OFFCURVE",
"450 457 OFFCURVE",
"466 461 CURVE",
"474 502 LINE",
"464 500 OFFCURVE",
"453 500 OFFCURVE",
"443 500 CURVE SMOOTH",
"383 500 LINE",
"306 500 LINE SMOOTH",
"293 500 OFFCURVE",
"281 500 OFFCURVE",
"269 502 CURVE",
"263 467 LINE",
"268 461 LINE",
"309 461 LINE SMOOTH",
"345 461 OFFCURVE",
"357 455 OFFCURVE",
"357 434 CURVE SMOOTH"
);
}
);
};
layerId = "9D0F713D-0DDC-4FC9-8B93-9A6DA16AB0FD";
name = "Sep 26 17, 12:20";
paths = (
{
closed = 1;
nodes = (
"-30 483 LINE",
"97 503 LINE",
"104 498 LINE",
"198 133 LINE",
"214 60 LINE",
"344 431 LINE",
"262 454 LINE",
"262 483 LINE",
"418 504 LINE",
"426 498 LINE",
"240 8 LINE",
"175 -12 LINE",
"43 432 LINE",
"-30 455 LINE"
);
}
);
width = 426;
}
);
unicode = 0076;
},
{
color = 1;
glyphname = w;
lastChange = "2018-03-24 11:35:29 +0000";
layers = (
{
background = {
paths = (
{
closed = 1;
nodes = (
"439 449 LINE",
"270 8 LINE",
"205 -12 LINE",
"70 438 LINE",
"150 435 LINE",
"228 133 LINE",
"244 60 LINE",
"367 426 LINE"
);
}
);
};
layerId = "1B5E7594-BD1E-41E1-80E1-0DE241437139";
paths = (
{
closed = 1;
nodes = (
"11 504 LINE",
"98 500 LINE",
"227 502 LINE",
"227 469 LINE",
"177 466 LINE SMOOTH",
"145 464 OFFCURVE",
"142 443 OFFCURVE",
"150 411 CURVE SMOOTH",
"221 133 LINE",
"236 63 LINE",
"331 480 LINE",
"406 500 LINE",
"498 133 LINE",
"513 63 LINE",
"615 404 LINE SMOOTH",
"624 434 OFFCURVE",
"629 467 OFFCURVE",
"582 468 CURVE SMOOTH",
"537 469 LINE",
"537 502 LINE",
"661 500 LINE",
"736 504 LINE",
"736 469 LINE",
"721 469 LINE SMOOTH",
"707 469 OFFCURVE",
"697 462 OFFCURVE",
"692 449 CURVE SMOOTH",
"539 8 LINE",
"517 1 OFFCURVE",
"496 -5 OFFCURVE",
"474 -12 CURVE",
"360 380 LINE",
"267 8 LINE",
"244 1 OFFCURVE",
"220 -5 OFFCURVE",
"197 -12 CURVE",
"65 434 LINE SMOOTH",
"60 452 OFFCURVE",
"51 465 OFFCURVE",
"30 466 CURVE SMOOTH",
"11 467 LINE"
);
}
);
width = 760;
},
{
background = {
components = (
{
name = v;
transform = "{1, 0, 0, 1, -4, 0}";
}
);
};
layerId = "5A1ECF60-5C3D-4C60-84B4-C69E600E0422";
paths = (
{
closed = 1;
nodes = (
"-4 503 LINE",
"152 500 LINE",
"304 503 LINE",
"304 406 LINE",
"283 404 LINE SMOOTH",
"264 402 OFFCURVE",
"256 383 OFFCURVE",
"258 366 CURVE SMOOTH",
"284 186 LINE",
"292 130 LINE",
"335 493 LINE",
"528 513 LINE",
"581 185 LINE",
"587 131 LINE",
"625 337 LINE SMOOTH",
"633 382 OFFCURVE",
"617 400 OFFCURVE",
"591 403 CURVE SMOOTH",
"560 406 LINE",
"560 503 LINE",
"692 500 LINE",
"819 503 LINE",
"819 406 LINE",
"791 402 LINE SMOOTH",
"772 399 OFFCURVE",
"755 375 OFFCURVE",
"750 355 CURVE SMOOTH",
"663 8 LINE",
"594 6 OFFCURVE",
"513 0 OFFCURVE",
"444 -8 CURVE",
"398 227 LINE",
"370 4 LINE",
"293 2 OFFCURVE",
"219 -5 OFFCURVE",
"147 -12 CURVE",
"53 367 LINE SMOOTH",
"47 393 OFFCURVE",
"35 402 OFFCURVE",
"18 404 CURVE SMOOTH",
"-4 406 LINE"
);
}
);
width = 814;
}
);
unicode = 0077;
},
{
color = 1;
glyphname = x;
lastChange = "2018-03-24 11:35:43 +0000";
layers = (
{
background = {
components = (
{
name = n;
transform = "{1, 0, 0, 1, 10, 0}";
}
);
};
guideLines = (
{
position = "{548, 96}";
}
);
layerId = "5A1ECF60-5C3D-4C60-84B4-C69E600E0422";
paths = (
{
closed = 1;
nodes = (
"456 500 LINE",
"559 502 LINE",
"559 403 LINE",
"541 401 LINE SMOOTH",
"519 399 OFFCURVE",
"508 382 OFFCURVE",
"494 363 CURVE SMOOTH",
"384 209 LINE",
"313 272 LINE",
"367 365 LINE SMOOTH",
"376 381 OFFCURVE",
"382 399 OFFCURVE",
"365 401 CURVE SMOOTH",
"347 403 LINE",
"347 503 LINE"
);
},
{
closed = 1;
nodes = (
"160 500 LINE",
"322 503 LINE",
"322 404 LINE",
"310 402 LINE SMOOTH",
"294 399 OFFCURVE",
"291 381 OFFCURVE",
"300 367 CURVE SMOOTH",
"353 290 LINE",
"388 271 LINE",
"497 122 LINE SMOOTH",
"510 105 OFFCURVE",
"518 93 OFFCURVE",
"535 91 CURVE SMOOTH",
"554 89 LINE",
"554 -3 LINE",
"424 0 LINE",
"266 -3 LINE",
"266 89 LINE",
"278 91 LINE SMOOTH",
"299 95 OFFCURVE",
"302 111 OFFCURVE",
"286 131 CURVE SMOOTH",
"214 221 LINE",
"187 227 LINE",
"103 352 LINE SMOOTH",
"77 390 OFFCURVE",
"64 401 OFFCURVE",
"26 403 CURVE",
"26 500 LINE"
);
},
{
closed = 1;
nodes = (
"42 91 LINE SMOOTH",
"63 93 OFFCURVE",
"81 110 OFFCURVE",
"94 131 CURVE SMOOTH",
"193 292 LINE",
"278 220 LINE",
"224 132 LINE SMOOTH",
"211 111 OFFCURVE",
"207 94 OFFCURVE",
"227 91 CURVE SMOOTH",
"240 89 LINE",
"240 -3 LINE",
"121 0 LINE",
"20 -3 LINE",
"20 89 LINE"
);
}
);
width = 559;
},
{
background = {
components = (
{
name = n;
transform = "{1, 0, 0, 1, -46, 0}";
}
);
};
layerId = "1B5E7594-BD1E-41E1-80E1-0DE241437139";
paths = (
{
closed = 1;
nodes = (
"371 496 LINE",
"469 500 LINE",
"469 465 LINE",
"445 461 LINE SMOOTH",
"424 457 OFFCURVE",
"411 439 OFFCURVE",
"395 418 CURVE SMOOTH",
"255 234 LINE",
"226 265 LINE",
"327 402 LINE SMOOTH",
"347 429 OFFCURVE",
"355 456 OFFCURVE",
"311 461 CURVE SMOOTH",
"274 465 LINE",
"274 500 LINE"
);
},
{
closed = 1;
nodes = (
"116 496 LINE",
"229 500 LINE",
"228 464 LINE",
"187 460 LINE SMOOTH",
"161 457 OFFCURVE",
"154 433 OFFCURVE",
"166 415 CURVE SMOOTH",
"260 273 LINE",
"282 255 LINE",
"412 66 LINE SMOOTH",
"422 51 OFFCURVE",
"437 33 OFFCURVE",
"456 32 CURVE SMOOTH",
"478 31 LINE",
"477 -4 LINE",
"375 0 LINE",
"279 -3 LINE",
"280 31 LINE",
"307 34 LINE SMOOTH",
"343 38 OFFCURVE",
"348 51 OFFCURVE",
"327 81 CURVE SMOOTH",
"228 225 LINE",
"209 240 LINE",
"84 428 LINE SMOOTH",
"76 441 OFFCURVE",
"64 458 OFFCURVE",
"37 460 CURVE SMOOTH",
"15 462 LINE",
"17 500 LINE"
);
},
{
closed = 1;
nodes = (
"35 38 LINE SMOOTH",
"53 41 OFFCURVE",
"76 63 OFFCURVE",
"94 88 CURVE SMOOTH",
"216 261 LINE",
"262 242 LINE",
"154 86 LINE SMOOTH",
"134 58 OFFCURVE",
"145 38 OFFCURVE",
"178 34 CURVE SMOOTH",
"220 29 LINE",
"220 -3 LINE",
"108 0 LINE",
"2 -4 LINE",
"2 32 LINE"
);
}
);
width = 498;
}
);
unicode = 0078;
},
{
color = 1;
glyphname = y;
lastChange = "2018-03-24 12:28:00 +0000";
layers = (
{
background = {
components = (
{
name = v;
}
);
};
guideLines = (
{
angle = 180;
position = "{798, -199}";
}
);
layerId = "5A1ECF60-5C3D-4C60-84B4-C69E600E0422";
paths = (
{
closed = 1;
nodes = (
"-4 502 LINE",
"142 500 LINE",
"295 503 LINE",
"295 406 LINE",
"275 403 LINE SMOOTH",
"258 400 OFFCURVE",
"260 376 OFFCURVE",
"264 357 CURVE SMOOTH",
"296 186 LINE",
"304 128 LINE",
"358 347 LINE SMOOTH",
"363 369 OFFCURVE",
"367 403 OFFCURVE",
"346 404 CURVE SMOOTH",
"318 406 LINE",
"318 503 LINE",
"436 500 LINE",
"541 503 LINE",
"541 406 LINE",
"511 401 LINE SMOOTH",
"492 398 OFFCURVE",
"479 373 OFFCURVE",
"474 355 CURVE SMOOTH",
"398 73 LINE SMOOTH",
"357 -79 OFFCURVE",
"270 -220 OFFCURVE",
"96 -209 CURVE",
"1 -69 LINE",
"22 -38 LINE",
"111 -59 OFFCURVE",
"225 -51 OFFCURVE",
"252 2 CURVE",
"147 -10 LINE",
"55 369 LINE SMOOTH",
"50 388 OFFCURVE",
"34 400 OFFCURVE",
"19 402 CURVE SMOOTH",
"-4 405 LINE"
);
}
);
width = 532;
},
{
associatedMasterId = "1B5E7594-BD1E-41E1-80E1-0DE241437139";
background = {
paths = (
{
closed = 1;
nodes = (
"-14 501 LINE",
"175 501 LINE",
"175 460 LINE",
"154 458 LINE SMOOTH",
"129 456 OFFCURVE",
"119 442 OFFCURVE",
"124 421 CURVE SMOOTH",
"198 134 LINE",
"214 61 LINE",
"332 412 LINE SMOOTH",
"340 437 OFFCURVE",
"338 460 OFFCURVE",
"296 460 CURVE SMOOTH",
"252 460 LINE",
"252 501 LINE",
"451 501 LINE",
"451 460 LINE",
"436 460 LINE SMOOTH",
"418 460 OFFCURVE",
"409 451 OFFCURVE",
"403 435 CURVE SMOOTH",
"277 95 LINE",
"197 -176 LINE",
"115 -200 LINE",
"104 -193 LINE",
"198.996 11.749 LINE",
"168 4 LINE",
"45 424 LINE SMOOTH",
"40 441 OFFCURVE",
"29 456 OFFCURVE",
"8 458 CURVE SMOOTH",
"-14 460 LINE"
);
}
);
};
layerId = "B1AEC783-D669-4C54-90E6-2051BD492EA3";
name = "Sep 27 17, 15:26";
paths = (
{
closed = 1;
nodes = (
"-14 501 LINE",
"185 501 LINE",
"185 460 LINE",
"154 457 LINE SMOOTH",
"129 455 OFFCURVE",
"119 442 OFFCURVE",
"124 421 CURVE SMOOTH",
"198 134 LINE",
"214 61 LINE",
"328 398 LINE SMOOTH",
"336 423 OFFCURVE",
"334 454 OFFCURVE",
"292 457 CURVE SMOOTH",
"252 460 LINE",
"252 501 LINE",
"451 501 LINE",
"451 460 LINE",
"436 460 LINE SMOOTH",
"418 460 OFFCURVE",
"409 451 OFFCURVE",
"403 435 CURVE SMOOTH",
"277 95 LINE",
"197 -176 LINE",
"95 -200 LINE",
"84 -193 LINE",
"203 12 LINE",
"168 4 LINE",
"45 424 LINE SMOOTH",
"40 441 OFFCURVE",
"29 456 OFFCURVE",
"8 458 CURVE SMOOTH",
"-14 460 LINE"
);
}
);
width = 425;
},
{
background = {
components = (
{
name = v;
transform = "{1, 0, 0, 1, 14, 0}";
}
);
};
layerId = "1B5E7594-BD1E-41E1-80E1-0DE241437139";
paths = (
{
closed = 1;
nodes = (
"10 504 LINE",
"103 500 LINE",
"209 504 LINE",
"209 469 LINE",
"177 466 LINE SMOOTH",
"143 463 OFFCURVE",
"140 446 OFFCURVE",
"148 421 CURVE SMOOTH",
"241 134 LINE",
"259 68 LINE",
"372 398 LINE SMOOTH",
"383 428 OFFCURVE",
"395 465 OFFCURVE",
"345 467 CURVE SMOOTH",
"296 469 LINE",
"296 504 LINE",
"407 500 LINE",
"495 504 LINE",
"495 469 LINE",
"480 469 LINE SMOOTH",
"462 469 OFFCURVE",
"453 451 OFFCURVE",
"447 435 CURVE SMOOTH",
"296 33 LINE SMOOTH",
"254 -79 OFFCURVE",
"172 -188 OFFCURVE",
"72 -200 CURVE",
"22 -137 LINE",
"30 -120 LINE",
"111 -111 OFFCURVE",
"200 -70 OFFCURVE",
"241 12 CURVE",
"211 4 LINE",
"67 434 LINE SMOOTH",
"61 451 OFFCURVE",
"53 465 OFFCURVE",
"32 467 CURVE SMOOTH",
"10 469 LINE"
);
}
);
width = 505;
},
{
associatedMasterId = "5A1ECF60-5C3D-4C60-84B4-C69E600E0422";
background = {
components = (
{
name = v;
transform = "{1, 0, 0, 1, 10, 0}";
}
);
};
guideLines = (
{
position = "{819, -199}";
}
);
layerId = "BF21DE4A-CB32-4BB5-99A2-75E12A1CB238";
name = "Sep 27 17, 15:26";
paths = (
{
closed = 1;
nodes = (
"17 500 LINE",
"315 500 LINE",
"315 406 LINE",
"294 404 LINE SMOOTH",
"277 402 OFFCURVE",
"281 376 OFFCURVE",
"285 357 CURVE SMOOTH",
"317 186 LINE",
"327 125 LINE",
"381 347 LINE SMOOTH",
"386 369 OFFCURVE",
"392 402 OFFCURVE",
"370 404 CURVE SMOOTH",
"344 406 LINE",
"344 500 LINE",
"557 500 LINE",
"557 403 LINE",
"525 398 LINE SMOOTH",
"506 395 OFFCURVE",
"493 373 OFFCURVE",
"488 355 CURVE SMOOTH",
"408 73 LINE",
"342 -176 LINE",
"128 -199 LINE",
"107 -178 LINE",
"254 19 LINE",
"169 9 LINE",
"76 370 LINE SMOOTH",
"71 389 OFFCURVE",
"55 401 OFFCURVE",
"40 403 CURVE SMOOTH",
"17 406 LINE"
);
}
);
width = 545;
},
{
associatedMasterId = "1B5E7594-BD1E-41E1-80E1-0DE241437139";
background = {
components = (
{
name = v;
transform = "{1, 0, 0, 1, 14, 0}";
}
);
};
layerId = "5FC36906-1784-4AFE-9702-494E9DC1DB23";
name = "Mar 22 18, 20:34";
paths = (
{
closed = 1;
nodes = (
"10 504 LINE",
"103 500 LINE",
"209 504 LINE",
"209 469 LINE",
"177 466 LINE SMOOTH",
"143 463 OFFCURVE",
"140 446 OFFCURVE",
"148 421 CURVE SMOOTH",
"241 134 LINE",
"259 68 LINE",
"372 398 LINE SMOOTH",
"383 428 OFFCURVE",
"395 465 OFFCURVE",
"345 467 CURVE SMOOTH",
"296 469 LINE",
"296 504 LINE",
"407 500 LINE",
"495 504 LINE",
"495 469 LINE",
"480 469 LINE SMOOTH",
"462 469 OFFCURVE",
"453 451 OFFCURVE",
"447 435 CURVE SMOOTH",
"291 22 LINE SMOOTH",
"247 -95 OFFCURVE",
"175 -190 OFFCURVE",
"96 -200 CURVE",
"52 -147 LINE",
"52 -131 LINE",
"123 -111 OFFCURVE",
"202 -70 OFFCURVE",
"241 12 CURVE",
"211 4 LINE",
"67 434 LINE SMOOTH",
"61 451 OFFCURVE",
"53 465 OFFCURVE",
"32 467 CURVE SMOOTH",
"10 469 LINE"
);
}
);
width = 505;
},
{
associatedMasterId = "5A1ECF60-5C3D-4C60-84B4-C69E600E0422";
background = {
components = (
{
name = v;
transform = "{1, 0, 0, 1, -11, 0}";
}
);
};
guideLines = (
{
angle = 180;
position = "{798, -199}";
}
);
layerId = "64EC0153-9A07-493F-AA16-274D78019197";
name = "Mar 22 18, 20:44";
paths = (
{
closed = 1;
nodes = (
"-4 502 LINE",
"142 500 LINE",
"303 503 LINE",
"303 406 LINE",
"275 403 LINE SMOOTH",
"258 401 OFFCURVE",
"260 376 OFFCURVE",
"264 357 CURVE SMOOTH",
"296 186 LINE",
"306 125 LINE",
"360 347 LINE SMOOTH",
"365 369 OFFCURVE",
"370 402 OFFCURVE",
"348 404 CURVE SMOOTH",
"324 406 LINE",
"324 503 LINE",
"436 500 LINE",
"536 503 LINE",
"536 403 LINE",
"504 398 LINE SMOOTH",
"485 395 OFFCURVE",
"472 373 OFFCURVE",
"467 355 CURVE SMOOTH",
"383 73 LINE SMOOTH",
"337 -79 OFFCURVE",
"270 -220 OFFCURVE",
"96 -209 CURVE",
"1 -69 LINE",
"22 -38 LINE",
"101 -55 OFFCURVE",
"221 -35 OFFCURVE",
"253 18 CURVE",
"147 8 LINE",
"55 369 LINE SMOOTH",
"50 388 OFFCURVE",
"34 400 OFFCURVE",
"19 402 CURVE SMOOTH",
"-4 405 LINE"
);
}
);
width = 532;
}
);
unicode = 0079;
},
{
color = 1;
glyphname = z;
lastChange = "2018-03-24 12:53:08 +0000";
layers = (
{
layerId = "5A1ECF60-5C3D-4C60-84B4-C69E600E0422";
paths = (
{
closed = 1;
nodes = (
"181 5 OFFCURVE",
"317 5 OFFCURVE",
"455 -3 CURVE",
"478 22 LINE",
"457 226 LINE",
"354 226 LINE",
"355 159 OFFCURVE",
"335 110 OFFCURVE",
"275 109 CURVE SMOOTH",
"229 108 LINE",
"320 203 LINE",
"489 376 LINE",
"456 501 LINE",
"321 496 OFFCURVE",
"186 495 OFFCURVE",
"51 502 CURVE",
"30 481 LINE",
"50 268 LINE",
"152 268 LINE",
"150 334 OFFCURVE",
"164 378 OFFCURVE",
"208 379 CURVE SMOOTH",
"283 381 LINE",
"187 292 LINE",
"2 101 LINE",
"43 -3 LINE"
);
}
);
width = 505;
},
{
background = {
components = (
{
name = n;
transform = "{1, 0, 0, 1, -84, 0}";
}
);
};
layerId = "1B5E7594-BD1E-41E1-80E1-0DE241437139";
paths = (
{
closed = 1;
nodes = (
"135 3 OFFCURVE",
"255 4 OFFCURVE",
"381 -2 CURVE",
"395 13 LINE",
"378 133 LINE",
"343 133 LINE",
"345 71 OFFCURVE",
"328 47 OFFCURVE",
"295 46 CURVE SMOOTH",
"85 42 LINE",
"139 100 LINE",
"398 476 LINE",
"385 503 LINE",
"264 497 OFFCURVE",
"168 497 OFFCURVE",
"47 502 CURVE",
"35 490 LINE",
"35 345 LINE",
"74 345 LINE",
"79 415 OFFCURVE",
"80 449 OFFCURVE",
"128 450 CURVE SMOOTH",
"324 456 LINE",
"267 399 LINE",
"0 21 LINE",
"11 0 LINE"
);
}
);
width = 415;
},
{
associatedMasterId = "5A1ECF60-5C3D-4C60-84B4-C69E600E0422";
layerId = "3D5FB35E-3F1E-42D4-8943-CC621B949E96";
name = "Jan 1 18, 16:34";
paths = (
{
closed = 1;
nodes = (
"181 5 OFFCURVE",
"317 5 OFFCURVE",
"455 -3 CURVE",
"478 22 LINE",
"457 228 LINE",
"366 228 LINE",
"367 161 OFFCURVE",
"347 144 OFFCURVE",
"307 142 CURVE SMOOTH",
"209 138 LINE",
"282 205 LINE",
"486 426 LINE",
"456 501 LINE",
"321 496 OFFCURVE",
"186 495 OFFCURVE",
"51 502 CURVE",
"30 481 LINE",
"50 270 LINE",
"140 270 LINE",
"138 336 OFFCURVE",
"152 351 OFFCURVE",
"196 352 CURVE SMOOTH",
"293 354 LINE",
"227 294 LINE",
"12 67 LINE",
"43 -3 LINE"
);
}
);
width = 505;
},
{
associatedMasterId = "5A1ECF60-5C3D-4C60-84B4-C69E600E0422";
layerId = "AFEF7E76-8D79-4A95-916A-2381A7311DCB";
name = "Mar 22 18, 19:15";
paths = (
{
closed = 1;
nodes = (
"181 5 OFFCURVE",
"317 5 OFFCURVE",
"455 -3 CURVE",
"478 22 LINE",
"457 228 LINE",
"354 228 LINE",
"355 161 OFFCURVE",
"335 144 OFFCURVE",
"295 142 CURVE SMOOTH",
"209 138 LINE",
"282 205 LINE",
"486 426 LINE",
"456 501 LINE",
"321 496 OFFCURVE",
"186 495 OFFCURVE",
"51 502 CURVE",
"30 481 LINE",
"50 270 LINE",
"152 270 LINE",
"150 336 OFFCURVE",
"164 351 OFFCURVE",
"208 352 CURVE SMOOTH",
"293 354 LINE",
"227 294 LINE",
"12 67 LINE",
"43 -3 LINE"
);
}
);
width = 505;
},
{
associatedMasterId = "1B5E7594-BD1E-41E1-80E1-0DE241437139";
background = {
paths = (
{
closed = 1;
nodes = (
"25 500 LINE",
"12 482 LINE",
"25 366 LINE",
"64 366 LINE",
"64 433 OFFCURVE",
"74 439 OFFCURVE",
"107 440 CURVE SMOOTH",
"323 444 LINE",
"280 399 LINE",
"9 25 LINE",
"19 -1 LINE",
"383 0 LINE",
"395 13 LINE",
"378 134 LINE",
"342 134 LINE",
"341 70 OFFCURVE",
"332 60 OFFCURVE",
"284 59 CURVE SMOOTH",
"84 56 LINE",
"125 98 LINE",
"404 477 LINE",
"394 495 LINE"
);
}
);
};
layerId = "73890089-33CF-4D24-9F30-706ED95C0423";
name = "Mar 22 18, 20:36";
paths = (
{
closed = 1;
nodes = (
"135 3 OFFCURVE",
"255 4 OFFCURVE",
"381 -2 CURVE",
"395 13 LINE",
"378 133 LINE",
"343 133 LINE",
"345 71 OFFCURVE",
"328 61 OFFCURVE",
"295 60 CURVE SMOOTH",
"81 54 LINE",
"124 100 LINE",
"398 474 LINE",
"388 500 LINE",
"267 495 OFFCURVE",
"168 495 OFFCURVE",
"47 500 CURVE",
"35 488 LINE",
"35 345 LINE",
"74 345 LINE",
"79 415 OFFCURVE",
"80 438 OFFCURVE",
"128 438 CURVE SMOOTH",
"323 438 LINE",
"282 399 LINE",
"0 21 LINE",
"11 0 LINE"
);
}
);
width = 395;
}
);
unicode = 007A;
},
{
export = 0;
glyphname = _part_bowl;
lastChange = "2018-03-24 18:43:16 +0000";
layers = (
{
background = {
components = (
{
name = o;
transform = "{1, 0, 0, 1, 33, 0}";
},
{
name = n;
transform = "{1, 0, 0, 1, -20, 0}";
}
);
};
guideLines = (
{
position = "{162, 511}";
}
);
layerId = "1B5E7594-BD1E-41E1-80E1-0DE241437139";
paths = (
{
closed = 1;
nodes = (
"121 404 LINE",
"187 469 OFFCURVE",
"244 509 OFFCURVE",
"328 509 CURVE SMOOTH",
"428 509 OFFCURVE",
"516 416 OFFCURVE",
"516 257 CURVE SMOOTH",
"516 95 OFFCURVE",
"417 -12 OFFCURVE",
"281 -12 CURVE SMOOTH",
"205 -12 OFFCURVE",
"156 15 OFFCURVE",
"119 50 CURVE",
"126 95 LINE",
"179 53 OFFCURVE",
"223 36 OFFCURVE",
"279 36 CURVE SMOOTH",
"376 36 OFFCURVE",
"440 113 OFFCURVE",
"440 256 CURVE SMOOTH",
"440 388 OFFCURVE",
"380 452 OFFCURVE",
"301 452 CURVE SMOOTH",
"242 452 OFFCURVE",
"172 415 OFFCURVE",
"110 339 CURVE"
);
}
);
width = 607;
},
{
background = {
components = (
{
name = n;
transform = "{1, 0, 0, 1, -12, 0}";
}
);
};
guideLines = (
{
position = "{274, 514}";
},
{
position = "{42, -15}";
}
);
layerId = "5A1ECF60-5C3D-4C60-84B4-C69E600E0422";
paths = (
{
closed = 1;
nodes = (
"182 359 LINE",
"222 441 OFFCURVE",
"286 513 OFFCURVE",
"380 513 CURVE SMOOTH",
"493 513 OFFCURVE",
"556 414 OFFCURVE",
"556 269 CURVE SMOOTH",
"556 105 OFFCURVE",
"491 -15 OFFCURVE",
"342 -15 CURVE SMOOTH",
"261 -15 OFFCURVE",
"205 24 OFFCURVE",
"169 114 CURVE",
"224 128 LINE",
"239 112 OFFCURVE",
"258 101 OFFCURVE",
"279 102 CURVE SMOOTH",
"312 104 OFFCURVE",
"331 140 OFFCURVE",
"333 220 CURVE SMOOTH",
"336 329 OFFCURVE",
"321 373 OFFCURVE",
"283 373 CURVE SMOOTH",
"262 373 OFFCURVE",
"243 364 OFFCURVE",
"225 343 CURVE"
);
}
);
userData = {
PartSelection = {
"d,q" = 2;
};
};
width = 600;
},
{
associatedMasterId = "1B5E7594-BD1E-41E1-80E1-0DE241437139";
background = {
paths = (
{
closed = 1;
nodes = (
"166 80 OFFCURVE",
"227 39 OFFCURVE",
"296 39 CURVE SMOOTH",
"380 39 OFFCURVE",
"442 112 OFFCURVE",
"442 242 CURVE SMOOTH",
"442 377 OFFCURVE",
"378 459 OFFCURVE",
"282 459 CURVE SMOOTH",
"228 459 OFFCURVE",
"159 438 OFFCURVE",
"114 384 CURVE",
"104 411 LINE",
"147 487 OFFCURVE",
"220 507 OFFCURVE",
"287 507 CURVE SMOOTH",
"428 507 OFFCURVE",
"513 400 OFFCURVE",
"513 238 CURVE SMOOTH",
"513 86 OFFCURVE",
"438 -12 OFFCURVE",
"318 -12 CURVE SMOOTH",
"185 -12 OFFCURVE",
"116 87 OFFCURVE",
"100 147 CURVE",
"114 149 LINE"
);
}
);
};
layerId = "9AD2550B-8CDA-401C-88F2-25DCDF6597F5";
name = "Mar 22 18, 19:06";
paths = (
{
closed = 1;
nodes = (
"100 348 LINE",
"116 408 OFFCURVE",
"185 507 OFFCURVE",
"318 507 CURVE SMOOTH",
"438 507 OFFCURVE",
"513 409 OFFCURVE",
"513 257 CURVE SMOOTH",
"513 95 OFFCURVE",
"428 -12 OFFCURVE",
"287 -12 CURVE SMOOTH",
"220 -12 OFFCURVE",
"147 8 OFFCURVE",
"104 84 CURVE",
"114 111 LINE",
"159 57 OFFCURVE",
"228 36 OFFCURVE",
"282 36 CURVE SMOOTH",
"378 36 OFFCURVE",
"442 118 OFFCURVE",
"442 253 CURVE SMOOTH",
"442 383 OFFCURVE",
"380 456 OFFCURVE",
"296 456 CURVE SMOOTH",
"227 456 OFFCURVE",
"166 415 OFFCURVE",
"114 346 CURVE"
);
}
);
width = 607;
}
);
partsSettings = (
{
name = "d,q";
bottomName = Low;
bottomValue = 0;
topName = High;
topValue = 1;
}
);
},
